SplineFontDB: 3.2
FontName: 5x8-LCD-HD44780U-A02
FullName: 5x8 LCD HD44780U A02 Regular
FamilyName: 5x8 LCD HD44780U A02
Weight: Book
Copyright: Copyright vader381 2010\n"5x8 LCD HD44780U A02" is based on "LCD Dot Matrix Condensed" by "Havar Henriksen" (http://fontstruct.fontshop.com/fontstructors/farside), which is based on "LCD Dot Matrix" by "Havar Henriksen" (http://fontstruct.fontshop.com/fontstructors/farside)
Version: 1.0
ItalicAngle: 0
UnderlinePosition: 77
UnderlineWidth: 51
Ascent: 819
Descent: 205
InvalidEm: 0
sfntRevision: 0x00010000
LayerCount: 2
Layer: 0 1 "Back" 1
Layer: 1 1 "Fore" 0
XUID: [1021 455 165707359 2972595]
StyleMap: 0x0040
FSType: 4
OS2Version: 2
OS2_WeightWidthSlopeOnly: 0
OS2_UseTypoMetrics: 0
CreationTime: 1281080791
ModificationTime: 1603133210
PfmFamily: 81
TTFWeight: 400
TTFWidth: 5
LineGap: 0
VLineGap: 0
Panose: 0 0 4 0 0 0 0 0 0 0
OS2TypoAscent: 896
OS2TypoAOffset: 0
OS2TypoDescent: 0
OS2TypoDOffset: 0
OS2TypoLinegap: 0
OS2WinAscent: 1152
OS2WinAOffset: 0
OS2WinDescent: 128
OS2WinDOffset: 0
HheadAscent: 1152
HheadAOffset: 0
HheadDescent: -128
HheadDOffset: 0
OS2SubXSize: 512
OS2SubYSize: 512
OS2SubXOff: 0
OS2SubYOff: 0
OS2SupXSize: 512
OS2SupYSize: 512
OS2SupXOff: 0
OS2SupYOff: 512
OS2StrikeYSize: 51
OS2StrikeYPos: 204
OS2CapHeight: 865
OS2XHeight: 609
OS2Vendor: 'FSTR'
OS2CodePages: 000001ff.00000000
OS2UnicodeRanges: 8010000f.4000000a.00000000.00000000
DEI: 91125
ShortTable: maxp 16
  1
  0
  231
  140
  35
  0
  0
  2
  0
  0
  0
  0
  0
  0
  0
  0
EndShort

StartChar: .notdef
Encoding: 65536 -1 0
Width: 0
Flags: W
LayerCount: 2
Fore
SplineSet
448 127 m 1,0,-1
 448 269 l 1,1,-1
 305 269 l 1,2,-1
 305 127 l 1,3,-1
 448 127 l 1,0,-1
590 293 m 1,4,-1
 590 436 l 1,5,-1
 305 436 l 1,6,-1
 305 293 l 1,7,-1
 590 293 l 1,4,-1
448 459 m 1,8,-1
 448 602 l 1,9,-1
 305 602 l 1,10,-1
 305 459 l 1,11,-1
 448 459 l 1,8,-1
590 626 m 1,12,-1
 590 767 l 1,13,-1
 448 767 l 2,14,15
 388 767 388 767 347 726 c 0,16,17
 305 684 305 684 305 626 c 1,18,-1
 590 626 l 1,12,-1
0 0 m 1,19,-1
 0 896 l 1,20,-1
 896 896 l 1,21,-1
 896 0 l 1,22,-1
 0 0 l 1,19,-1
EndSplineSet
Validated: 1
EndChar

StartChar: exclam
Encoding: 33 33 4
Width: 768
Flags: W
LayerCount: 2
Fore
SplineSet
268 12 m 1,0,-1
 268 109 l 1,1,-1
 365 109 l 1,2,-1
 365 12 l 1,3,-1
 268 12 l 1,0,-1
268 268 m 1,4,-1
 268 365 l 1,5,-1
 365 365 l 1,6,-1
 365 268 l 1,7,-1
 268 268 l 1,4,-1
268 396 m 1,8,-1
 268 493 l 1,9,-1
 365 493 l 1,10,-1
 365 396 l 1,11,-1
 268 396 l 1,8,-1
268 524 m 1,12,-1
 268 621 l 1,13,-1
 365 621 l 1,14,-1
 365 524 l 1,15,-1
 268 524 l 1,12,-1
268 652 m 1,16,-1
 268 749 l 1,17,-1
 365 749 l 1,18,-1
 365 652 l 1,19,-1
 268 652 l 1,16,-1
268 780 m 1,20,-1
 268 877 l 1,21,-1
 365 877 l 1,22,-1
 365 780 l 1,23,-1
 268 780 l 1,20,-1
EndSplineSet
Validated: 1
EndChar

StartChar: quotedbl
Encoding: 34 34 5
Width: 767
Flags: W
LayerCount: 2
Fore
SplineSet
267 11 m 5,0,-1
 267 108 l 5,1,-1
 364 108 l 5,2,-1
 364 11 l 5,3,-1
 267 11 l 5,0,-1
267 139 m 5,4,-1
 267 236 l 5,5,-1
 364 236 l 5,6,-1
 364 139 l 5,7,-1
 267 139 l 5,4,-1
267 267 m 5,8,-1
 267 364 l 5,9,-1
 364 364 l 5,10,-1
 364 267 l 5,11,-1
 267 267 l 5,8,-1
267 395 m 5,12,-1
 267 492 l 5,13,-1
 364 492 l 5,14,-1
 364 395 l 5,15,-1
 267 395 l 5,12,-1
267 523 m 5,16,-1
 267 620 l 5,17,-1
 364 620 l 5,18,-1
 364 523 l 5,19,-1
 267 523 l 5,16,-1
267 651 m 5,20,-1
 267 748 l 5,21,-1
 364 748 l 5,22,-1
 364 651 l 5,23,-1
 267 651 l 5,20,-1
11 13 m 5,24,-1
 11 110 l 5,25,-1
 108 110 l 5,26,-1
 108 13 l 5,27,-1
 11 13 l 5,24,-1
11 141 m 5,28,-1
 11 238 l 5,29,-1
 108 238 l 5,30,-1
 108 141 l 5,31,-1
 11 141 l 5,28,-1
11 269 m 5,32,-1
 11 366 l 5,33,-1
 108 366 l 5,34,-1
 108 269 l 5,35,-1
 11 269 l 5,32,-1
11 397 m 5,36,-1
 11 494 l 5,37,-1
 108 494 l 5,38,-1
 108 397 l 5,39,-1
 11 397 l 5,36,-1
11 525 m 5,40,-1
 11 622 l 5,41,-1
 108 622 l 5,42,-1
 108 525 l 5,43,-1
 11 525 l 5,40,-1
11 653 m 5,44,-1
 11 750 l 5,45,-1
 108 750 l 5,46,-1
 108 653 l 5,47,-1
 11 653 l 5,44,-1
138 12 m 5,48,-1
 138 109 l 5,49,-1
 235 109 l 5,50,-1
 235 12 l 5,51,-1
 138 12 l 5,48,-1
138 140 m 5,52,-1
 138 237 l 5,53,-1
 235 237 l 5,54,-1
 235 140 l 5,55,-1
 138 140 l 5,52,-1
138 268 m 5,56,-1
 138 365 l 5,57,-1
 235 365 l 5,58,-1
 235 268 l 5,59,-1
 138 268 l 5,56,-1
138 396 m 5,60,-1
 138 493 l 5,61,-1
 235 493 l 5,62,-1
 235 396 l 5,63,-1
 138 396 l 5,60,-1
138 524 m 5,64,-1
 138 621 l 5,65,-1
 235 621 l 5,66,-1
 235 524 l 5,67,-1
 138 524 l 5,64,-1
138 652 m 5,68,-1
 138 749 l 5,69,-1
 235 749 l 5,70,-1
 235 652 l 5,71,-1
 138 652 l 5,68,-1
12 780 m 5,72,-1
 12 877 l 5,73,-1
 109 877 l 5,74,-1
 109 780 l 5,75,-1
 12 780 l 5,72,-1
140 780 m 5,76,-1
 140 877 l 5,77,-1
 237 877 l 5,78,-1
 237 780 l 5,79,-1
 140 780 l 5,76,-1
268 780 m 5,80,-1
 268 877 l 5,81,-1
 365 877 l 5,82,-1
 365 780 l 5,83,-1
 268 780 l 5,80,-1
EndSplineSet
Validated: 1
EndChar

StartChar: numbersign
Encoding: 35 35 6
Width: 767
Flags: W
LayerCount: 2
Fore
SplineSet
140 12 m 1,0,-1
 140 109 l 1,1,-1
 237 109 l 1,2,-1
 237 12 l 1,3,-1
 140 12 l 1,0,-1
396 12 m 1,4,-1
 396 109 l 1,5,-1
 493 109 l 1,6,-1
 493 12 l 1,7,-1
 396 12 l 1,4,-1
140 140 m 1,8,-1
 140 237 l 1,9,-1
 237 237 l 1,10,-1
 237 140 l 1,11,-1
 140 140 l 1,8,-1
396 140 m 1,12,-1
 396 237 l 1,13,-1
 493 237 l 1,14,-1
 493 140 l 1,15,-1
 396 140 l 1,12,-1
12 268 m 1,16,-1
 12 365 l 1,17,-1
 109 365 l 1,18,-1
 109 268 l 1,19,-1
 12 268 l 1,16,-1
140 268 m 1,20,-1
 140 365 l 1,21,-1
 237 365 l 1,22,-1
 237 268 l 1,23,-1
 140 268 l 1,20,-1
268 268 m 1,24,-1
 268 365 l 1,25,-1
 365 365 l 1,26,-1
 365 268 l 1,27,-1
 268 268 l 1,24,-1
396 268 m 1,28,-1
 396 365 l 1,29,-1
 493 365 l 1,30,-1
 493 268 l 1,31,-1
 396 268 l 1,28,-1
524 268 m 1,32,-1
 524 365 l 1,33,-1
 621 365 l 1,34,-1
 621 268 l 1,35,-1
 524 268 l 1,32,-1
140 396 m 1,36,-1
 140 493 l 1,37,-1
 237 493 l 1,38,-1
 237 396 l 1,39,-1
 140 396 l 1,36,-1
396 396 m 1,40,-1
 396 493 l 1,41,-1
 493 493 l 1,42,-1
 493 396 l 1,43,-1
 396 396 l 1,40,-1
12 524 m 1,44,-1
 12 621 l 1,45,-1
 109 621 l 1,46,-1
 109 524 l 1,47,-1
 12 524 l 1,44,-1
140 524 m 1,48,-1
 140 621 l 1,49,-1
 237 621 l 1,50,-1
 237 524 l 1,51,-1
 140 524 l 1,48,-1
268 524 m 1,52,-1
 268 621 l 1,53,-1
 365 621 l 1,54,-1
 365 524 l 1,55,-1
 268 524 l 1,52,-1
396 524 m 1,56,-1
 396 621 l 1,57,-1
 493 621 l 1,58,-1
 493 524 l 1,59,-1
 396 524 l 1,56,-1
524 524 m 1,60,-1
 524 621 l 1,61,-1
 621 621 l 1,62,-1
 621 524 l 1,63,-1
 524 524 l 1,60,-1
140 652 m 1,64,-1
 140 749 l 1,65,-1
 237 749 l 1,66,-1
 237 652 l 1,67,-1
 140 652 l 1,64,-1
396 652 m 1,68,-1
 396 749 l 1,69,-1
 493 749 l 1,70,-1
 493 652 l 1,71,-1
 396 652 l 1,68,-1
140 780 m 1,72,-1
 140 877 l 1,73,-1
 237 877 l 1,74,-1
 237 780 l 1,75,-1
 140 780 l 1,72,-1
396 780 m 1,76,-1
 396 877 l 1,77,-1
 493 877 l 1,78,-1
 493 780 l 1,79,-1
 396 780 l 1,76,-1
EndSplineSet
Validated: 1
EndChar

StartChar: dollar
Encoding: 36 36 7
Width: 767
Flags: W
LayerCount: 2
Fore
SplineSet
268 12 m 1,0,-1
 268 109 l 1,1,-1
 365 109 l 1,2,-1
 365 12 l 1,3,-1
 268 12 l 1,0,-1
12 140 m 1,4,-1
 12 237 l 1,5,-1
 109 237 l 1,6,-1
 109 140 l 1,7,-1
 12 140 l 1,4,-1
140 140 m 1,8,-1
 140 237 l 1,9,-1
 237 237 l 1,10,-1
 237 140 l 1,11,-1
 140 140 l 1,8,-1
268 140 m 1,12,-1
 268 237 l 1,13,-1
 365 237 l 1,14,-1
 365 140 l 1,15,-1
 268 140 l 1,12,-1
396 140 m 1,16,-1
 396 237 l 1,17,-1
 493 237 l 1,18,-1
 493 140 l 1,19,-1
 396 140 l 1,16,-1
268 268 m 1,20,-1
 268 365 l 1,21,-1
 365 365 l 1,22,-1
 365 268 l 1,23,-1
 268 268 l 1,20,-1
524 268 m 1,24,-1
 524 365 l 1,25,-1
 621 365 l 1,26,-1
 621 268 l 1,27,-1
 524 268 l 1,24,-1
140 396 m 1,28,-1
 140 493 l 1,29,-1
 237 493 l 1,30,-1
 237 396 l 1,31,-1
 140 396 l 1,28,-1
268 396 m 1,32,-1
 268 493 l 1,33,-1
 365 493 l 1,34,-1
 365 396 l 1,35,-1
 268 396 l 1,32,-1
396 396 m 1,36,-1
 396 493 l 1,37,-1
 493 493 l 1,38,-1
 493 396 l 1,39,-1
 396 396 l 1,36,-1
12 524 m 1,40,-1
 12 621 l 1,41,-1
 109 621 l 1,42,-1
 109 524 l 1,43,-1
 12 524 l 1,40,-1
268 524 m 1,44,-1
 268 621 l 1,45,-1
 365 621 l 1,46,-1
 365 524 l 1,47,-1
 268 524 l 1,44,-1
140 652 m 1,48,-1
 140 749 l 1,49,-1
 237 749 l 1,50,-1
 237 652 l 1,51,-1
 140 652 l 1,48,-1
268 652 m 1,52,-1
 268 749 l 1,53,-1
 365 749 l 1,54,-1
 365 652 l 1,55,-1
 268 652 l 1,52,-1
396 652 m 1,56,-1
 396 749 l 1,57,-1
 493 749 l 1,58,-1
 493 652 l 1,59,-1
 396 652 l 1,56,-1
524 652 m 1,60,-1
 524 749 l 1,61,-1
 621 749 l 1,62,-1
 621 652 l 1,63,-1
 524 652 l 1,60,-1
268 780 m 1,64,-1
 268 877 l 1,65,-1
 365 877 l 1,66,-1
 365 780 l 1,67,-1
 268 780 l 1,64,-1
EndSplineSet
Validated: 1
EndChar

StartChar: percent
Encoding: 37 37 8
Width: 767
Flags: W
LayerCount: 2
Fore
SplineSet
396 12 m 1,0,-1
 396 109 l 1,1,-1
 493 109 l 1,2,-1
 493 12 l 1,3,-1
 396 12 l 1,0,-1
524 12 m 1,4,-1
 524 109 l 1,5,-1
 621 109 l 1,6,-1
 621 12 l 1,7,-1
 524 12 l 1,4,-1
12 140 m 1,8,-1
 12 237 l 1,9,-1
 109 237 l 1,10,-1
 109 140 l 1,11,-1
 12 140 l 1,8,-1
396 140 m 1,12,-1
 396 237 l 1,13,-1
 493 237 l 1,14,-1
 493 140 l 1,15,-1
 396 140 l 1,12,-1
524 140 m 1,16,-1
 524 237 l 1,17,-1
 621 237 l 1,18,-1
 621 140 l 1,19,-1
 524 140 l 1,16,-1
140 268 m 1,20,-1
 140 365 l 1,21,-1
 237 365 l 1,22,-1
 237 268 l 1,23,-1
 140 268 l 1,20,-1
268 396 m 1,24,-1
 268 493 l 1,25,-1
 365 493 l 1,26,-1
 365 396 l 1,27,-1
 268 396 l 1,24,-1
396 524 m 1,28,-1
 396 621 l 1,29,-1
 493 621 l 1,30,-1
 493 524 l 1,31,-1
 396 524 l 1,28,-1
12 652 m 1,32,-1
 12 749 l 1,33,-1
 109 749 l 1,34,-1
 109 652 l 1,35,-1
 12 652 l 1,32,-1
140 652 m 1,36,-1
 140 749 l 1,37,-1
 237 749 l 1,38,-1
 237 652 l 1,39,-1
 140 652 l 1,36,-1
524 652 m 1,40,-1
 524 749 l 1,41,-1
 621 749 l 1,42,-1
 621 652 l 1,43,-1
 524 652 l 1,40,-1
12 780 m 1,44,-1
 12 877 l 1,45,-1
 109 877 l 1,46,-1
 109 780 l 1,47,-1
 12 780 l 1,44,-1
140 780 m 1,48,-1
 140 877 l 1,49,-1
 237 877 l 1,50,-1
 237 780 l 1,51,-1
 140 780 l 1,48,-1
EndSplineSet
Validated: 1
EndChar

StartChar: ampersand
Encoding: 38 38 9
Width: 767
Flags: W
LayerCount: 2
Fore
SplineSet
140 12 m 1,0,-1
 140 109 l 1,1,-1
 237 109 l 1,2,-1
 237 12 l 1,3,-1
 140 12 l 1,0,-1
268 12 m 1,4,-1
 268 109 l 1,5,-1
 365 109 l 1,6,-1
 365 12 l 1,7,-1
 268 12 l 1,4,-1
524 12 m 1,8,-1
 524 109 l 1,9,-1
 621 109 l 1,10,-1
 621 12 l 1,11,-1
 524 12 l 1,8,-1
12 140 m 1,12,-1
 12 237 l 1,13,-1
 109 237 l 1,14,-1
 109 140 l 1,15,-1
 12 140 l 1,12,-1
396 140 m 1,16,-1
 396 237 l 1,17,-1
 493 237 l 1,18,-1
 493 140 l 1,19,-1
 396 140 l 1,16,-1
12 268 m 1,20,-1
 12 365 l 1,21,-1
 109 365 l 1,22,-1
 109 268 l 1,23,-1
 12 268 l 1,20,-1
268 268 m 1,24,-1
 268 365 l 1,25,-1
 365 365 l 1,26,-1
 365 268 l 1,27,-1
 268 268 l 1,24,-1
524 268 m 1,28,-1
 524 365 l 1,29,-1
 621 365 l 1,30,-1
 621 268 l 1,31,-1
 524 268 l 1,28,-1
140 396 m 1,32,-1
 140 493 l 1,33,-1
 237 493 l 1,34,-1
 237 396 l 1,35,-1
 140 396 l 1,32,-1
12 524 m 1,36,-1
 12 621 l 1,37,-1
 109 621 l 1,38,-1
 109 524 l 1,39,-1
 12 524 l 1,36,-1
268 524 m 1,40,-1
 268 621 l 1,41,-1
 365 621 l 1,42,-1
 365 524 l 1,43,-1
 268 524 l 1,40,-1
12 652 m 1,44,-1
 12 749 l 1,45,-1
 109 749 l 1,46,-1
 109 652 l 1,47,-1
 12 652 l 1,44,-1
396 652 m 1,48,-1
 396 749 l 1,49,-1
 493 749 l 1,50,-1
 493 652 l 1,51,-1
 396 652 l 1,48,-1
140 780 m 1,52,-1
 140 877 l 1,53,-1
 237 877 l 1,54,-1
 237 780 l 1,55,-1
 140 780 l 1,52,-1
268 780 m 1,56,-1
 268 877 l 1,57,-1
 365 877 l 1,58,-1
 365 780 l 1,59,-1
 268 780 l 1,56,-1
EndSplineSet
Validated: 1
EndChar

StartChar: quotesingle
Encoding: 39 39 10
Width: 768
Flags: W
LayerCount: 2
Fore
SplineSet
268 652 m 1,0,-1
 268 749 l 1,1,-1
 365 749 l 1,2,-1
 365 652 l 1,3,-1
 268 652 l 1,0,-1
268 780 m 1,4,-1
 268 877 l 1,5,-1
 365 877 l 1,6,-1
 365 780 l 1,7,-1
 268 780 l 1,4,-1
EndSplineSet
Validated: 1
EndChar

StartChar: parenleft
Encoding: 40 40 11
Width: 768
Flags: W
LayerCount: 2
Fore
SplineSet
396 12 m 1,0,-1
 396 109 l 1,1,-1
 493 109 l 1,2,-1
 493 12 l 1,3,-1
 396 12 l 1,0,-1
268 140 m 1,4,-1
 268 237 l 1,5,-1
 365 237 l 1,6,-1
 365 140 l 1,7,-1
 268 140 l 1,4,-1
140 268 m 1,8,-1
 140 365 l 1,9,-1
 237 365 l 1,10,-1
 237 268 l 1,11,-1
 140 268 l 1,8,-1
140 396 m 1,12,-1
 140 493 l 1,13,-1
 237 493 l 1,14,-1
 237 396 l 1,15,-1
 140 396 l 1,12,-1
140 524 m 1,16,-1
 140 621 l 1,17,-1
 237 621 l 1,18,-1
 237 524 l 1,19,-1
 140 524 l 1,16,-1
268 652 m 1,20,-1
 268 749 l 1,21,-1
 365 749 l 1,22,-1
 365 652 l 1,23,-1
 268 652 l 1,20,-1
396 780 m 1,24,-1
 396 877 l 1,25,-1
 493 877 l 1,26,-1
 493 780 l 1,27,-1
 396 780 l 1,24,-1
EndSplineSet
Validated: 1
EndChar

StartChar: parenright
Encoding: 41 41 12
Width: 768
Flags: W
LayerCount: 2
Fore
SplineSet
140 12 m 1,0,-1
 140 109 l 1,1,-1
 237 109 l 1,2,-1
 237 12 l 1,3,-1
 140 12 l 1,0,-1
268 140 m 1,4,-1
 268 237 l 1,5,-1
 365 237 l 1,6,-1
 365 140 l 1,7,-1
 268 140 l 1,4,-1
396 268 m 1,8,-1
 396 365 l 1,9,-1
 493 365 l 1,10,-1
 493 268 l 1,11,-1
 396 268 l 1,8,-1
396 396 m 1,12,-1
 396 493 l 1,13,-1
 493 493 l 1,14,-1
 493 396 l 1,15,-1
 396 396 l 1,12,-1
396 524 m 1,16,-1
 396 621 l 1,17,-1
 493 621 l 1,18,-1
 493 524 l 1,19,-1
 396 524 l 1,16,-1
268 652 m 1,20,-1
 268 749 l 1,21,-1
 365 749 l 1,22,-1
 365 652 l 1,23,-1
 268 652 l 1,20,-1
140 780 m 1,24,-1
 140 877 l 1,25,-1
 237 877 l 1,26,-1
 237 780 l 1,27,-1
 140 780 l 1,24,-1
EndSplineSet
Validated: 1
EndChar

StartChar: asterisk
Encoding: 42 42 13
Width: 767
Flags: W
LayerCount: 2
Fore
SplineSet
524 11 m 5,0,-1
 524 108 l 5,1,-1
 621 108 l 5,2,-1
 621 11 l 5,3,-1
 524 11 l 5,0,-1
524 139 m 5,4,-1
 524 236 l 5,5,-1
 621 236 l 5,6,-1
 621 139 l 5,7,-1
 524 139 l 5,4,-1
524 267 m 5,8,-1
 524 364 l 5,9,-1
 621 364 l 5,10,-1
 621 267 l 5,11,-1
 524 267 l 5,8,-1
524 395 m 5,12,-1
 524 492 l 5,13,-1
 621 492 l 5,14,-1
 621 395 l 5,15,-1
 524 395 l 5,12,-1
524 523 m 5,16,-1
 524 620 l 5,17,-1
 621 620 l 5,18,-1
 621 523 l 5,19,-1
 524 523 l 5,16,-1
524 651 m 5,20,-1
 524 748 l 5,21,-1
 621 748 l 5,22,-1
 621 651 l 5,23,-1
 524 651 l 5,20,-1
394 11 m 5,24,-1
 394 108 l 5,25,-1
 491 108 l 5,26,-1
 491 11 l 5,27,-1
 394 11 l 5,24,-1
394 139 m 5,28,-1
 394 236 l 5,29,-1
 491 236 l 5,30,-1
 491 139 l 5,31,-1
 394 139 l 5,28,-1
394 267 m 5,32,-1
 394 364 l 5,33,-1
 491 364 l 5,34,-1
 491 267 l 5,35,-1
 394 267 l 5,32,-1
394 395 m 5,36,-1
 394 492 l 5,37,-1
 491 492 l 5,38,-1
 491 395 l 5,39,-1
 394 395 l 5,36,-1
394 523 m 5,40,-1
 394 620 l 5,41,-1
 491 620 l 5,42,-1
 491 523 l 5,43,-1
 394 523 l 5,40,-1
394 651 m 5,44,-1
 394 748 l 5,45,-1
 491 748 l 5,46,-1
 491 651 l 5,47,-1
 394 651 l 5,44,-1
267 11 m 5,48,-1
 267 108 l 5,49,-1
 364 108 l 5,50,-1
 364 11 l 5,51,-1
 267 11 l 5,48,-1
267 139 m 5,52,-1
 267 236 l 5,53,-1
 364 236 l 5,54,-1
 364 139 l 5,55,-1
 267 139 l 5,52,-1
267 267 m 5,56,-1
 267 364 l 5,57,-1
 364 364 l 5,58,-1
 364 267 l 5,59,-1
 267 267 l 5,56,-1
267 395 m 5,60,-1
 267 492 l 5,61,-1
 364 492 l 5,62,-1
 364 395 l 5,63,-1
 267 395 l 5,60,-1
267 523 m 5,64,-1
 267 620 l 5,65,-1
 364 620 l 5,66,-1
 364 523 l 5,67,-1
 267 523 l 5,64,-1
267 651 m 5,68,-1
 267 748 l 5,69,-1
 364 748 l 5,70,-1
 364 651 l 5,71,-1
 267 651 l 5,68,-1
11 13 m 5,72,-1
 11 110 l 5,73,-1
 108 110 l 5,74,-1
 108 13 l 5,75,-1
 11 13 l 5,72,-1
11 141 m 5,76,-1
 11 238 l 5,77,-1
 108 238 l 5,78,-1
 108 141 l 5,79,-1
 11 141 l 5,76,-1
11 269 m 5,80,-1
 11 366 l 5,81,-1
 108 366 l 5,82,-1
 108 269 l 5,83,-1
 11 269 l 5,80,-1
11 397 m 5,84,-1
 11 494 l 5,85,-1
 108 494 l 5,86,-1
 108 397 l 5,87,-1
 11 397 l 5,84,-1
11 525 m 5,88,-1
 11 622 l 5,89,-1
 108 622 l 5,90,-1
 108 525 l 5,91,-1
 11 525 l 5,88,-1
11 653 m 5,92,-1
 11 750 l 5,93,-1
 108 750 l 5,94,-1
 108 653 l 5,95,-1
 11 653 l 5,92,-1
138 12 m 5,96,-1
 138 109 l 5,97,-1
 235 109 l 5,98,-1
 235 12 l 5,99,-1
 138 12 l 5,96,-1
138 140 m 5,100,-1
 138 237 l 5,101,-1
 235 237 l 5,102,-1
 235 140 l 5,103,-1
 138 140 l 5,100,-1
138 268 m 5,104,-1
 138 365 l 5,105,-1
 235 365 l 5,106,-1
 235 268 l 5,107,-1
 138 268 l 5,104,-1
138 396 m 5,108,-1
 138 493 l 5,109,-1
 235 493 l 5,110,-1
 235 396 l 5,111,-1
 138 396 l 5,108,-1
138 524 m 5,112,-1
 138 621 l 5,113,-1
 235 621 l 5,114,-1
 235 524 l 5,115,-1
 138 524 l 5,112,-1
138 652 m 5,116,-1
 138 749 l 5,117,-1
 235 749 l 5,118,-1
 235 652 l 5,119,-1
 138 652 l 5,116,-1
12 780 m 5,120,-1
 12 877 l 5,121,-1
 109 877 l 5,122,-1
 109 780 l 5,123,-1
 12 780 l 5,120,-1
140 780 m 5,124,-1
 140 877 l 5,125,-1
 237 877 l 5,126,-1
 237 780 l 5,127,-1
 140 780 l 5,124,-1
268 780 m 5,128,-1
 268 877 l 5,129,-1
 365 877 l 5,130,-1
 365 780 l 5,131,-1
 268 780 l 5,128,-1
396 780 m 5,132,-1
 396 877 l 5,133,-1
 493 877 l 5,134,-1
 493 780 l 5,135,-1
 396 780 l 5,132,-1
524 780 m 5,136,-1
 524 877 l 5,137,-1
 621 877 l 5,138,-1
 621 780 l 5,139,-1
 524 780 l 5,136,-1
EndSplineSet
Validated: 1
EndChar

StartChar: plus
Encoding: 43 43 14
Width: 767
Flags: W
LayerCount: 2
Fore
SplineSet
11 10 m 1,0,-1
 11 107 l 1,1,-1
 108 107 l 1,2,-1
 108 10 l 1,3,-1
 11 10 l 1,0,-1
11 138 m 1,4,-1
 11 235 l 1,5,-1
 108 235 l 1,6,-1
 108 138 l 1,7,-1
 11 138 l 1,4,-1
11 266 m 1,8,-1
 11 363 l 1,9,-1
 108 363 l 1,10,-1
 108 266 l 1,11,-1
 11 266 l 1,8,-1
11 394 m 1,12,-1
 11 491 l 1,13,-1
 108 491 l 1,14,-1
 108 394 l 1,15,-1
 11 394 l 1,12,-1
11 522 m 1,16,-1
 11 619 l 1,17,-1
 108 619 l 1,18,-1
 108 522 l 1,19,-1
 11 522 l 1,16,-1
11 650 m 1,20,-1
 11 747 l 1,21,-1
 108 747 l 1,22,-1
 108 650 l 1,23,-1
 11 650 l 1,20,-1
12 780 m 1,24,-1
 12 877 l 1,25,-1
 109 877 l 1,26,-1
 109 780 l 1,27,-1
 12 780 l 1,24,-1
EndSplineSet
Validated: 1
EndChar

StartChar: comma
Encoding: 44 44 15
Width: 768
Flags: W
LayerCount: 2
Fore
SplineSet
140 12 m 1,0,-1
 140 109 l 1,1,-1
 237 109 l 1,2,-1
 237 12 l 1,3,-1
 140 12 l 1,0,-1
268 140 m 1,4,-1
 268 237 l 1,5,-1
 365 237 l 1,6,-1
 365 140 l 1,7,-1
 268 140 l 1,4,-1
140 268 m 1,8,-1
 140 365 l 1,9,-1
 237 365 l 1,10,-1
 237 268 l 1,11,-1
 140 268 l 1,8,-1
268 268 m 1,12,-1
 268 365 l 1,13,-1
 365 365 l 1,14,-1
 365 268 l 1,15,-1
 268 268 l 1,12,-1
EndSplineSet
Validated: 1
EndChar

StartChar: hyphen
Encoding: 45 45 16
Width: 767
Flags: W
LayerCount: 2
Fore
SplineSet
12 396 m 1,0,-1
 12 493 l 1,1,-1
 109 493 l 1,2,-1
 109 396 l 1,3,-1
 12 396 l 1,0,-1
140 396 m 1,4,-1
 140 493 l 1,5,-1
 237 493 l 1,6,-1
 237 396 l 1,7,-1
 140 396 l 1,4,-1
268 396 m 1,8,-1
 268 493 l 1,9,-1
 365 493 l 1,10,-1
 365 396 l 1,11,-1
 268 396 l 1,8,-1
396 396 m 1,12,-1
 396 493 l 1,13,-1
 493 493 l 1,14,-1
 493 396 l 1,15,-1
 396 396 l 1,12,-1
524 396 m 1,16,-1
 524 493 l 1,17,-1
 621 493 l 1,18,-1
 621 396 l 1,19,-1
 524 396 l 1,16,-1
EndSplineSet
Validated: 1
EndChar

StartChar: period
Encoding: 46 46 17
Width: 768
Flags: W
LayerCount: 2
Fore
SplineSet
140 12 m 1,0,-1
 140 109 l 1,1,-1
 237 109 l 1,2,-1
 237 12 l 1,3,-1
 140 12 l 1,0,-1
268 12 m 1,4,-1
 268 109 l 1,5,-1
 365 109 l 1,6,-1
 365 12 l 1,7,-1
 268 12 l 1,4,-1
140 140 m 1,8,-1
 140 237 l 1,9,-1
 237 237 l 1,10,-1
 237 140 l 1,11,-1
 140 140 l 1,8,-1
268 140 m 1,12,-1
 268 237 l 1,13,-1
 365 237 l 1,14,-1
 365 140 l 1,15,-1
 268 140 l 1,12,-1
EndSplineSet
Validated: 1
EndChar

StartChar: slash
Encoding: 47 47 18
Width: 767
Flags: W
LayerCount: 2
Fore
SplineSet
12 140 m 1,0,-1
 12 237 l 1,1,-1
 109 237 l 1,2,-1
 109 140 l 1,3,-1
 12 140 l 1,0,-1
140 268 m 1,4,-1
 140 365 l 1,5,-1
 237 365 l 1,6,-1
 237 268 l 1,7,-1
 140 268 l 1,4,-1
268 396 m 1,8,-1
 268 493 l 1,9,-1
 365 493 l 1,10,-1
 365 396 l 1,11,-1
 268 396 l 1,8,-1
396 524 m 1,12,-1
 396 621 l 1,13,-1
 493 621 l 1,14,-1
 493 524 l 1,15,-1
 396 524 l 1,12,-1
524 652 m 1,16,-1
 524 749 l 1,17,-1
 621 749 l 1,18,-1
 621 652 l 1,19,-1
 524 652 l 1,16,-1
EndSplineSet
Validated: 1
EndChar

StartChar: zero
Encoding: 48 48 19
Width: 767
Flags: W
LayerCount: 2
Fore
SplineSet
140 12 m 1,0,-1
 140 109 l 1,1,-1
 237 109 l 1,2,-1
 237 12 l 1,3,-1
 140 12 l 1,0,-1
268 12 m 1,4,-1
 268 109 l 1,5,-1
 365 109 l 1,6,-1
 365 12 l 1,7,-1
 268 12 l 1,4,-1
396 12 m 1,8,-1
 396 109 l 1,9,-1
 493 109 l 1,10,-1
 493 12 l 1,11,-1
 396 12 l 1,8,-1
12 140 m 1,12,-1
 12 237 l 1,13,-1
 109 237 l 1,14,-1
 109 140 l 1,15,-1
 12 140 l 1,12,-1
524 140 m 1,16,-1
 524 237 l 1,17,-1
 621 237 l 1,18,-1
 621 140 l 1,19,-1
 524 140 l 1,16,-1
12 268 m 1,20,-1
 12 365 l 1,21,-1
 109 365 l 1,22,-1
 109 268 l 1,23,-1
 12 268 l 1,20,-1
140 268 m 1,24,-1
 140 365 l 1,25,-1
 237 365 l 1,26,-1
 237 268 l 1,27,-1
 140 268 l 1,24,-1
524 268 m 1,28,-1
 524 365 l 1,29,-1
 621 365 l 1,30,-1
 621 268 l 1,31,-1
 524 268 l 1,28,-1
12 396 m 1,32,-1
 12 493 l 1,33,-1
 109 493 l 1,34,-1
 109 396 l 1,35,-1
 12 396 l 1,32,-1
268 396 m 1,36,-1
 268 493 l 1,37,-1
 365 493 l 1,38,-1
 365 396 l 1,39,-1
 268 396 l 1,36,-1
524 396 m 1,40,-1
 524 493 l 1,41,-1
 621 493 l 1,42,-1
 621 396 l 1,43,-1
 524 396 l 1,40,-1
12 524 m 1,44,-1
 12 621 l 1,45,-1
 109 621 l 1,46,-1
 109 524 l 1,47,-1
 12 524 l 1,44,-1
396 524 m 1,48,-1
 396 621 l 1,49,-1
 493 621 l 1,50,-1
 493 524 l 1,51,-1
 396 524 l 1,48,-1
524 524 m 1,52,-1
 524 621 l 1,53,-1
 621 621 l 1,54,-1
 621 524 l 1,55,-1
 524 524 l 1,52,-1
12 652 m 1,56,-1
 12 749 l 1,57,-1
 109 749 l 1,58,-1
 109 652 l 1,59,-1
 12 652 l 1,56,-1
524 652 m 1,60,-1
 524 749 l 1,61,-1
 621 749 l 1,62,-1
 621 652 l 1,63,-1
 524 652 l 1,60,-1
140 780 m 1,64,-1
 140 877 l 1,65,-1
 237 877 l 1,66,-1
 237 780 l 1,67,-1
 140 780 l 1,64,-1
268 780 m 1,68,-1
 268 877 l 1,69,-1
 365 877 l 1,70,-1
 365 780 l 1,71,-1
 268 780 l 1,68,-1
396 780 m 1,72,-1
 396 877 l 1,73,-1
 493 877 l 1,74,-1
 493 780 l 1,75,-1
 396 780 l 1,72,-1
EndSplineSet
Validated: 1
EndChar

StartChar: one
Encoding: 49 49 20
Width: 768
Flags: W
LayerCount: 2
Fore
SplineSet
140 12 m 1,0,-1
 140 109 l 1,1,-1
 237 109 l 1,2,-1
 237 12 l 1,3,-1
 140 12 l 1,0,-1
268 12 m 1,4,-1
 268 109 l 1,5,-1
 365 109 l 1,6,-1
 365 12 l 1,7,-1
 268 12 l 1,4,-1
396 12 m 1,8,-1
 396 109 l 1,9,-1
 493 109 l 1,10,-1
 493 12 l 1,11,-1
 396 12 l 1,8,-1
268 140 m 1,12,-1
 268 237 l 1,13,-1
 365 237 l 1,14,-1
 365 140 l 1,15,-1
 268 140 l 1,12,-1
268 268 m 1,16,-1
 268 365 l 1,17,-1
 365 365 l 1,18,-1
 365 268 l 1,19,-1
 268 268 l 1,16,-1
268 396 m 1,20,-1
 268 493 l 1,21,-1
 365 493 l 1,22,-1
 365 396 l 1,23,-1
 268 396 l 1,20,-1
268 524 m 1,24,-1
 268 621 l 1,25,-1
 365 621 l 1,26,-1
 365 524 l 1,27,-1
 268 524 l 1,24,-1
140 652 m 1,28,-1
 140 749 l 1,29,-1
 237 749 l 1,30,-1
 237 652 l 1,31,-1
 140 652 l 1,28,-1
268 652 m 1,32,-1
 268 749 l 1,33,-1
 365 749 l 1,34,-1
 365 652 l 1,35,-1
 268 652 l 1,32,-1
268 780 m 1,36,-1
 268 877 l 1,37,-1
 365 877 l 1,38,-1
 365 780 l 1,39,-1
 268 780 l 1,36,-1
EndSplineSet
Validated: 1
EndChar

StartChar: two
Encoding: 50 50 21
Width: 767
Flags: W
LayerCount: 2
Fore
SplineSet
12 12 m 1,0,-1
 12 109 l 1,1,-1
 109 109 l 1,2,-1
 109 12 l 1,3,-1
 12 12 l 1,0,-1
140 12 m 1,4,-1
 140 109 l 1,5,-1
 237 109 l 1,6,-1
 237 12 l 1,7,-1
 140 12 l 1,4,-1
268 12 m 1,8,-1
 268 109 l 1,9,-1
 365 109 l 1,10,-1
 365 12 l 1,11,-1
 268 12 l 1,8,-1
396 12 m 1,12,-1
 396 109 l 1,13,-1
 493 109 l 1,14,-1
 493 12 l 1,15,-1
 396 12 l 1,12,-1
524 12 m 1,16,-1
 524 109 l 1,17,-1
 621 109 l 1,18,-1
 621 12 l 1,19,-1
 524 12 l 1,16,-1
140 140 m 1,20,-1
 140 237 l 1,21,-1
 237 237 l 1,22,-1
 237 140 l 1,23,-1
 140 140 l 1,20,-1
268 268 m 1,24,-1
 268 365 l 1,25,-1
 365 365 l 1,26,-1
 365 268 l 1,27,-1
 268 268 l 1,24,-1
396 396 m 1,28,-1
 396 493 l 1,29,-1
 493 493 l 1,30,-1
 493 396 l 1,31,-1
 396 396 l 1,28,-1
524 524 m 1,32,-1
 524 621 l 1,33,-1
 621 621 l 1,34,-1
 621 524 l 1,35,-1
 524 524 l 1,32,-1
12 652 m 1,36,-1
 12 749 l 1,37,-1
 109 749 l 1,38,-1
 109 652 l 1,39,-1
 12 652 l 1,36,-1
524 652 m 1,40,-1
 524 749 l 1,41,-1
 621 749 l 1,42,-1
 621 652 l 1,43,-1
 524 652 l 1,40,-1
140 780 m 1,44,-1
 140 877 l 1,45,-1
 237 877 l 1,46,-1
 237 780 l 1,47,-1
 140 780 l 1,44,-1
268 780 m 1,48,-1
 268 877 l 1,49,-1
 365 877 l 1,50,-1
 365 780 l 1,51,-1
 268 780 l 1,48,-1
396 780 m 1,52,-1
 396 877 l 1,53,-1
 493 877 l 1,54,-1
 493 780 l 1,55,-1
 396 780 l 1,52,-1
EndSplineSet
Validated: 1
EndChar

StartChar: three
Encoding: 51 51 22
Width: 767
Flags: W
LayerCount: 2
Fore
SplineSet
140 12 m 1,0,-1
 140 109 l 1,1,-1
 237 109 l 1,2,-1
 237 12 l 1,3,-1
 140 12 l 1,0,-1
268 12 m 1,4,-1
 268 109 l 1,5,-1
 365 109 l 1,6,-1
 365 12 l 1,7,-1
 268 12 l 1,4,-1
396 12 m 1,8,-1
 396 109 l 1,9,-1
 493 109 l 1,10,-1
 493 12 l 1,11,-1
 396 12 l 1,8,-1
12 140 m 1,12,-1
 12 237 l 1,13,-1
 109 237 l 1,14,-1
 109 140 l 1,15,-1
 12 140 l 1,12,-1
524 140 m 1,16,-1
 524 237 l 1,17,-1
 621 237 l 1,18,-1
 621 140 l 1,19,-1
 524 140 l 1,16,-1
524 268 m 1,20,-1
 524 365 l 1,21,-1
 621 365 l 1,22,-1
 621 268 l 1,23,-1
 524 268 l 1,20,-1
396 396 m 1,24,-1
 396 493 l 1,25,-1
 493 493 l 1,26,-1
 493 396 l 1,27,-1
 396 396 l 1,24,-1
268 524 m 1,28,-1
 268 621 l 1,29,-1
 365 621 l 1,30,-1
 365 524 l 1,31,-1
 268 524 l 1,28,-1
396 652 m 1,32,-1
 396 749 l 1,33,-1
 493 749 l 1,34,-1
 493 652 l 1,35,-1
 396 652 l 1,32,-1
12 780 m 1,36,-1
 12 877 l 1,37,-1
 109 877 l 1,38,-1
 109 780 l 1,39,-1
 12 780 l 1,36,-1
140 780 m 1,40,-1
 140 877 l 1,41,-1
 237 877 l 1,42,-1
 237 780 l 1,43,-1
 140 780 l 1,40,-1
268 780 m 1,44,-1
 268 877 l 1,45,-1
 365 877 l 1,46,-1
 365 780 l 1,47,-1
 268 780 l 1,44,-1
396 780 m 1,48,-1
 396 877 l 1,49,-1
 493 877 l 1,50,-1
 493 780 l 1,51,-1
 396 780 l 1,48,-1
524 780 m 1,52,-1
 524 877 l 1,53,-1
 621 877 l 1,54,-1
 621 780 l 1,55,-1
 524 780 l 1,52,-1
EndSplineSet
Validated: 1
EndChar

StartChar: four
Encoding: 52 52 23
Width: 767
Flags: W
LayerCount: 2
Fore
SplineSet
396 12 m 1,0,-1
 396 109 l 1,1,-1
 493 109 l 1,2,-1
 493 12 l 1,3,-1
 396 12 l 1,0,-1
396 140 m 1,4,-1
 396 237 l 1,5,-1
 493 237 l 1,6,-1
 493 140 l 1,7,-1
 396 140 l 1,4,-1
12 268 m 1,8,-1
 12 365 l 1,9,-1
 109 365 l 1,10,-1
 109 268 l 1,11,-1
 12 268 l 1,8,-1
140 268 m 1,12,-1
 140 365 l 1,13,-1
 237 365 l 1,14,-1
 237 268 l 1,15,-1
 140 268 l 1,12,-1
268 268 m 1,16,-1
 268 365 l 1,17,-1
 365 365 l 1,18,-1
 365 268 l 1,19,-1
 268 268 l 1,16,-1
396 268 m 1,20,-1
 396 365 l 1,21,-1
 493 365 l 1,22,-1
 493 268 l 1,23,-1
 396 268 l 1,20,-1
524 268 m 1,24,-1
 524 365 l 1,25,-1
 621 365 l 1,26,-1
 621 268 l 1,27,-1
 524 268 l 1,24,-1
12 396 m 1,28,-1
 12 493 l 1,29,-1
 109 493 l 1,30,-1
 109 396 l 1,31,-1
 12 396 l 1,28,-1
396 396 m 1,32,-1
 396 493 l 1,33,-1
 493 493 l 1,34,-1
 493 396 l 1,35,-1
 396 396 l 1,32,-1
140 524 m 1,36,-1
 140 621 l 1,37,-1
 237 621 l 1,38,-1
 237 524 l 1,39,-1
 140 524 l 1,36,-1
396 524 m 1,40,-1
 396 621 l 1,41,-1
 493 621 l 1,42,-1
 493 524 l 1,43,-1
 396 524 l 1,40,-1
268 652 m 1,44,-1
 268 749 l 1,45,-1
 365 749 l 1,46,-1
 365 652 l 1,47,-1
 268 652 l 1,44,-1
396 652 m 1,48,-1
 396 749 l 1,49,-1
 493 749 l 1,50,-1
 493 652 l 1,51,-1
 396 652 l 1,48,-1
396 780 m 1,52,-1
 396 877 l 1,53,-1
 493 877 l 1,54,-1
 493 780 l 1,55,-1
 396 780 l 1,52,-1
EndSplineSet
Validated: 1
EndChar

StartChar: five
Encoding: 53 53 24
Width: 767
Flags: W
LayerCount: 2
Fore
SplineSet
140 12 m 1,0,-1
 140 109 l 1,1,-1
 237 109 l 1,2,-1
 237 12 l 1,3,-1
 140 12 l 1,0,-1
268 12 m 1,4,-1
 268 109 l 1,5,-1
 365 109 l 1,6,-1
 365 12 l 1,7,-1
 268 12 l 1,4,-1
396 12 m 1,8,-1
 396 109 l 1,9,-1
 493 109 l 1,10,-1
 493 12 l 1,11,-1
 396 12 l 1,8,-1
12 140 m 1,12,-1
 12 237 l 1,13,-1
 109 237 l 1,14,-1
 109 140 l 1,15,-1
 12 140 l 1,12,-1
524 140 m 1,16,-1
 524 237 l 1,17,-1
 621 237 l 1,18,-1
 621 140 l 1,19,-1
 524 140 l 1,16,-1
524 268 m 1,20,-1
 524 365 l 1,21,-1
 621 365 l 1,22,-1
 621 268 l 1,23,-1
 524 268 l 1,20,-1
524 396 m 1,24,-1
 524 493 l 1,25,-1
 621 493 l 1,26,-1
 621 396 l 1,27,-1
 524 396 l 1,24,-1
12 524 m 1,28,-1
 12 621 l 1,29,-1
 109 621 l 1,30,-1
 109 524 l 1,31,-1
 12 524 l 1,28,-1
140 524 m 1,32,-1
 140 621 l 1,33,-1
 237 621 l 1,34,-1
 237 524 l 1,35,-1
 140 524 l 1,32,-1
268 524 m 1,36,-1
 268 621 l 1,37,-1
 365 621 l 1,38,-1
 365 524 l 1,39,-1
 268 524 l 1,36,-1
396 524 m 1,40,-1
 396 621 l 1,41,-1
 493 621 l 1,42,-1
 493 524 l 1,43,-1
 396 524 l 1,40,-1
12 652 m 1,44,-1
 12 749 l 1,45,-1
 109 749 l 1,46,-1
 109 652 l 1,47,-1
 12 652 l 1,44,-1
12 780 m 1,48,-1
 12 877 l 1,49,-1
 109 877 l 1,50,-1
 109 780 l 1,51,-1
 12 780 l 1,48,-1
140 780 m 1,52,-1
 140 877 l 1,53,-1
 237 877 l 1,54,-1
 237 780 l 1,55,-1
 140 780 l 1,52,-1
268 780 m 1,56,-1
 268 877 l 1,57,-1
 365 877 l 1,58,-1
 365 780 l 1,59,-1
 268 780 l 1,56,-1
396 780 m 1,60,-1
 396 877 l 1,61,-1
 493 877 l 1,62,-1
 493 780 l 1,63,-1
 396 780 l 1,60,-1
524 780 m 1,64,-1
 524 877 l 1,65,-1
 621 877 l 1,66,-1
 621 780 l 1,67,-1
 524 780 l 1,64,-1
EndSplineSet
Validated: 1
EndChar

StartChar: six
Encoding: 54 54 25
Width: 767
Flags: W
LayerCount: 2
Fore
SplineSet
140 12 m 1,0,-1
 140 109 l 1,1,-1
 237 109 l 1,2,-1
 237 12 l 1,3,-1
 140 12 l 1,0,-1
268 12 m 1,4,-1
 268 109 l 1,5,-1
 365 109 l 1,6,-1
 365 12 l 1,7,-1
 268 12 l 1,4,-1
396 12 m 1,8,-1
 396 109 l 1,9,-1
 493 109 l 1,10,-1
 493 12 l 1,11,-1
 396 12 l 1,8,-1
12 140 m 1,12,-1
 12 237 l 1,13,-1
 109 237 l 1,14,-1
 109 140 l 1,15,-1
 12 140 l 1,12,-1
524 140 m 1,16,-1
 524 237 l 1,17,-1
 621 237 l 1,18,-1
 621 140 l 1,19,-1
 524 140 l 1,16,-1
12 268 m 1,20,-1
 12 365 l 1,21,-1
 109 365 l 1,22,-1
 109 268 l 1,23,-1
 12 268 l 1,20,-1
524 268 m 1,24,-1
 524 365 l 1,25,-1
 621 365 l 1,26,-1
 621 268 l 1,27,-1
 524 268 l 1,24,-1
12 396 m 1,28,-1
 12 493 l 1,29,-1
 109 493 l 1,30,-1
 109 396 l 1,31,-1
 12 396 l 1,28,-1
140 396 m 1,32,-1
 140 493 l 1,33,-1
 237 493 l 1,34,-1
 237 396 l 1,35,-1
 140 396 l 1,32,-1
268 396 m 1,36,-1
 268 493 l 1,37,-1
 365 493 l 1,38,-1
 365 396 l 1,39,-1
 268 396 l 1,36,-1
396 396 m 1,40,-1
 396 493 l 1,41,-1
 493 493 l 1,42,-1
 493 396 l 1,43,-1
 396 396 l 1,40,-1
12 524 m 1,44,-1
 12 621 l 1,45,-1
 109 621 l 1,46,-1
 109 524 l 1,47,-1
 12 524 l 1,44,-1
140 652 m 1,48,-1
 140 749 l 1,49,-1
 237 749 l 1,50,-1
 237 652 l 1,51,-1
 140 652 l 1,48,-1
268 780 m 1,52,-1
 268 877 l 1,53,-1
 365 877 l 1,54,-1
 365 780 l 1,55,-1
 268 780 l 1,52,-1
396 780 m 1,56,-1
 396 877 l 1,57,-1
 493 877 l 1,58,-1
 493 780 l 1,59,-1
 396 780 l 1,56,-1
EndSplineSet
Validated: 1
EndChar

StartChar: seven
Encoding: 55 55 26
Width: 767
Flags: W
LayerCount: 2
Fore
SplineSet
140 12 m 1,0,-1
 140 109 l 1,1,-1
 237 109 l 1,2,-1
 237 12 l 1,3,-1
 140 12 l 1,0,-1
140 140 m 1,4,-1
 140 237 l 1,5,-1
 237 237 l 1,6,-1
 237 140 l 1,7,-1
 140 140 l 1,4,-1
140 268 m 1,8,-1
 140 365 l 1,9,-1
 237 365 l 1,10,-1
 237 268 l 1,11,-1
 140 268 l 1,8,-1
268 396 m 1,12,-1
 268 493 l 1,13,-1
 365 493 l 1,14,-1
 365 396 l 1,15,-1
 268 396 l 1,12,-1
396 524 m 1,16,-1
 396 621 l 1,17,-1
 493 621 l 1,18,-1
 493 524 l 1,19,-1
 396 524 l 1,16,-1
12 652 m 1,20,-1
 12 749 l 1,21,-1
 109 749 l 1,22,-1
 109 652 l 1,23,-1
 12 652 l 1,20,-1
524 652 m 1,24,-1
 524 749 l 1,25,-1
 621 749 l 1,26,-1
 621 652 l 1,27,-1
 524 652 l 1,24,-1
12 780 m 1,28,-1
 12 877 l 1,29,-1
 109 877 l 1,30,-1
 109 780 l 1,31,-1
 12 780 l 1,28,-1
140 780 m 1,32,-1
 140 877 l 1,33,-1
 237 877 l 1,34,-1
 237 780 l 1,35,-1
 140 780 l 1,32,-1
268 780 m 1,36,-1
 268 877 l 1,37,-1
 365 877 l 1,38,-1
 365 780 l 1,39,-1
 268 780 l 1,36,-1
396 780 m 1,40,-1
 396 877 l 1,41,-1
 493 877 l 1,42,-1
 493 780 l 1,43,-1
 396 780 l 1,40,-1
524 780 m 1,44,-1
 524 877 l 1,45,-1
 621 877 l 1,46,-1
 621 780 l 1,47,-1
 524 780 l 1,44,-1
EndSplineSet
Validated: 1
EndChar

StartChar: eight
Encoding: 56 56 27
Width: 767
Flags: W
LayerCount: 2
Fore
SplineSet
140 12 m 1,0,-1
 140 109 l 1,1,-1
 237 109 l 1,2,-1
 237 12 l 1,3,-1
 140 12 l 1,0,-1
268 12 m 1,4,-1
 268 109 l 1,5,-1
 365 109 l 1,6,-1
 365 12 l 1,7,-1
 268 12 l 1,4,-1
396 12 m 1,8,-1
 396 109 l 1,9,-1
 493 109 l 1,10,-1
 493 12 l 1,11,-1
 396 12 l 1,8,-1
12 140 m 1,12,-1
 12 237 l 1,13,-1
 109 237 l 1,14,-1
 109 140 l 1,15,-1
 12 140 l 1,12,-1
524 140 m 1,16,-1
 524 237 l 1,17,-1
 621 237 l 1,18,-1
 621 140 l 1,19,-1
 524 140 l 1,16,-1
12 268 m 1,20,-1
 12 365 l 1,21,-1
 109 365 l 1,22,-1
 109 268 l 1,23,-1
 12 268 l 1,20,-1
524 268 m 1,24,-1
 524 365 l 1,25,-1
 621 365 l 1,26,-1
 621 268 l 1,27,-1
 524 268 l 1,24,-1
140 396 m 1,28,-1
 140 493 l 1,29,-1
 237 493 l 1,30,-1
 237 396 l 1,31,-1
 140 396 l 1,28,-1
268 396 m 1,32,-1
 268 493 l 1,33,-1
 365 493 l 1,34,-1
 365 396 l 1,35,-1
 268 396 l 1,32,-1
396 396 m 1,36,-1
 396 493 l 1,37,-1
 493 493 l 1,38,-1
 493 396 l 1,39,-1
 396 396 l 1,36,-1
12 524 m 1,40,-1
 12 621 l 1,41,-1
 109 621 l 1,42,-1
 109 524 l 1,43,-1
 12 524 l 1,40,-1
524 524 m 1,44,-1
 524 621 l 1,45,-1
 621 621 l 1,46,-1
 621 524 l 1,47,-1
 524 524 l 1,44,-1
12 652 m 1,48,-1
 12 749 l 1,49,-1
 109 749 l 1,50,-1
 109 652 l 1,51,-1
 12 652 l 1,48,-1
524 652 m 1,52,-1
 524 749 l 1,53,-1
 621 749 l 1,54,-1
 621 652 l 1,55,-1
 524 652 l 1,52,-1
140 780 m 1,56,-1
 140 877 l 1,57,-1
 237 877 l 1,58,-1
 237 780 l 1,59,-1
 140 780 l 1,56,-1
268 780 m 1,60,-1
 268 877 l 1,61,-1
 365 877 l 1,62,-1
 365 780 l 1,63,-1
 268 780 l 1,60,-1
396 780 m 1,64,-1
 396 877 l 1,65,-1
 493 877 l 1,66,-1
 493 780 l 1,67,-1
 396 780 l 1,64,-1
EndSplineSet
Validated: 1
EndChar

StartChar: nine
Encoding: 57 57 28
Width: 767
Flags: W
LayerCount: 2
Fore
SplineSet
140 12 m 1,0,-1
 140 109 l 1,1,-1
 237 109 l 1,2,-1
 237 12 l 1,3,-1
 140 12 l 1,0,-1
268 12 m 1,4,-1
 268 109 l 1,5,-1
 365 109 l 1,6,-1
 365 12 l 1,7,-1
 268 12 l 1,4,-1
396 140 m 1,8,-1
 396 237 l 1,9,-1
 493 237 l 1,10,-1
 493 140 l 1,11,-1
 396 140 l 1,8,-1
524 268 m 1,12,-1
 524 365 l 1,13,-1
 621 365 l 1,14,-1
 621 268 l 1,15,-1
 524 268 l 1,12,-1
140 396 m 1,16,-1
 140 493 l 1,17,-1
 237 493 l 1,18,-1
 237 396 l 1,19,-1
 140 396 l 1,16,-1
268 396 m 1,20,-1
 268 493 l 1,21,-1
 365 493 l 1,22,-1
 365 396 l 1,23,-1
 268 396 l 1,20,-1
396 396 m 1,24,-1
 396 493 l 1,25,-1
 493 493 l 1,26,-1
 493 396 l 1,27,-1
 396 396 l 1,24,-1
524 396 m 1,28,-1
 524 493 l 1,29,-1
 621 493 l 1,30,-1
 621 396 l 1,31,-1
 524 396 l 1,28,-1
12 524 m 1,32,-1
 12 621 l 1,33,-1
 109 621 l 1,34,-1
 109 524 l 1,35,-1
 12 524 l 1,32,-1
524 524 m 1,36,-1
 524 621 l 1,37,-1
 621 621 l 1,38,-1
 621 524 l 1,39,-1
 524 524 l 1,36,-1
12 652 m 1,40,-1
 12 749 l 1,41,-1
 109 749 l 1,42,-1
 109 652 l 1,43,-1
 12 652 l 1,40,-1
524 652 m 1,44,-1
 524 749 l 1,45,-1
 621 749 l 1,46,-1
 621 652 l 1,47,-1
 524 652 l 1,44,-1
140 780 m 1,48,-1
 140 877 l 1,49,-1
 237 877 l 1,50,-1
 237 780 l 1,51,-1
 140 780 l 1,48,-1
268 780 m 1,52,-1
 268 877 l 1,53,-1
 365 877 l 1,54,-1
 365 780 l 1,55,-1
 268 780 l 1,52,-1
396 780 m 1,56,-1
 396 877 l 1,57,-1
 493 877 l 1,58,-1
 493 780 l 1,59,-1
 396 780 l 1,56,-1
EndSplineSet
Validated: 1
EndChar

StartChar: colon
Encoding: 58 58 29
Width: 768
Flags: W
LayerCount: 2
Fore
SplineSet
140 140 m 1,0,-1
 140 237 l 1,1,-1
 237 237 l 1,2,-1
 237 140 l 1,3,-1
 140 140 l 1,0,-1
268 140 m 1,4,-1
 268 237 l 1,5,-1
 365 237 l 1,6,-1
 365 140 l 1,7,-1
 268 140 l 1,4,-1
140 268 m 1,8,-1
 140 365 l 1,9,-1
 237 365 l 1,10,-1
 237 268 l 1,11,-1
 140 268 l 1,8,-1
268 268 m 1,12,-1
 268 365 l 1,13,-1
 365 365 l 1,14,-1
 365 268 l 1,15,-1
 268 268 l 1,12,-1
140 524 m 1,16,-1
 140 621 l 1,17,-1
 237 621 l 1,18,-1
 237 524 l 1,19,-1
 140 524 l 1,16,-1
268 524 m 1,20,-1
 268 621 l 1,21,-1
 365 621 l 1,22,-1
 365 524 l 1,23,-1
 268 524 l 1,20,-1
140 652 m 1,24,-1
 140 749 l 1,25,-1
 237 749 l 1,26,-1
 237 652 l 1,27,-1
 140 652 l 1,24,-1
268 652 m 1,28,-1
 268 749 l 1,29,-1
 365 749 l 1,30,-1
 365 652 l 1,31,-1
 268 652 l 1,28,-1
EndSplineSet
Validated: 1
EndChar

StartChar: semicolon
Encoding: 59 59 30
Width: 768
Flags: W
LayerCount: 2
Fore
SplineSet
140 12 m 1,0,-1
 140 109 l 1,1,-1
 237 109 l 1,2,-1
 237 12 l 1,3,-1
 140 12 l 1,0,-1
268 140 m 1,4,-1
 268 237 l 1,5,-1
 365 237 l 1,6,-1
 365 140 l 1,7,-1
 268 140 l 1,4,-1
140 268 m 1,8,-1
 140 365 l 1,9,-1
 237 365 l 1,10,-1
 237 268 l 1,11,-1
 140 268 l 1,8,-1
268 268 m 1,12,-1
 268 365 l 1,13,-1
 365 365 l 1,14,-1
 365 268 l 1,15,-1
 268 268 l 1,12,-1
140 524 m 1,16,-1
 140 621 l 1,17,-1
 237 621 l 1,18,-1
 237 524 l 1,19,-1
 140 524 l 1,16,-1
268 524 m 1,20,-1
 268 621 l 1,21,-1
 365 621 l 1,22,-1
 365 524 l 1,23,-1
 268 524 l 1,20,-1
140 652 m 1,24,-1
 140 749 l 1,25,-1
 237 749 l 1,26,-1
 237 652 l 1,27,-1
 140 652 l 1,24,-1
268 652 m 1,28,-1
 268 749 l 1,29,-1
 365 749 l 1,30,-1
 365 652 l 1,31,-1
 268 652 l 1,28,-1
EndSplineSet
Validated: 1
EndChar

StartChar: less
Encoding: 60 60 31
Width: 767
Flags: W
LayerCount: 2
Fore
SplineSet
396 12 m 1,0,-1
 396 109 l 1,1,-1
 493 109 l 1,2,-1
 493 12 l 1,3,-1
 396 12 l 1,0,-1
268 140 m 1,4,-1
 268 237 l 1,5,-1
 365 237 l 1,6,-1
 365 140 l 1,7,-1
 268 140 l 1,4,-1
140 268 m 1,8,-1
 140 365 l 1,9,-1
 237 365 l 1,10,-1
 237 268 l 1,11,-1
 140 268 l 1,8,-1
12 396 m 1,12,-1
 12 493 l 1,13,-1
 109 493 l 1,14,-1
 109 396 l 1,15,-1
 12 396 l 1,12,-1
140 524 m 1,16,-1
 140 621 l 1,17,-1
 237 621 l 1,18,-1
 237 524 l 1,19,-1
 140 524 l 1,16,-1
268 652 m 1,20,-1
 268 749 l 1,21,-1
 365 749 l 1,22,-1
 365 652 l 1,23,-1
 268 652 l 1,20,-1
396 780 m 1,24,-1
 396 877 l 1,25,-1
 493 877 l 1,26,-1
 493 780 l 1,27,-1
 396 780 l 1,24,-1
EndSplineSet
Validated: 1
EndChar

StartChar: equal
Encoding: 61 61 32
Width: 767
Flags: W
LayerCount: 2
Fore
SplineSet
12 268 m 1,0,-1
 12 365 l 1,1,-1
 109 365 l 1,2,-1
 109 268 l 1,3,-1
 12 268 l 1,0,-1
140 268 m 1,4,-1
 140 365 l 1,5,-1
 237 365 l 1,6,-1
 237 268 l 1,7,-1
 140 268 l 1,4,-1
268 268 m 1,8,-1
 268 365 l 1,9,-1
 365 365 l 1,10,-1
 365 268 l 1,11,-1
 268 268 l 1,8,-1
396 268 m 1,12,-1
 396 365 l 1,13,-1
 493 365 l 1,14,-1
 493 268 l 1,15,-1
 396 268 l 1,12,-1
524 268 m 1,16,-1
 524 365 l 1,17,-1
 621 365 l 1,18,-1
 621 268 l 1,19,-1
 524 268 l 1,16,-1
12 524 m 1,20,-1
 12 621 l 1,21,-1
 109 621 l 1,22,-1
 109 524 l 1,23,-1
 12 524 l 1,20,-1
140 524 m 1,24,-1
 140 621 l 1,25,-1
 237 621 l 1,26,-1
 237 524 l 1,27,-1
 140 524 l 1,24,-1
268 524 m 1,28,-1
 268 621 l 1,29,-1
 365 621 l 1,30,-1
 365 524 l 1,31,-1
 268 524 l 1,28,-1
396 524 m 1,32,-1
 396 621 l 1,33,-1
 493 621 l 1,34,-1
 493 524 l 1,35,-1
 396 524 l 1,32,-1
524 524 m 1,36,-1
 524 621 l 1,37,-1
 621 621 l 1,38,-1
 621 524 l 1,39,-1
 524 524 l 1,36,-1
EndSplineSet
Validated: 1
EndChar

StartChar: greater
Encoding: 62 62 33
Width: 767
Flags: W
LayerCount: 2
Fore
SplineSet
268 149 m 1,0,-1
 268 246 l 1,1,-1
 365 246 l 1,2,-1
 365 149 l 1,3,-1
 268 149 l 1,0,-1
268 640 m 5,4,-1
 268 737 l 5,5,-1
 365 737 l 5,6,-1
 365 640 l 5,7,-1
 268 640 l 5,4,-1
268 274 m 1,8,-1
 268 371 l 1,9,-1
 365 371 l 1,10,-1
 365 274 l 1,11,-1
 268 274 l 1,8,-1
268 520 m 1,12,-1
 268 617 l 1,13,-1
 365 617 l 1,14,-1
 365 520 l 1,15,-1
 268 520 l 1,12,-1
396 274 m 1,16,-1
 396 371 l 1,17,-1
 493 371 l 1,18,-1
 493 274 l 1,19,-1
 396 274 l 1,16,-1
396 520 m 1,20,-1
 396 617 l 1,21,-1
 493 617 l 1,22,-1
 493 520 l 1,23,-1
 396 520 l 1,20,-1
12 396 m 1,24,-1
 12 493 l 1,25,-1
 109 493 l 1,26,-1
 109 396 l 1,27,-1
 12 396 l 1,24,-1
140 396 m 1,28,-1
 140 493 l 1,29,-1
 237 493 l 1,30,-1
 237 396 l 1,31,-1
 140 396 l 1,28,-1
268 396 m 1,32,-1
 268 493 l 1,33,-1
 365 493 l 1,34,-1
 365 396 l 1,35,-1
 268 396 l 1,32,-1
396 396 m 1,36,-1
 396 493 l 1,37,-1
 493 493 l 1,38,-1
 493 396 l 1,39,-1
 396 396 l 1,36,-1
524 396 m 1,40,-1
 524 493 l 1,41,-1
 621 493 l 1,42,-1
 621 396 l 1,43,-1
 524 396 l 1,40,-1
EndSplineSet
Validated: 1
EndChar

StartChar: question
Encoding: 63 63 34
Width: 767
Flags: W
LayerCount: 2
Fore
SplineSet
268 12 m 1,0,-1
 268 109 l 1,1,-1
 365 109 l 1,2,-1
 365 12 l 1,3,-1
 268 12 l 1,0,-1
268 268 m 1,4,-1
 268 365 l 1,5,-1
 365 365 l 1,6,-1
 365 268 l 1,7,-1
 268 268 l 1,4,-1
396 396 m 1,8,-1
 396 493 l 1,9,-1
 493 493 l 1,10,-1
 493 396 l 1,11,-1
 396 396 l 1,8,-1
524 524 m 1,12,-1
 524 621 l 1,13,-1
 621 621 l 1,14,-1
 621 524 l 1,15,-1
 524 524 l 1,12,-1
12 652 m 1,16,-1
 12 749 l 1,17,-1
 109 749 l 1,18,-1
 109 652 l 1,19,-1
 12 652 l 1,16,-1
524 652 m 1,20,-1
 524 749 l 1,21,-1
 621 749 l 1,22,-1
 621 652 l 1,23,-1
 524 652 l 1,20,-1
140 780 m 1,24,-1
 140 877 l 1,25,-1
 237 877 l 1,26,-1
 237 780 l 1,27,-1
 140 780 l 1,24,-1
268 780 m 1,28,-1
 268 877 l 1,29,-1
 365 877 l 1,30,-1
 365 780 l 1,31,-1
 268 780 l 1,28,-1
396 780 m 1,32,-1
 396 877 l 1,33,-1
 493 877 l 1,34,-1
 493 780 l 1,35,-1
 396 780 l 1,32,-1
EndSplineSet
Validated: 1
EndChar

StartChar: at
Encoding: 64 64 35
Width: 767
Flags: W
LayerCount: 2
Fore
SplineSet
140 12 m 1,0,-1
 140 109 l 1,1,-1
 237 109 l 1,2,-1
 237 12 l 1,3,-1
 140 12 l 1,0,-1
268 12 m 1,4,-1
 268 109 l 1,5,-1
 365 109 l 1,6,-1
 365 12 l 1,7,-1
 268 12 l 1,4,-1
396 12 m 1,8,-1
 396 109 l 1,9,-1
 493 109 l 1,10,-1
 493 12 l 1,11,-1
 396 12 l 1,8,-1
12 140 m 1,12,-1
 12 237 l 1,13,-1
 109 237 l 1,14,-1
 109 140 l 1,15,-1
 12 140 l 1,12,-1
268 140 m 1,16,-1
 268 237 l 1,17,-1
 365 237 l 1,18,-1
 365 140 l 1,19,-1
 268 140 l 1,16,-1
524 140 m 1,20,-1
 524 237 l 1,21,-1
 621 237 l 1,22,-1
 621 140 l 1,23,-1
 524 140 l 1,20,-1
12 268 m 1,24,-1
 12 365 l 1,25,-1
 109 365 l 1,26,-1
 109 268 l 1,27,-1
 12 268 l 1,24,-1
268 268 m 1,28,-1
 268 365 l 1,29,-1
 365 365 l 1,30,-1
 365 268 l 1,31,-1
 268 268 l 1,28,-1
524 268 m 1,32,-1
 524 365 l 1,33,-1
 621 365 l 1,34,-1
 621 268 l 1,35,-1
 524 268 l 1,32,-1
140 396 m 1,36,-1
 140 493 l 1,37,-1
 237 493 l 1,38,-1
 237 396 l 1,39,-1
 140 396 l 1,36,-1
268 396 m 1,40,-1
 268 493 l 1,41,-1
 365 493 l 1,42,-1
 365 396 l 1,43,-1
 268 396 l 1,40,-1
524 396 m 1,44,-1
 524 493 l 1,45,-1
 621 493 l 1,46,-1
 621 396 l 1,47,-1
 524 396 l 1,44,-1
524 524 m 1,48,-1
 524 621 l 1,49,-1
 621 621 l 1,50,-1
 621 524 l 1,51,-1
 524 524 l 1,48,-1
12 652 m 1,52,-1
 12 749 l 1,53,-1
 109 749 l 1,54,-1
 109 652 l 1,55,-1
 12 652 l 1,52,-1
524 652 m 1,56,-1
 524 749 l 1,57,-1
 621 749 l 1,58,-1
 621 652 l 1,59,-1
 524 652 l 1,56,-1
140 780 m 1,60,-1
 140 877 l 1,61,-1
 237 877 l 1,62,-1
 237 780 l 1,63,-1
 140 780 l 1,60,-1
268 780 m 1,64,-1
 268 877 l 1,65,-1
 365 877 l 1,66,-1
 365 780 l 1,67,-1
 268 780 l 1,64,-1
396 780 m 1,68,-1
 396 877 l 1,69,-1
 493 877 l 1,70,-1
 493 780 l 1,71,-1
 396 780 l 1,68,-1
EndSplineSet
Validated: 1
EndChar

StartChar: A
Encoding: 65 65 36
Width: 767
Flags: W
LayerCount: 2
Fore
SplineSet
12 12 m 1,0,-1
 12 109 l 1,1,-1
 109 109 l 1,2,-1
 109 12 l 1,3,-1
 12 12 l 1,0,-1
524 12 m 1,4,-1
 524 109 l 1,5,-1
 621 109 l 1,6,-1
 621 12 l 1,7,-1
 524 12 l 1,4,-1
12 140 m 1,8,-1
 12 237 l 1,9,-1
 109 237 l 1,10,-1
 109 140 l 1,11,-1
 12 140 l 1,8,-1
524 140 m 1,12,-1
 524 237 l 1,13,-1
 621 237 l 1,14,-1
 621 140 l 1,15,-1
 524 140 l 1,12,-1
12 268 m 1,16,-1
 12 365 l 1,17,-1
 109 365 l 1,18,-1
 109 268 l 1,19,-1
 12 268 l 1,16,-1
140 268 m 1,20,-1
 140 365 l 1,21,-1
 237 365 l 1,22,-1
 237 268 l 1,23,-1
 140 268 l 1,20,-1
268 268 m 1,24,-1
 268 365 l 1,25,-1
 365 365 l 1,26,-1
 365 268 l 1,27,-1
 268 268 l 1,24,-1
396 268 m 1,28,-1
 396 365 l 1,29,-1
 493 365 l 1,30,-1
 493 268 l 1,31,-1
 396 268 l 1,28,-1
524 268 m 1,32,-1
 524 365 l 1,33,-1
 621 365 l 1,34,-1
 621 268 l 1,35,-1
 524 268 l 1,32,-1
12 396 m 1,36,-1
 12 493 l 1,37,-1
 109 493 l 1,38,-1
 109 396 l 1,39,-1
 12 396 l 1,36,-1
524 396 m 1,40,-1
 524 493 l 1,41,-1
 621 493 l 1,42,-1
 621 396 l 1,43,-1
 524 396 l 1,40,-1
12 524 m 1,44,-1
 12 621 l 1,45,-1
 109 621 l 1,46,-1
 109 524 l 1,47,-1
 12 524 l 1,44,-1
524 524 m 1,48,-1
 524 621 l 1,49,-1
 621 621 l 1,50,-1
 621 524 l 1,51,-1
 524 524 l 1,48,-1
12 652 m 1,52,-1
 12 749 l 1,53,-1
 109 749 l 1,54,-1
 109 652 l 1,55,-1
 12 652 l 1,52,-1
524 652 m 1,56,-1
 524 749 l 1,57,-1
 621 749 l 1,58,-1
 621 652 l 1,59,-1
 524 652 l 1,56,-1
140 780 m 1,60,-1
 140 877 l 1,61,-1
 237 877 l 1,62,-1
 237 780 l 1,63,-1
 140 780 l 1,60,-1
268 780 m 1,64,-1
 268 877 l 1,65,-1
 365 877 l 1,66,-1
 365 780 l 1,67,-1
 268 780 l 1,64,-1
396 780 m 1,68,-1
 396 877 l 1,69,-1
 493 877 l 1,70,-1
 493 780 l 1,71,-1
 396 780 l 1,68,-1
EndSplineSet
Validated: 1
EndChar

StartChar: B
Encoding: 66 66 37
Width: 767
Flags: W
LayerCount: 2
Fore
SplineSet
12 12 m 1,0,-1
 12 109 l 1,1,-1
 109 109 l 1,2,-1
 109 12 l 1,3,-1
 12 12 l 1,0,-1
140 12 m 1,4,-1
 140 109 l 1,5,-1
 237 109 l 1,6,-1
 237 12 l 1,7,-1
 140 12 l 1,4,-1
268 12 m 1,8,-1
 268 109 l 1,9,-1
 365 109 l 1,10,-1
 365 12 l 1,11,-1
 268 12 l 1,8,-1
396 12 m 1,12,-1
 396 109 l 1,13,-1
 493 109 l 1,14,-1
 493 12 l 1,15,-1
 396 12 l 1,12,-1
12 140 m 1,16,-1
 12 237 l 1,17,-1
 109 237 l 1,18,-1
 109 140 l 1,19,-1
 12 140 l 1,16,-1
524 140 m 1,20,-1
 524 237 l 1,21,-1
 621 237 l 1,22,-1
 621 140 l 1,23,-1
 524 140 l 1,20,-1
12 268 m 1,24,-1
 12 365 l 1,25,-1
 109 365 l 1,26,-1
 109 268 l 1,27,-1
 12 268 l 1,24,-1
524 268 m 1,28,-1
 524 365 l 1,29,-1
 621 365 l 1,30,-1
 621 268 l 1,31,-1
 524 268 l 1,28,-1
12 396 m 1,32,-1
 12 493 l 1,33,-1
 109 493 l 1,34,-1
 109 396 l 1,35,-1
 12 396 l 1,32,-1
140 396 m 1,36,-1
 140 493 l 1,37,-1
 237 493 l 1,38,-1
 237 396 l 1,39,-1
 140 396 l 1,36,-1
268 396 m 1,40,-1
 268 493 l 1,41,-1
 365 493 l 1,42,-1
 365 396 l 1,43,-1
 268 396 l 1,40,-1
396 396 m 1,44,-1
 396 493 l 1,45,-1
 493 493 l 1,46,-1
 493 396 l 1,47,-1
 396 396 l 1,44,-1
12 524 m 1,48,-1
 12 621 l 1,49,-1
 109 621 l 1,50,-1
 109 524 l 1,51,-1
 12 524 l 1,48,-1
524 524 m 1,52,-1
 524 621 l 1,53,-1
 621 621 l 1,54,-1
 621 524 l 1,55,-1
 524 524 l 1,52,-1
12 652 m 1,56,-1
 12 749 l 1,57,-1
 109 749 l 1,58,-1
 109 652 l 1,59,-1
 12 652 l 1,56,-1
524 652 m 1,60,-1
 524 749 l 1,61,-1
 621 749 l 1,62,-1
 621 652 l 1,63,-1
 524 652 l 1,60,-1
12 780 m 1,64,-1
 12 877 l 1,65,-1
 109 877 l 1,66,-1
 109 780 l 1,67,-1
 12 780 l 1,64,-1
140 780 m 1,68,-1
 140 877 l 1,69,-1
 237 877 l 1,70,-1
 237 780 l 1,71,-1
 140 780 l 1,68,-1
268 780 m 1,72,-1
 268 877 l 1,73,-1
 365 877 l 1,74,-1
 365 780 l 1,75,-1
 268 780 l 1,72,-1
396 780 m 1,76,-1
 396 877 l 1,77,-1
 493 877 l 1,78,-1
 493 780 l 1,79,-1
 396 780 l 1,76,-1
EndSplineSet
Validated: 1
EndChar

StartChar: C
Encoding: 67 67 38
Width: 767
Flags: W
LayerCount: 2
Fore
SplineSet
140 12 m 1,0,-1
 140 109 l 1,1,-1
 237 109 l 1,2,-1
 237 12 l 1,3,-1
 140 12 l 1,0,-1
268 12 m 1,4,-1
 268 109 l 1,5,-1
 365 109 l 1,6,-1
 365 12 l 1,7,-1
 268 12 l 1,4,-1
396 12 m 1,8,-1
 396 109 l 1,9,-1
 493 109 l 1,10,-1
 493 12 l 1,11,-1
 396 12 l 1,8,-1
12 140 m 1,12,-1
 12 237 l 1,13,-1
 109 237 l 1,14,-1
 109 140 l 1,15,-1
 12 140 l 1,12,-1
524 140 m 1,16,-1
 524 237 l 1,17,-1
 621 237 l 1,18,-1
 621 140 l 1,19,-1
 524 140 l 1,16,-1
12 268 m 1,20,-1
 12 365 l 1,21,-1
 109 365 l 1,22,-1
 109 268 l 1,23,-1
 12 268 l 1,20,-1
12 396 m 1,24,-1
 12 493 l 1,25,-1
 109 493 l 1,26,-1
 109 396 l 1,27,-1
 12 396 l 1,24,-1
12 524 m 1,28,-1
 12 621 l 1,29,-1
 109 621 l 1,30,-1
 109 524 l 1,31,-1
 12 524 l 1,28,-1
12 652 m 1,32,-1
 12 749 l 1,33,-1
 109 749 l 1,34,-1
 109 652 l 1,35,-1
 12 652 l 1,32,-1
524 652 m 1,36,-1
 524 749 l 1,37,-1
 621 749 l 1,38,-1
 621 652 l 1,39,-1
 524 652 l 1,36,-1
140 780 m 1,40,-1
 140 877 l 1,41,-1
 237 877 l 1,42,-1
 237 780 l 1,43,-1
 140 780 l 1,40,-1
268 780 m 1,44,-1
 268 877 l 1,45,-1
 365 877 l 1,46,-1
 365 780 l 1,47,-1
 268 780 l 1,44,-1
396 780 m 1,48,-1
 396 877 l 1,49,-1
 493 877 l 1,50,-1
 493 780 l 1,51,-1
 396 780 l 1,48,-1
EndSplineSet
Validated: 1
EndChar

StartChar: D
Encoding: 68 68 39
Width: 767
Flags: W
LayerCount: 2
Fore
SplineSet
12 12 m 1,0,-1
 12 109 l 1,1,-1
 109 109 l 1,2,-1
 109 12 l 1,3,-1
 12 12 l 1,0,-1
140 12 m 1,4,-1
 140 109 l 1,5,-1
 237 109 l 1,6,-1
 237 12 l 1,7,-1
 140 12 l 1,4,-1
268 12 m 1,8,-1
 268 109 l 1,9,-1
 365 109 l 1,10,-1
 365 12 l 1,11,-1
 268 12 l 1,8,-1
396 12 m 1,12,-1
 396 109 l 1,13,-1
 493 109 l 1,14,-1
 493 12 l 1,15,-1
 396 12 l 1,12,-1
12 140 m 1,16,-1
 12 237 l 1,17,-1
 109 237 l 1,18,-1
 109 140 l 1,19,-1
 12 140 l 1,16,-1
524 140 m 1,20,-1
 524 237 l 1,21,-1
 621 237 l 1,22,-1
 621 140 l 1,23,-1
 524 140 l 1,20,-1
12 268 m 1,24,-1
 12 365 l 1,25,-1
 109 365 l 1,26,-1
 109 268 l 1,27,-1
 12 268 l 1,24,-1
524 268 m 1,28,-1
 524 365 l 1,29,-1
 621 365 l 1,30,-1
 621 268 l 1,31,-1
 524 268 l 1,28,-1
12 396 m 1,32,-1
 12 493 l 1,33,-1
 109 493 l 1,34,-1
 109 396 l 1,35,-1
 12 396 l 1,32,-1
524 396 m 1,36,-1
 524 493 l 1,37,-1
 621 493 l 1,38,-1
 621 396 l 1,39,-1
 524 396 l 1,36,-1
12 524 m 1,40,-1
 12 621 l 1,41,-1
 109 621 l 1,42,-1
 109 524 l 1,43,-1
 12 524 l 1,40,-1
524 524 m 1,44,-1
 524 621 l 1,45,-1
 621 621 l 1,46,-1
 621 524 l 1,47,-1
 524 524 l 1,44,-1
12 652 m 1,48,-1
 12 749 l 1,49,-1
 109 749 l 1,50,-1
 109 652 l 1,51,-1
 12 652 l 1,48,-1
524 652 m 1,52,-1
 524 749 l 1,53,-1
 621 749 l 1,54,-1
 621 652 l 1,55,-1
 524 652 l 1,52,-1
12 780 m 1,56,-1
 12 877 l 1,57,-1
 109 877 l 1,58,-1
 109 780 l 1,59,-1
 12 780 l 1,56,-1
140 780 m 1,60,-1
 140 877 l 1,61,-1
 237 877 l 1,62,-1
 237 780 l 1,63,-1
 140 780 l 1,60,-1
268 780 m 1,64,-1
 268 877 l 1,65,-1
 365 877 l 1,66,-1
 365 780 l 1,67,-1
 268 780 l 1,64,-1
396 780 m 1,68,-1
 396 877 l 1,69,-1
 493 877 l 1,70,-1
 493 780 l 1,71,-1
 396 780 l 1,68,-1
EndSplineSet
Validated: 1
EndChar

StartChar: E
Encoding: 69 69 40
Width: 767
Flags: W
LayerCount: 2
Fore
SplineSet
12 12 m 1,0,-1
 12 109 l 1,1,-1
 109 109 l 1,2,-1
 109 12 l 1,3,-1
 12 12 l 1,0,-1
140 12 m 1,4,-1
 140 109 l 1,5,-1
 237 109 l 1,6,-1
 237 12 l 1,7,-1
 140 12 l 1,4,-1
268 12 m 1,8,-1
 268 109 l 1,9,-1
 365 109 l 1,10,-1
 365 12 l 1,11,-1
 268 12 l 1,8,-1
396 12 m 1,12,-1
 396 109 l 1,13,-1
 493 109 l 1,14,-1
 493 12 l 1,15,-1
 396 12 l 1,12,-1
524 12 m 1,16,-1
 524 109 l 1,17,-1
 621 109 l 1,18,-1
 621 12 l 1,19,-1
 524 12 l 1,16,-1
12 140 m 1,20,-1
 12 237 l 1,21,-1
 109 237 l 1,22,-1
 109 140 l 1,23,-1
 12 140 l 1,20,-1
12 268 m 1,24,-1
 12 365 l 1,25,-1
 109 365 l 1,26,-1
 109 268 l 1,27,-1
 12 268 l 1,24,-1
12 396 m 1,28,-1
 12 493 l 1,29,-1
 109 493 l 1,30,-1
 109 396 l 1,31,-1
 12 396 l 1,28,-1
140 396 m 1,32,-1
 140 493 l 1,33,-1
 237 493 l 1,34,-1
 237 396 l 1,35,-1
 140 396 l 1,32,-1
268 396 m 1,36,-1
 268 493 l 1,37,-1
 365 493 l 1,38,-1
 365 396 l 1,39,-1
 268 396 l 1,36,-1
396 396 m 1,40,-1
 396 493 l 1,41,-1
 493 493 l 1,42,-1
 493 396 l 1,43,-1
 396 396 l 1,40,-1
12 524 m 1,44,-1
 12 621 l 1,45,-1
 109 621 l 1,46,-1
 109 524 l 1,47,-1
 12 524 l 1,44,-1
12 652 m 1,48,-1
 12 749 l 1,49,-1
 109 749 l 1,50,-1
 109 652 l 1,51,-1
 12 652 l 1,48,-1
12 780 m 1,52,-1
 12 877 l 1,53,-1
 109 877 l 1,54,-1
 109 780 l 1,55,-1
 12 780 l 1,52,-1
140 780 m 1,56,-1
 140 877 l 1,57,-1
 237 877 l 1,58,-1
 237 780 l 1,59,-1
 140 780 l 1,56,-1
268 780 m 1,60,-1
 268 877 l 1,61,-1
 365 877 l 1,62,-1
 365 780 l 1,63,-1
 268 780 l 1,60,-1
396 780 m 1,64,-1
 396 877 l 1,65,-1
 493 877 l 1,66,-1
 493 780 l 1,67,-1
 396 780 l 1,64,-1
524 780 m 1,68,-1
 524 877 l 1,69,-1
 621 877 l 1,70,-1
 621 780 l 1,71,-1
 524 780 l 1,68,-1
EndSplineSet
Validated: 1
EndChar

StartChar: F
Encoding: 70 70 41
Width: 767
Flags: W
LayerCount: 2
Fore
SplineSet
12 12 m 1,0,-1
 12 109 l 1,1,-1
 109 109 l 1,2,-1
 109 12 l 1,3,-1
 12 12 l 1,0,-1
12 140 m 1,4,-1
 12 237 l 1,5,-1
 109 237 l 1,6,-1
 109 140 l 1,7,-1
 12 140 l 1,4,-1
12 268 m 1,8,-1
 12 365 l 1,9,-1
 109 365 l 1,10,-1
 109 268 l 1,11,-1
 12 268 l 1,8,-1
12 396 m 1,12,-1
 12 493 l 1,13,-1
 109 493 l 1,14,-1
 109 396 l 1,15,-1
 12 396 l 1,12,-1
140 396 m 1,16,-1
 140 493 l 1,17,-1
 237 493 l 1,18,-1
 237 396 l 1,19,-1
 140 396 l 1,16,-1
268 396 m 1,20,-1
 268 493 l 1,21,-1
 365 493 l 1,22,-1
 365 396 l 1,23,-1
 268 396 l 1,20,-1
396 396 m 1,24,-1
 396 493 l 1,25,-1
 493 493 l 1,26,-1
 493 396 l 1,27,-1
 396 396 l 1,24,-1
12 524 m 1,28,-1
 12 621 l 1,29,-1
 109 621 l 1,30,-1
 109 524 l 1,31,-1
 12 524 l 1,28,-1
12 652 m 1,32,-1
 12 749 l 1,33,-1
 109 749 l 1,34,-1
 109 652 l 1,35,-1
 12 652 l 1,32,-1
12 780 m 1,36,-1
 12 877 l 1,37,-1
 109 877 l 1,38,-1
 109 780 l 1,39,-1
 12 780 l 1,36,-1
140 780 m 1,40,-1
 140 877 l 1,41,-1
 237 877 l 1,42,-1
 237 780 l 1,43,-1
 140 780 l 1,40,-1
268 780 m 1,44,-1
 268 877 l 1,45,-1
 365 877 l 1,46,-1
 365 780 l 1,47,-1
 268 780 l 1,44,-1
396 780 m 1,48,-1
 396 877 l 1,49,-1
 493 877 l 1,50,-1
 493 780 l 1,51,-1
 396 780 l 1,48,-1
524 780 m 1,52,-1
 524 877 l 1,53,-1
 621 877 l 1,54,-1
 621 780 l 1,55,-1
 524 780 l 1,52,-1
EndSplineSet
Validated: 1
EndChar

StartChar: G
Encoding: 71 71 42
Width: 767
Flags: W
LayerCount: 2
Fore
SplineSet
140 12 m 1,0,-1
 140 109 l 1,1,-1
 237 109 l 1,2,-1
 237 12 l 1,3,-1
 140 12 l 1,0,-1
268 12 m 1,4,-1
 268 109 l 1,5,-1
 365 109 l 1,6,-1
 365 12 l 1,7,-1
 268 12 l 1,4,-1
396 12 m 1,8,-1
 396 109 l 1,9,-1
 493 109 l 1,10,-1
 493 12 l 1,11,-1
 396 12 l 1,8,-1
524 12 m 1,12,-1
 524 109 l 1,13,-1
 621 109 l 1,14,-1
 621 12 l 1,15,-1
 524 12 l 1,12,-1
12 140 m 1,16,-1
 12 237 l 1,17,-1
 109 237 l 1,18,-1
 109 140 l 1,19,-1
 12 140 l 1,16,-1
524 140 m 1,20,-1
 524 237 l 1,21,-1
 621 237 l 1,22,-1
 621 140 l 1,23,-1
 524 140 l 1,20,-1
12 268 m 1,24,-1
 12 365 l 1,25,-1
 109 365 l 1,26,-1
 109 268 l 1,27,-1
 12 268 l 1,24,-1
524 268 m 1,28,-1
 524 365 l 1,29,-1
 621 365 l 1,30,-1
 621 268 l 1,31,-1
 524 268 l 1,28,-1
12 396 m 1,32,-1
 12 493 l 1,33,-1
 109 493 l 1,34,-1
 109 396 l 1,35,-1
 12 396 l 1,32,-1
396 396 m 1,36,-1
 396 493 l 1,37,-1
 493 493 l 1,38,-1
 493 396 l 1,39,-1
 396 396 l 1,36,-1
524 396 m 1,40,-1
 524 493 l 1,41,-1
 621 493 l 1,42,-1
 621 396 l 1,43,-1
 524 396 l 1,40,-1
12 524 m 1,44,-1
 12 621 l 1,45,-1
 109 621 l 1,46,-1
 109 524 l 1,47,-1
 12 524 l 1,44,-1
12 652 m 1,48,-1
 12 749 l 1,49,-1
 109 749 l 1,50,-1
 109 652 l 1,51,-1
 12 652 l 1,48,-1
524 652 m 1,52,-1
 524 749 l 1,53,-1
 621 749 l 1,54,-1
 621 652 l 1,55,-1
 524 652 l 1,52,-1
140 780 m 1,56,-1
 140 877 l 1,57,-1
 237 877 l 1,58,-1
 237 780 l 1,59,-1
 140 780 l 1,56,-1
268 780 m 1,60,-1
 268 877 l 1,61,-1
 365 877 l 1,62,-1
 365 780 l 1,63,-1
 268 780 l 1,60,-1
396 780 m 1,64,-1
 396 877 l 1,65,-1
 493 877 l 1,66,-1
 493 780 l 1,67,-1
 396 780 l 1,64,-1
EndSplineSet
Validated: 1
EndChar

StartChar: H
Encoding: 72 72 43
Width: 767
Flags: W
LayerCount: 2
Fore
SplineSet
12 12 m 1,0,-1
 12 109 l 1,1,-1
 109 109 l 1,2,-1
 109 12 l 1,3,-1
 12 12 l 1,0,-1
524 12 m 1,4,-1
 524 109 l 1,5,-1
 621 109 l 1,6,-1
 621 12 l 1,7,-1
 524 12 l 1,4,-1
12 140 m 1,8,-1
 12 237 l 1,9,-1
 109 237 l 1,10,-1
 109 140 l 1,11,-1
 12 140 l 1,8,-1
524 140 m 1,12,-1
 524 237 l 1,13,-1
 621 237 l 1,14,-1
 621 140 l 1,15,-1
 524 140 l 1,12,-1
12 268 m 1,16,-1
 12 365 l 1,17,-1
 109 365 l 1,18,-1
 109 268 l 1,19,-1
 12 268 l 1,16,-1
524 268 m 1,20,-1
 524 365 l 1,21,-1
 621 365 l 1,22,-1
 621 268 l 1,23,-1
 524 268 l 1,20,-1
12 396 m 1,24,-1
 12 493 l 1,25,-1
 109 493 l 1,26,-1
 109 396 l 1,27,-1
 12 396 l 1,24,-1
140 396 m 1,28,-1
 140 493 l 1,29,-1
 237 493 l 1,30,-1
 237 396 l 1,31,-1
 140 396 l 1,28,-1
268 396 m 1,32,-1
 268 493 l 1,33,-1
 365 493 l 1,34,-1
 365 396 l 1,35,-1
 268 396 l 1,32,-1
396 396 m 1,36,-1
 396 493 l 1,37,-1
 493 493 l 1,38,-1
 493 396 l 1,39,-1
 396 396 l 1,36,-1
524 396 m 1,40,-1
 524 493 l 1,41,-1
 621 493 l 1,42,-1
 621 396 l 1,43,-1
 524 396 l 1,40,-1
12 524 m 1,44,-1
 12 621 l 1,45,-1
 109 621 l 1,46,-1
 109 524 l 1,47,-1
 12 524 l 1,44,-1
524 524 m 1,48,-1
 524 621 l 1,49,-1
 621 621 l 1,50,-1
 621 524 l 1,51,-1
 524 524 l 1,48,-1
12 652 m 1,52,-1
 12 749 l 1,53,-1
 109 749 l 1,54,-1
 109 652 l 1,55,-1
 12 652 l 1,52,-1
524 652 m 1,56,-1
 524 749 l 1,57,-1
 621 749 l 1,58,-1
 621 652 l 1,59,-1
 524 652 l 1,56,-1
12 780 m 1,60,-1
 12 877 l 1,61,-1
 109 877 l 1,62,-1
 109 780 l 1,63,-1
 12 780 l 1,60,-1
524 780 m 1,64,-1
 524 877 l 1,65,-1
 621 877 l 1,66,-1
 621 780 l 1,67,-1
 524 780 l 1,64,-1
EndSplineSet
Validated: 1
EndChar

StartChar: I
Encoding: 73 73 44
Width: 768
Flags: W
LayerCount: 2
Fore
SplineSet
140 12 m 1,0,-1
 140 109 l 1,1,-1
 237 109 l 1,2,-1
 237 12 l 1,3,-1
 140 12 l 1,0,-1
268 12 m 1,4,-1
 268 109 l 1,5,-1
 365 109 l 1,6,-1
 365 12 l 1,7,-1
 268 12 l 1,4,-1
396 12 m 1,8,-1
 396 109 l 1,9,-1
 493 109 l 1,10,-1
 493 12 l 1,11,-1
 396 12 l 1,8,-1
268 140 m 1,12,-1
 268 237 l 1,13,-1
 365 237 l 1,14,-1
 365 140 l 1,15,-1
 268 140 l 1,12,-1
268 268 m 1,16,-1
 268 365 l 1,17,-1
 365 365 l 1,18,-1
 365 268 l 1,19,-1
 268 268 l 1,16,-1
268 396 m 1,20,-1
 268 493 l 1,21,-1
 365 493 l 1,22,-1
 365 396 l 1,23,-1
 268 396 l 1,20,-1
268 524 m 1,24,-1
 268 621 l 1,25,-1
 365 621 l 1,26,-1
 365 524 l 1,27,-1
 268 524 l 1,24,-1
268 652 m 1,28,-1
 268 749 l 1,29,-1
 365 749 l 1,30,-1
 365 652 l 1,31,-1
 268 652 l 1,28,-1
140 780 m 1,32,-1
 140 877 l 1,33,-1
 237 877 l 1,34,-1
 237 780 l 1,35,-1
 140 780 l 1,32,-1
268 780 m 1,36,-1
 268 877 l 1,37,-1
 365 877 l 1,38,-1
 365 780 l 1,39,-1
 268 780 l 1,36,-1
396 780 m 1,40,-1
 396 877 l 1,41,-1
 493 877 l 1,42,-1
 493 780 l 1,43,-1
 396 780 l 1,40,-1
EndSplineSet
Validated: 1
EndChar

StartChar: J
Encoding: 74 74 45
Width: 767
Flags: W
LayerCount: 2
Fore
SplineSet
140 12 m 1,0,-1
 140 109 l 1,1,-1
 237 109 l 1,2,-1
 237 12 l 1,3,-1
 140 12 l 1,0,-1
268 12 m 1,4,-1
 268 109 l 1,5,-1
 365 109 l 1,6,-1
 365 12 l 1,7,-1
 268 12 l 1,4,-1
12 140 m 1,8,-1
 12 237 l 1,9,-1
 109 237 l 1,10,-1
 109 140 l 1,11,-1
 12 140 l 1,8,-1
396 140 m 1,12,-1
 396 237 l 1,13,-1
 493 237 l 1,14,-1
 493 140 l 1,15,-1
 396 140 l 1,12,-1
396 268 m 1,16,-1
 396 365 l 1,17,-1
 493 365 l 1,18,-1
 493 268 l 1,19,-1
 396 268 l 1,16,-1
396 396 m 1,20,-1
 396 493 l 1,21,-1
 493 493 l 1,22,-1
 493 396 l 1,23,-1
 396 396 l 1,20,-1
396 524 m 1,24,-1
 396 621 l 1,25,-1
 493 621 l 1,26,-1
 493 524 l 1,27,-1
 396 524 l 1,24,-1
396 652 m 1,28,-1
 396 749 l 1,29,-1
 493 749 l 1,30,-1
 493 652 l 1,31,-1
 396 652 l 1,28,-1
268 780 m 1,32,-1
 268 877 l 1,33,-1
 365 877 l 1,34,-1
 365 780 l 1,35,-1
 268 780 l 1,32,-1
396 780 m 1,36,-1
 396 877 l 1,37,-1
 493 877 l 1,38,-1
 493 780 l 1,39,-1
 396 780 l 1,36,-1
524 780 m 1,40,-1
 524 877 l 1,41,-1
 621 877 l 1,42,-1
 621 780 l 1,43,-1
 524 780 l 1,40,-1
EndSplineSet
Validated: 1
EndChar

StartChar: K
Encoding: 75 75 46
Width: 767
Flags: W
LayerCount: 2
Fore
SplineSet
12 12 m 1,0,-1
 12 109 l 1,1,-1
 109 109 l 1,2,-1
 109 12 l 1,3,-1
 12 12 l 1,0,-1
524 12 m 1,4,-1
 524 109 l 1,5,-1
 621 109 l 1,6,-1
 621 12 l 1,7,-1
 524 12 l 1,4,-1
12 140 m 1,8,-1
 12 237 l 1,9,-1
 109 237 l 1,10,-1
 109 140 l 1,11,-1
 12 140 l 1,8,-1
396 140 m 1,12,-1
 396 237 l 1,13,-1
 493 237 l 1,14,-1
 493 140 l 1,15,-1
 396 140 l 1,12,-1
12 268 m 1,16,-1
 12 365 l 1,17,-1
 109 365 l 1,18,-1
 109 268 l 1,19,-1
 12 268 l 1,16,-1
268 268 m 1,20,-1
 268 365 l 1,21,-1
 365 365 l 1,22,-1
 365 268 l 1,23,-1
 268 268 l 1,20,-1
12 396 m 1,24,-1
 12 493 l 1,25,-1
 109 493 l 1,26,-1
 109 396 l 1,27,-1
 12 396 l 1,24,-1
140 396 m 1,28,-1
 140 493 l 1,29,-1
 237 493 l 1,30,-1
 237 396 l 1,31,-1
 140 396 l 1,28,-1
12 524 m 1,32,-1
 12 621 l 1,33,-1
 109 621 l 1,34,-1
 109 524 l 1,35,-1
 12 524 l 1,32,-1
268 524 m 1,36,-1
 268 621 l 1,37,-1
 365 621 l 1,38,-1
 365 524 l 1,39,-1
 268 524 l 1,36,-1
12 652 m 1,40,-1
 12 749 l 1,41,-1
 109 749 l 1,42,-1
 109 652 l 1,43,-1
 12 652 l 1,40,-1
396 652 m 1,44,-1
 396 749 l 1,45,-1
 493 749 l 1,46,-1
 493 652 l 1,47,-1
 396 652 l 1,44,-1
12 780 m 1,48,-1
 12 877 l 1,49,-1
 109 877 l 1,50,-1
 109 780 l 1,51,-1
 12 780 l 1,48,-1
524 780 m 1,52,-1
 524 877 l 1,53,-1
 621 877 l 1,54,-1
 621 780 l 1,55,-1
 524 780 l 1,52,-1
EndSplineSet
Validated: 1
EndChar

StartChar: L
Encoding: 76 76 47
Width: 767
Flags: W
LayerCount: 2
Fore
SplineSet
12 12 m 1,0,-1
 12 109 l 1,1,-1
 109 109 l 1,2,-1
 109 12 l 1,3,-1
 12 12 l 1,0,-1
140 12 m 1,4,-1
 140 109 l 1,5,-1
 237 109 l 1,6,-1
 237 12 l 1,7,-1
 140 12 l 1,4,-1
268 12 m 1,8,-1
 268 109 l 1,9,-1
 365 109 l 1,10,-1
 365 12 l 1,11,-1
 268 12 l 1,8,-1
396 12 m 1,12,-1
 396 109 l 1,13,-1
 493 109 l 1,14,-1
 493 12 l 1,15,-1
 396 12 l 1,12,-1
524 12 m 1,16,-1
 524 109 l 1,17,-1
 621 109 l 1,18,-1
 621 12 l 1,19,-1
 524 12 l 1,16,-1
12 140 m 1,20,-1
 12 237 l 1,21,-1
 109 237 l 1,22,-1
 109 140 l 1,23,-1
 12 140 l 1,20,-1
12 268 m 1,24,-1
 12 365 l 1,25,-1
 109 365 l 1,26,-1
 109 268 l 1,27,-1
 12 268 l 1,24,-1
12 396 m 1,28,-1
 12 493 l 1,29,-1
 109 493 l 1,30,-1
 109 396 l 1,31,-1
 12 396 l 1,28,-1
12 524 m 1,32,-1
 12 621 l 1,33,-1
 109 621 l 1,34,-1
 109 524 l 1,35,-1
 12 524 l 1,32,-1
12 652 m 1,36,-1
 12 749 l 1,37,-1
 109 749 l 1,38,-1
 109 652 l 1,39,-1
 12 652 l 1,36,-1
12 780 m 1,40,-1
 12 877 l 1,41,-1
 109 877 l 1,42,-1
 109 780 l 1,43,-1
 12 780 l 1,40,-1
EndSplineSet
Validated: 1
EndChar

StartChar: M
Encoding: 77 77 48
Width: 767
Flags: W
LayerCount: 2
Fore
SplineSet
12 12 m 1,0,-1
 12 109 l 1,1,-1
 109 109 l 1,2,-1
 109 12 l 1,3,-1
 12 12 l 1,0,-1
524 12 m 1,4,-1
 524 109 l 1,5,-1
 621 109 l 1,6,-1
 621 12 l 1,7,-1
 524 12 l 1,4,-1
12 140 m 1,8,-1
 12 237 l 1,9,-1
 109 237 l 1,10,-1
 109 140 l 1,11,-1
 12 140 l 1,8,-1
524 140 m 1,12,-1
 524 237 l 1,13,-1
 621 237 l 1,14,-1
 621 140 l 1,15,-1
 524 140 l 1,12,-1
12 268 m 1,16,-1
 12 365 l 1,17,-1
 109 365 l 1,18,-1
 109 268 l 1,19,-1
 12 268 l 1,16,-1
524 268 m 1,20,-1
 524 365 l 1,21,-1
 621 365 l 1,22,-1
 621 268 l 1,23,-1
 524 268 l 1,20,-1
12 396 m 1,24,-1
 12 493 l 1,25,-1
 109 493 l 1,26,-1
 109 396 l 1,27,-1
 12 396 l 1,24,-1
268 396 m 1,28,-1
 268 493 l 1,29,-1
 365 493 l 1,30,-1
 365 396 l 1,31,-1
 268 396 l 1,28,-1
524 396 m 1,32,-1
 524 493 l 1,33,-1
 621 493 l 1,34,-1
 621 396 l 1,35,-1
 524 396 l 1,32,-1
12 524 m 1,36,-1
 12 621 l 1,37,-1
 109 621 l 1,38,-1
 109 524 l 1,39,-1
 12 524 l 1,36,-1
268 524 m 1,40,-1
 268 621 l 1,41,-1
 365 621 l 1,42,-1
 365 524 l 1,43,-1
 268 524 l 1,40,-1
524 524 m 1,44,-1
 524 621 l 1,45,-1
 621 621 l 1,46,-1
 621 524 l 1,47,-1
 524 524 l 1,44,-1
12 652 m 1,48,-1
 12 749 l 1,49,-1
 109 749 l 1,50,-1
 109 652 l 1,51,-1
 12 652 l 1,48,-1
140 652 m 1,52,-1
 140 749 l 1,53,-1
 237 749 l 1,54,-1
 237 652 l 1,55,-1
 140 652 l 1,52,-1
396 652 m 1,56,-1
 396 749 l 1,57,-1
 493 749 l 1,58,-1
 493 652 l 1,59,-1
 396 652 l 1,56,-1
524 652 m 1,60,-1
 524 749 l 1,61,-1
 621 749 l 1,62,-1
 621 652 l 1,63,-1
 524 652 l 1,60,-1
12 780 m 1,64,-1
 12 877 l 1,65,-1
 109 877 l 1,66,-1
 109 780 l 1,67,-1
 12 780 l 1,64,-1
524 780 m 1,68,-1
 524 877 l 1,69,-1
 621 877 l 1,70,-1
 621 780 l 1,71,-1
 524 780 l 1,68,-1
EndSplineSet
Validated: 1
EndChar

StartChar: N
Encoding: 78 78 49
Width: 767
Flags: W
LayerCount: 2
Fore
SplineSet
12 12 m 1,0,-1
 12 109 l 1,1,-1
 109 109 l 1,2,-1
 109 12 l 1,3,-1
 12 12 l 1,0,-1
524 12 m 1,4,-1
 524 109 l 1,5,-1
 621 109 l 1,6,-1
 621 12 l 1,7,-1
 524 12 l 1,4,-1
12 140 m 1,8,-1
 12 237 l 1,9,-1
 109 237 l 1,10,-1
 109 140 l 1,11,-1
 12 140 l 1,8,-1
524 140 m 1,12,-1
 524 237 l 1,13,-1
 621 237 l 1,14,-1
 621 140 l 1,15,-1
 524 140 l 1,12,-1
12 268 m 1,16,-1
 12 365 l 1,17,-1
 109 365 l 1,18,-1
 109 268 l 1,19,-1
 12 268 l 1,16,-1
396 268 m 1,20,-1
 396 365 l 1,21,-1
 493 365 l 1,22,-1
 493 268 l 1,23,-1
 396 268 l 1,20,-1
524 268 m 1,24,-1
 524 365 l 1,25,-1
 621 365 l 1,26,-1
 621 268 l 1,27,-1
 524 268 l 1,24,-1
12 396 m 1,28,-1
 12 493 l 1,29,-1
 109 493 l 1,30,-1
 109 396 l 1,31,-1
 12 396 l 1,28,-1
268 396 m 1,32,-1
 268 493 l 1,33,-1
 365 493 l 1,34,-1
 365 396 l 1,35,-1
 268 396 l 1,32,-1
524 396 m 1,36,-1
 524 493 l 1,37,-1
 621 493 l 1,38,-1
 621 396 l 1,39,-1
 524 396 l 1,36,-1
12 524 m 1,40,-1
 12 621 l 1,41,-1
 109 621 l 1,42,-1
 109 524 l 1,43,-1
 12 524 l 1,40,-1
140 524 m 1,44,-1
 140 621 l 1,45,-1
 237 621 l 1,46,-1
 237 524 l 1,47,-1
 140 524 l 1,44,-1
524 524 m 1,48,-1
 524 621 l 1,49,-1
 621 621 l 1,50,-1
 621 524 l 1,51,-1
 524 524 l 1,48,-1
12 652 m 1,52,-1
 12 749 l 1,53,-1
 109 749 l 1,54,-1
 109 652 l 1,55,-1
 12 652 l 1,52,-1
524 652 m 1,56,-1
 524 749 l 1,57,-1
 621 749 l 1,58,-1
 621 652 l 1,59,-1
 524 652 l 1,56,-1
12 780 m 1,60,-1
 12 877 l 1,61,-1
 109 877 l 1,62,-1
 109 780 l 1,63,-1
 12 780 l 1,60,-1
524 780 m 1,64,-1
 524 877 l 1,65,-1
 621 877 l 1,66,-1
 621 780 l 1,67,-1
 524 780 l 1,64,-1
EndSplineSet
Validated: 1
EndChar

StartChar: O
Encoding: 79 79 50
Width: 767
Flags: W
LayerCount: 2
Fore
SplineSet
140 12 m 1,0,-1
 140 109 l 1,1,-1
 237 109 l 1,2,-1
 237 12 l 1,3,-1
 140 12 l 1,0,-1
268 12 m 1,4,-1
 268 109 l 1,5,-1
 365 109 l 1,6,-1
 365 12 l 1,7,-1
 268 12 l 1,4,-1
396 12 m 1,8,-1
 396 109 l 1,9,-1
 493 109 l 1,10,-1
 493 12 l 1,11,-1
 396 12 l 1,8,-1
12 140 m 1,12,-1
 12 237 l 1,13,-1
 109 237 l 1,14,-1
 109 140 l 1,15,-1
 12 140 l 1,12,-1
524 140 m 1,16,-1
 524 237 l 1,17,-1
 621 237 l 1,18,-1
 621 140 l 1,19,-1
 524 140 l 1,16,-1
12 268 m 1,20,-1
 12 365 l 1,21,-1
 109 365 l 1,22,-1
 109 268 l 1,23,-1
 12 268 l 1,20,-1
524 268 m 1,24,-1
 524 365 l 1,25,-1
 621 365 l 1,26,-1
 621 268 l 1,27,-1
 524 268 l 1,24,-1
12 396 m 1,28,-1
 12 493 l 1,29,-1
 109 493 l 1,30,-1
 109 396 l 1,31,-1
 12 396 l 1,28,-1
524 396 m 1,32,-1
 524 493 l 1,33,-1
 621 493 l 1,34,-1
 621 396 l 1,35,-1
 524 396 l 1,32,-1
12 524 m 1,36,-1
 12 621 l 1,37,-1
 109 621 l 1,38,-1
 109 524 l 1,39,-1
 12 524 l 1,36,-1
524 524 m 1,40,-1
 524 621 l 1,41,-1
 621 621 l 1,42,-1
 621 524 l 1,43,-1
 524 524 l 1,40,-1
12 652 m 1,44,-1
 12 749 l 1,45,-1
 109 749 l 1,46,-1
 109 652 l 1,47,-1
 12 652 l 1,44,-1
524 652 m 1,48,-1
 524 749 l 1,49,-1
 621 749 l 1,50,-1
 621 652 l 1,51,-1
 524 652 l 1,48,-1
140 780 m 1,52,-1
 140 877 l 1,53,-1
 237 877 l 1,54,-1
 237 780 l 1,55,-1
 140 780 l 1,52,-1
268 780 m 1,56,-1
 268 877 l 1,57,-1
 365 877 l 1,58,-1
 365 780 l 1,59,-1
 268 780 l 1,56,-1
396 780 m 1,60,-1
 396 877 l 1,61,-1
 493 877 l 1,62,-1
 493 780 l 1,63,-1
 396 780 l 1,60,-1
EndSplineSet
Validated: 1
EndChar

StartChar: P
Encoding: 80 80 51
Width: 767
Flags: W
LayerCount: 2
Fore
SplineSet
12 12 m 1,0,-1
 12 109 l 1,1,-1
 109 109 l 1,2,-1
 109 12 l 1,3,-1
 12 12 l 1,0,-1
12 140 m 1,4,-1
 12 237 l 1,5,-1
 109 237 l 1,6,-1
 109 140 l 1,7,-1
 12 140 l 1,4,-1
12 268 m 1,8,-1
 12 365 l 1,9,-1
 109 365 l 1,10,-1
 109 268 l 1,11,-1
 12 268 l 1,8,-1
12 396 m 1,12,-1
 12 493 l 1,13,-1
 109 493 l 1,14,-1
 109 396 l 1,15,-1
 12 396 l 1,12,-1
140 396 m 1,16,-1
 140 493 l 1,17,-1
 237 493 l 1,18,-1
 237 396 l 1,19,-1
 140 396 l 1,16,-1
268 396 m 1,20,-1
 268 493 l 1,21,-1
 365 493 l 1,22,-1
 365 396 l 1,23,-1
 268 396 l 1,20,-1
396 396 m 1,24,-1
 396 493 l 1,25,-1
 493 493 l 1,26,-1
 493 396 l 1,27,-1
 396 396 l 1,24,-1
12 524 m 1,28,-1
 12 621 l 1,29,-1
 109 621 l 1,30,-1
 109 524 l 1,31,-1
 12 524 l 1,28,-1
524 524 m 1,32,-1
 524 621 l 1,33,-1
 621 621 l 1,34,-1
 621 524 l 1,35,-1
 524 524 l 1,32,-1
12 652 m 1,36,-1
 12 749 l 1,37,-1
 109 749 l 1,38,-1
 109 652 l 1,39,-1
 12 652 l 1,36,-1
524 652 m 1,40,-1
 524 749 l 1,41,-1
 621 749 l 1,42,-1
 621 652 l 1,43,-1
 524 652 l 1,40,-1
12 780 m 1,44,-1
 12 877 l 1,45,-1
 109 877 l 1,46,-1
 109 780 l 1,47,-1
 12 780 l 1,44,-1
140 780 m 1,48,-1
 140 877 l 1,49,-1
 237 877 l 1,50,-1
 237 780 l 1,51,-1
 140 780 l 1,48,-1
268 780 m 1,52,-1
 268 877 l 1,53,-1
 365 877 l 1,54,-1
 365 780 l 1,55,-1
 268 780 l 1,52,-1
396 780 m 1,56,-1
 396 877 l 1,57,-1
 493 877 l 1,58,-1
 493 780 l 1,59,-1
 396 780 l 1,56,-1
EndSplineSet
Validated: 1
EndChar

StartChar: Q
Encoding: 81 81 52
Width: 767
Flags: W
LayerCount: 2
Fore
SplineSet
140 12 m 1,0,-1
 140 109 l 1,1,-1
 237 109 l 1,2,-1
 237 12 l 1,3,-1
 140 12 l 1,0,-1
268 12 m 1,4,-1
 268 109 l 1,5,-1
 365 109 l 1,6,-1
 365 12 l 1,7,-1
 268 12 l 1,4,-1
524 12 m 1,8,-1
 524 109 l 1,9,-1
 621 109 l 1,10,-1
 621 12 l 1,11,-1
 524 12 l 1,8,-1
12 140 m 1,12,-1
 12 237 l 1,13,-1
 109 237 l 1,14,-1
 109 140 l 1,15,-1
 12 140 l 1,12,-1
396 140 m 1,16,-1
 396 237 l 1,17,-1
 493 237 l 1,18,-1
 493 140 l 1,19,-1
 396 140 l 1,16,-1
12 268 m 1,20,-1
 12 365 l 1,21,-1
 109 365 l 1,22,-1
 109 268 l 1,23,-1
 12 268 l 1,20,-1
268 268 m 1,24,-1
 268 365 l 1,25,-1
 365 365 l 1,26,-1
 365 268 l 1,27,-1
 268 268 l 1,24,-1
524 268 m 1,28,-1
 524 365 l 1,29,-1
 621 365 l 1,30,-1
 621 268 l 1,31,-1
 524 268 l 1,28,-1
12 396 m 1,32,-1
 12 493 l 1,33,-1
 109 493 l 1,34,-1
 109 396 l 1,35,-1
 12 396 l 1,32,-1
524 396 m 1,36,-1
 524 493 l 1,37,-1
 621 493 l 1,38,-1
 621 396 l 1,39,-1
 524 396 l 1,36,-1
12 524 m 1,40,-1
 12 621 l 1,41,-1
 109 621 l 1,42,-1
 109 524 l 1,43,-1
 12 524 l 1,40,-1
524 524 m 1,44,-1
 524 621 l 1,45,-1
 621 621 l 1,46,-1
 621 524 l 1,47,-1
 524 524 l 1,44,-1
12 652 m 1,48,-1
 12 749 l 1,49,-1
 109 749 l 1,50,-1
 109 652 l 1,51,-1
 12 652 l 1,48,-1
524 652 m 1,52,-1
 524 749 l 1,53,-1
 621 749 l 1,54,-1
 621 652 l 1,55,-1
 524 652 l 1,52,-1
140 780 m 1,56,-1
 140 877 l 1,57,-1
 237 877 l 1,58,-1
 237 780 l 1,59,-1
 140 780 l 1,56,-1
268 780 m 1,60,-1
 268 877 l 1,61,-1
 365 877 l 1,62,-1
 365 780 l 1,63,-1
 268 780 l 1,60,-1
396 780 m 1,64,-1
 396 877 l 1,65,-1
 493 877 l 1,66,-1
 493 780 l 1,67,-1
 396 780 l 1,64,-1
EndSplineSet
Validated: 1
EndChar

StartChar: R
Encoding: 82 82 53
Width: 767
Flags: W
LayerCount: 2
Fore
SplineSet
12 12 m 1,0,-1
 12 109 l 1,1,-1
 109 109 l 1,2,-1
 109 12 l 1,3,-1
 12 12 l 1,0,-1
524 12 m 1,4,-1
 524 109 l 1,5,-1
 621 109 l 1,6,-1
 621 12 l 1,7,-1
 524 12 l 1,4,-1
12 140 m 1,8,-1
 12 237 l 1,9,-1
 109 237 l 1,10,-1
 109 140 l 1,11,-1
 12 140 l 1,8,-1
396 140 m 1,12,-1
 396 237 l 1,13,-1
 493 237 l 1,14,-1
 493 140 l 1,15,-1
 396 140 l 1,12,-1
12 268 m 1,16,-1
 12 365 l 1,17,-1
 109 365 l 1,18,-1
 109 268 l 1,19,-1
 12 268 l 1,16,-1
268 268 m 1,20,-1
 268 365 l 1,21,-1
 365 365 l 1,22,-1
 365 268 l 1,23,-1
 268 268 l 1,20,-1
12 396 m 1,24,-1
 12 493 l 1,25,-1
 109 493 l 1,26,-1
 109 396 l 1,27,-1
 12 396 l 1,24,-1
140 396 m 1,28,-1
 140 493 l 1,29,-1
 237 493 l 1,30,-1
 237 396 l 1,31,-1
 140 396 l 1,28,-1
268 396 m 1,32,-1
 268 493 l 1,33,-1
 365 493 l 1,34,-1
 365 396 l 1,35,-1
 268 396 l 1,32,-1
396 396 m 1,36,-1
 396 493 l 1,37,-1
 493 493 l 1,38,-1
 493 396 l 1,39,-1
 396 396 l 1,36,-1
12 524 m 1,40,-1
 12 621 l 1,41,-1
 109 621 l 1,42,-1
 109 524 l 1,43,-1
 12 524 l 1,40,-1
524 524 m 1,44,-1
 524 621 l 1,45,-1
 621 621 l 1,46,-1
 621 524 l 1,47,-1
 524 524 l 1,44,-1
12 652 m 1,48,-1
 12 749 l 1,49,-1
 109 749 l 1,50,-1
 109 652 l 1,51,-1
 12 652 l 1,48,-1
524 652 m 1,52,-1
 524 749 l 1,53,-1
 621 749 l 1,54,-1
 621 652 l 1,55,-1
 524 652 l 1,52,-1
12 780 m 1,56,-1
 12 877 l 1,57,-1
 109 877 l 1,58,-1
 109 780 l 1,59,-1
 12 780 l 1,56,-1
140 780 m 1,60,-1
 140 877 l 1,61,-1
 237 877 l 1,62,-1
 237 780 l 1,63,-1
 140 780 l 1,60,-1
268 780 m 1,64,-1
 268 877 l 1,65,-1
 365 877 l 1,66,-1
 365 780 l 1,67,-1
 268 780 l 1,64,-1
396 780 m 1,68,-1
 396 877 l 1,69,-1
 493 877 l 1,70,-1
 493 780 l 1,71,-1
 396 780 l 1,68,-1
EndSplineSet
Validated: 1
EndChar

StartChar: S
Encoding: 83 83 54
Width: 767
Flags: W
LayerCount: 2
Fore
SplineSet
140 12 m 1,0,-1
 140 109 l 1,1,-1
 237 109 l 1,2,-1
 237 12 l 1,3,-1
 140 12 l 1,0,-1
268 12 m 1,4,-1
 268 109 l 1,5,-1
 365 109 l 1,6,-1
 365 12 l 1,7,-1
 268 12 l 1,4,-1
396 12 m 1,8,-1
 396 109 l 1,9,-1
 493 109 l 1,10,-1
 493 12 l 1,11,-1
 396 12 l 1,8,-1
12 140 m 1,12,-1
 12 237 l 1,13,-1
 109 237 l 1,14,-1
 109 140 l 1,15,-1
 12 140 l 1,12,-1
524 140 m 1,16,-1
 524 237 l 1,17,-1
 621 237 l 1,18,-1
 621 140 l 1,19,-1
 524 140 l 1,16,-1
524 268 m 1,20,-1
 524 365 l 1,21,-1
 621 365 l 1,22,-1
 621 268 l 1,23,-1
 524 268 l 1,20,-1
140 396 m 1,24,-1
 140 493 l 1,25,-1
 237 493 l 1,26,-1
 237 396 l 1,27,-1
 140 396 l 1,24,-1
268 396 m 1,28,-1
 268 493 l 1,29,-1
 365 493 l 1,30,-1
 365 396 l 1,31,-1
 268 396 l 1,28,-1
396 396 m 1,32,-1
 396 493 l 1,33,-1
 493 493 l 1,34,-1
 493 396 l 1,35,-1
 396 396 l 1,32,-1
12 524 m 1,36,-1
 12 621 l 1,37,-1
 109 621 l 1,38,-1
 109 524 l 1,39,-1
 12 524 l 1,36,-1
12 652 m 1,40,-1
 12 749 l 1,41,-1
 109 749 l 1,42,-1
 109 652 l 1,43,-1
 12 652 l 1,40,-1
524 652 m 1,44,-1
 524 749 l 1,45,-1
 621 749 l 1,46,-1
 621 652 l 1,47,-1
 524 652 l 1,44,-1
140 780 m 1,48,-1
 140 877 l 1,49,-1
 237 877 l 1,50,-1
 237 780 l 1,51,-1
 140 780 l 1,48,-1
268 780 m 1,52,-1
 268 877 l 1,53,-1
 365 877 l 1,54,-1
 365 780 l 1,55,-1
 268 780 l 1,52,-1
396 780 m 1,56,-1
 396 877 l 1,57,-1
 493 877 l 1,58,-1
 493 780 l 1,59,-1
 396 780 l 1,56,-1
EndSplineSet
Validated: 1
EndChar

StartChar: T
Encoding: 84 84 55
Width: 767
Flags: W
LayerCount: 2
Fore
SplineSet
268 12 m 5,0,-1
 268 109 l 5,1,-1
 365 109 l 5,2,-1
 365 12 l 5,3,-1
 268 12 l 5,0,-1
268 140 m 5,4,-1
 268 237 l 5,5,-1
 365 237 l 5,6,-1
 365 140 l 5,7,-1
 268 140 l 5,4,-1
268 268 m 5,8,-1
 268 365 l 5,9,-1
 365 365 l 5,10,-1
 365 268 l 5,11,-1
 268 268 l 5,8,-1
268 396 m 5,12,-1
 268 493 l 5,13,-1
 365 493 l 5,14,-1
 365 396 l 5,15,-1
 268 396 l 5,12,-1
268 524 m 5,16,-1
 268 621 l 5,17,-1
 365 621 l 5,18,-1
 365 524 l 5,19,-1
 268 524 l 5,16,-1
268 652 m 5,20,-1
 268 749 l 5,21,-1
 365 749 l 5,22,-1
 365 652 l 5,23,-1
 268 652 l 5,20,-1
12 780 m 5,24,-1
 12 877 l 5,25,-1
 109 877 l 5,26,-1
 109 780 l 5,27,-1
 12 780 l 5,24,-1
140 780 m 5,28,-1
 140 877 l 5,29,-1
 237 877 l 5,30,-1
 237 780 l 5,31,-1
 140 780 l 5,28,-1
268 780 m 5,32,-1
 268 877 l 5,33,-1
 365 877 l 5,34,-1
 365 780 l 5,35,-1
 268 780 l 5,32,-1
396 780 m 5,36,-1
 396 877 l 5,37,-1
 493 877 l 5,38,-1
 493 780 l 5,39,-1
 396 780 l 5,36,-1
524 780 m 5,40,-1
 524 877 l 5,41,-1
 621 877 l 5,42,-1
 621 780 l 5,43,-1
 524 780 l 5,40,-1
EndSplineSet
Validated: 1
EndChar

StartChar: U
Encoding: 85 85 56
Width: 767
Flags: W
LayerCount: 2
Fore
SplineSet
140 12 m 1,0,-1
 140 109 l 1,1,-1
 237 109 l 1,2,-1
 237 12 l 1,3,-1
 140 12 l 1,0,-1
268 12 m 1,4,-1
 268 109 l 1,5,-1
 365 109 l 1,6,-1
 365 12 l 1,7,-1
 268 12 l 1,4,-1
396 12 m 1,8,-1
 396 109 l 1,9,-1
 493 109 l 1,10,-1
 493 12 l 1,11,-1
 396 12 l 1,8,-1
12 140 m 1,12,-1
 12 237 l 1,13,-1
 109 237 l 1,14,-1
 109 140 l 1,15,-1
 12 140 l 1,12,-1
524 140 m 1,16,-1
 524 237 l 1,17,-1
 621 237 l 1,18,-1
 621 140 l 1,19,-1
 524 140 l 1,16,-1
12 268 m 1,20,-1
 12 365 l 1,21,-1
 109 365 l 1,22,-1
 109 268 l 1,23,-1
 12 268 l 1,20,-1
524 268 m 1,24,-1
 524 365 l 1,25,-1
 621 365 l 1,26,-1
 621 268 l 1,27,-1
 524 268 l 1,24,-1
12 396 m 1,28,-1
 12 493 l 1,29,-1
 109 493 l 1,30,-1
 109 396 l 1,31,-1
 12 396 l 1,28,-1
524 396 m 1,32,-1
 524 493 l 1,33,-1
 621 493 l 1,34,-1
 621 396 l 1,35,-1
 524 396 l 1,32,-1
12 524 m 1,36,-1
 12 621 l 1,37,-1
 109 621 l 1,38,-1
 109 524 l 1,39,-1
 12 524 l 1,36,-1
524 524 m 1,40,-1
 524 621 l 1,41,-1
 621 621 l 1,42,-1
 621 524 l 1,43,-1
 524 524 l 1,40,-1
12 652 m 1,44,-1
 12 749 l 1,45,-1
 109 749 l 1,46,-1
 109 652 l 1,47,-1
 12 652 l 1,44,-1
524 652 m 1,48,-1
 524 749 l 1,49,-1
 621 749 l 1,50,-1
 621 652 l 1,51,-1
 524 652 l 1,48,-1
12 780 m 1,52,-1
 12 877 l 1,53,-1
 109 877 l 1,54,-1
 109 780 l 1,55,-1
 12 780 l 1,52,-1
524 780 m 1,56,-1
 524 877 l 1,57,-1
 621 877 l 1,58,-1
 621 780 l 1,59,-1
 524 780 l 1,56,-1
EndSplineSet
Validated: 1
EndChar

StartChar: V
Encoding: 86 86 57
Width: 767
Flags: W
LayerCount: 2
Fore
SplineSet
268 12 m 1,0,-1
 268 109 l 1,1,-1
 365 109 l 1,2,-1
 365 12 l 1,3,-1
 268 12 l 1,0,-1
140 140 m 1,4,-1
 140 237 l 1,5,-1
 237 237 l 1,6,-1
 237 140 l 1,7,-1
 140 140 l 1,4,-1
396 140 m 1,8,-1
 396 237 l 1,9,-1
 493 237 l 1,10,-1
 493 140 l 1,11,-1
 396 140 l 1,8,-1
12 268 m 1,12,-1
 12 365 l 1,13,-1
 109 365 l 1,14,-1
 109 268 l 1,15,-1
 12 268 l 1,12,-1
524 268 m 1,16,-1
 524 365 l 1,17,-1
 621 365 l 1,18,-1
 621 268 l 1,19,-1
 524 268 l 1,16,-1
12 396 m 1,20,-1
 12 493 l 1,21,-1
 109 493 l 1,22,-1
 109 396 l 1,23,-1
 12 396 l 1,20,-1
524 396 m 1,24,-1
 524 493 l 1,25,-1
 621 493 l 1,26,-1
 621 396 l 1,27,-1
 524 396 l 1,24,-1
12 524 m 1,28,-1
 12 621 l 1,29,-1
 109 621 l 1,30,-1
 109 524 l 1,31,-1
 12 524 l 1,28,-1
524 524 m 1,32,-1
 524 621 l 1,33,-1
 621 621 l 1,34,-1
 621 524 l 1,35,-1
 524 524 l 1,32,-1
12 652 m 1,36,-1
 12 749 l 1,37,-1
 109 749 l 1,38,-1
 109 652 l 1,39,-1
 12 652 l 1,36,-1
524 652 m 1,40,-1
 524 749 l 1,41,-1
 621 749 l 1,42,-1
 621 652 l 1,43,-1
 524 652 l 1,40,-1
12 780 m 1,44,-1
 12 877 l 1,45,-1
 109 877 l 1,46,-1
 109 780 l 1,47,-1
 12 780 l 1,44,-1
524 780 m 1,48,-1
 524 877 l 1,49,-1
 621 877 l 1,50,-1
 621 780 l 1,51,-1
 524 780 l 1,48,-1
EndSplineSet
Validated: 1
EndChar

StartChar: W
Encoding: 87 87 58
Width: 767
Flags: W
LayerCount: 2
Fore
SplineSet
140 12 m 1,0,-1
 140 109 l 1,1,-1
 237 109 l 1,2,-1
 237 12 l 1,3,-1
 140 12 l 1,0,-1
396 12 m 1,4,-1
 396 109 l 1,5,-1
 493 109 l 1,6,-1
 493 12 l 1,7,-1
 396 12 l 1,4,-1
12 140 m 1,8,-1
 12 237 l 1,9,-1
 109 237 l 1,10,-1
 109 140 l 1,11,-1
 12 140 l 1,8,-1
268 140 m 1,12,-1
 268 237 l 1,13,-1
 365 237 l 1,14,-1
 365 140 l 1,15,-1
 268 140 l 1,12,-1
524 140 m 1,16,-1
 524 237 l 1,17,-1
 621 237 l 1,18,-1
 621 140 l 1,19,-1
 524 140 l 1,16,-1
12 268 m 1,20,-1
 12 365 l 1,21,-1
 109 365 l 1,22,-1
 109 268 l 1,23,-1
 12 268 l 1,20,-1
268 268 m 1,24,-1
 268 365 l 1,25,-1
 365 365 l 1,26,-1
 365 268 l 1,27,-1
 268 268 l 1,24,-1
524 268 m 1,28,-1
 524 365 l 1,29,-1
 621 365 l 1,30,-1
 621 268 l 1,31,-1
 524 268 l 1,28,-1
12 396 m 1,32,-1
 12 493 l 1,33,-1
 109 493 l 1,34,-1
 109 396 l 1,35,-1
 12 396 l 1,32,-1
268 396 m 1,36,-1
 268 493 l 1,37,-1
 365 493 l 1,38,-1
 365 396 l 1,39,-1
 268 396 l 1,36,-1
524 396 m 1,40,-1
 524 493 l 1,41,-1
 621 493 l 1,42,-1
 621 396 l 1,43,-1
 524 396 l 1,40,-1
12 524 m 1,44,-1
 12 621 l 1,45,-1
 109 621 l 1,46,-1
 109 524 l 1,47,-1
 12 524 l 1,44,-1
524 524 m 1,48,-1
 524 621 l 1,49,-1
 621 621 l 1,50,-1
 621 524 l 1,51,-1
 524 524 l 1,48,-1
12 652 m 1,52,-1
 12 749 l 1,53,-1
 109 749 l 1,54,-1
 109 652 l 1,55,-1
 12 652 l 1,52,-1
524 652 m 1,56,-1
 524 749 l 1,57,-1
 621 749 l 1,58,-1
 621 652 l 1,59,-1
 524 652 l 1,56,-1
12 780 m 1,60,-1
 12 877 l 1,61,-1
 109 877 l 1,62,-1
 109 780 l 1,63,-1
 12 780 l 1,60,-1
524 780 m 1,64,-1
 524 877 l 1,65,-1
 621 877 l 1,66,-1
 621 780 l 1,67,-1
 524 780 l 1,64,-1
EndSplineSet
Validated: 1
EndChar

StartChar: X
Encoding: 88 88 59
Width: 767
Flags: W
LayerCount: 2
Fore
SplineSet
12 12 m 1,0,-1
 12 109 l 1,1,-1
 109 109 l 1,2,-1
 109 12 l 1,3,-1
 12 12 l 1,0,-1
524 12 m 1,4,-1
 524 109 l 1,5,-1
 621 109 l 1,6,-1
 621 12 l 1,7,-1
 524 12 l 1,4,-1
12 140 m 1,8,-1
 12 237 l 1,9,-1
 109 237 l 1,10,-1
 109 140 l 1,11,-1
 12 140 l 1,8,-1
524 140 m 1,12,-1
 524 237 l 1,13,-1
 621 237 l 1,14,-1
 621 140 l 1,15,-1
 524 140 l 1,12,-1
140 268 m 1,16,-1
 140 365 l 1,17,-1
 237 365 l 1,18,-1
 237 268 l 1,19,-1
 140 268 l 1,16,-1
396 268 m 1,20,-1
 396 365 l 1,21,-1
 493 365 l 1,22,-1
 493 268 l 1,23,-1
 396 268 l 1,20,-1
268 396 m 1,24,-1
 268 493 l 1,25,-1
 365 493 l 1,26,-1
 365 396 l 1,27,-1
 268 396 l 1,24,-1
140 524 m 1,28,-1
 140 621 l 1,29,-1
 237 621 l 1,30,-1
 237 524 l 1,31,-1
 140 524 l 1,28,-1
396 524 m 1,32,-1
 396 621 l 1,33,-1
 493 621 l 1,34,-1
 493 524 l 1,35,-1
 396 524 l 1,32,-1
12 652 m 1,36,-1
 12 749 l 1,37,-1
 109 749 l 1,38,-1
 109 652 l 1,39,-1
 12 652 l 1,36,-1
524 652 m 1,40,-1
 524 749 l 1,41,-1
 621 749 l 1,42,-1
 621 652 l 1,43,-1
 524 652 l 1,40,-1
12 780 m 1,44,-1
 12 877 l 1,45,-1
 109 877 l 1,46,-1
 109 780 l 1,47,-1
 12 780 l 1,44,-1
524 780 m 1,48,-1
 524 877 l 1,49,-1
 621 877 l 1,50,-1
 621 780 l 1,51,-1
 524 780 l 1,48,-1
EndSplineSet
Validated: 1
EndChar

StartChar: Y
Encoding: 89 89 60
Width: 767
Flags: W
LayerCount: 2
Fore
SplineSet
268 12 m 1,0,-1
 268 109 l 1,1,-1
 365 109 l 1,2,-1
 365 12 l 1,3,-1
 268 12 l 1,0,-1
268 140 m 1,4,-1
 268 237 l 1,5,-1
 365 237 l 1,6,-1
 365 140 l 1,7,-1
 268 140 l 1,4,-1
268 268 m 1,8,-1
 268 365 l 1,9,-1
 365 365 l 1,10,-1
 365 268 l 1,11,-1
 268 268 l 1,8,-1
140 396 m 1,12,-1
 140 493 l 1,13,-1
 237 493 l 1,14,-1
 237 396 l 1,15,-1
 140 396 l 1,12,-1
396 396 m 1,16,-1
 396 493 l 1,17,-1
 493 493 l 1,18,-1
 493 396 l 1,19,-1
 396 396 l 1,16,-1
12 524 m 1,20,-1
 12 621 l 1,21,-1
 109 621 l 1,22,-1
 109 524 l 1,23,-1
 12 524 l 1,20,-1
524 524 m 1,24,-1
 524 621 l 1,25,-1
 621 621 l 1,26,-1
 621 524 l 1,27,-1
 524 524 l 1,24,-1
12 652 m 1,28,-1
 12 749 l 1,29,-1
 109 749 l 1,30,-1
 109 652 l 1,31,-1
 12 652 l 1,28,-1
524 652 m 1,32,-1
 524 749 l 1,33,-1
 621 749 l 1,34,-1
 621 652 l 1,35,-1
 524 652 l 1,32,-1
12 780 m 1,36,-1
 12 877 l 1,37,-1
 109 877 l 1,38,-1
 109 780 l 1,39,-1
 12 780 l 1,36,-1
524 780 m 1,40,-1
 524 877 l 1,41,-1
 621 877 l 1,42,-1
 621 780 l 1,43,-1
 524 780 l 1,40,-1
EndSplineSet
Validated: 1
EndChar

StartChar: Z
Encoding: 90 90 61
Width: 767
Flags: W
LayerCount: 2
Fore
SplineSet
12 12 m 1,0,-1
 12 109 l 1,1,-1
 109 109 l 1,2,-1
 109 12 l 1,3,-1
 12 12 l 1,0,-1
140 12 m 1,4,-1
 140 109 l 1,5,-1
 237 109 l 1,6,-1
 237 12 l 1,7,-1
 140 12 l 1,4,-1
268 12 m 1,8,-1
 268 109 l 1,9,-1
 365 109 l 1,10,-1
 365 12 l 1,11,-1
 268 12 l 1,8,-1
396 12 m 1,12,-1
 396 109 l 1,13,-1
 493 109 l 1,14,-1
 493 12 l 1,15,-1
 396 12 l 1,12,-1
524 12 m 1,16,-1
 524 109 l 1,17,-1
 621 109 l 1,18,-1
 621 12 l 1,19,-1
 524 12 l 1,16,-1
12 140 m 1,20,-1
 12 237 l 1,21,-1
 109 237 l 1,22,-1
 109 140 l 1,23,-1
 12 140 l 1,20,-1
140 268 m 1,24,-1
 140 365 l 1,25,-1
 237 365 l 1,26,-1
 237 268 l 1,27,-1
 140 268 l 1,24,-1
268 396 m 1,28,-1
 268 493 l 1,29,-1
 365 493 l 1,30,-1
 365 396 l 1,31,-1
 268 396 l 1,28,-1
396 524 m 1,32,-1
 396 621 l 1,33,-1
 493 621 l 1,34,-1
 493 524 l 1,35,-1
 396 524 l 1,32,-1
524 652 m 1,36,-1
 524 749 l 1,37,-1
 621 749 l 1,38,-1
 621 652 l 1,39,-1
 524 652 l 1,36,-1
12 780 m 1,40,-1
 12 877 l 1,41,-1
 109 877 l 1,42,-1
 109 780 l 1,43,-1
 12 780 l 1,40,-1
140 780 m 1,44,-1
 140 877 l 1,45,-1
 237 877 l 1,46,-1
 237 780 l 1,47,-1
 140 780 l 1,44,-1
268 780 m 1,48,-1
 268 877 l 1,49,-1
 365 877 l 1,50,-1
 365 780 l 1,51,-1
 268 780 l 1,48,-1
396 780 m 1,52,-1
 396 877 l 1,53,-1
 493 877 l 1,54,-1
 493 780 l 1,55,-1
 396 780 l 1,52,-1
524 780 m 1,56,-1
 524 877 l 1,57,-1
 621 877 l 1,58,-1
 621 780 l 1,59,-1
 524 780 l 1,56,-1
EndSplineSet
Validated: 1
EndChar

StartChar: bracketleft
Encoding: 91 91 62
Width: 768
Flags: W
LayerCount: 2
Fore
SplineSet
140 12 m 1,0,-1
 140 109 l 1,1,-1
 237 109 l 1,2,-1
 237 12 l 1,3,-1
 140 12 l 1,0,-1
268 12 m 1,4,-1
 268 109 l 1,5,-1
 365 109 l 1,6,-1
 365 12 l 1,7,-1
 268 12 l 1,4,-1
396 12 m 1,8,-1
 396 109 l 1,9,-1
 493 109 l 1,10,-1
 493 12 l 1,11,-1
 396 12 l 1,8,-1
140 140 m 1,12,-1
 140 237 l 1,13,-1
 237 237 l 1,14,-1
 237 140 l 1,15,-1
 140 140 l 1,12,-1
140 268 m 1,16,-1
 140 365 l 1,17,-1
 237 365 l 1,18,-1
 237 268 l 1,19,-1
 140 268 l 1,16,-1
140 396 m 1,20,-1
 140 493 l 1,21,-1
 237 493 l 1,22,-1
 237 396 l 1,23,-1
 140 396 l 1,20,-1
140 524 m 1,24,-1
 140 621 l 1,25,-1
 237 621 l 1,26,-1
 237 524 l 1,27,-1
 140 524 l 1,24,-1
140 652 m 1,28,-1
 140 749 l 1,29,-1
 237 749 l 1,30,-1
 237 652 l 1,31,-1
 140 652 l 1,28,-1
140 780 m 1,32,-1
 140 877 l 1,33,-1
 237 877 l 1,34,-1
 237 780 l 1,35,-1
 140 780 l 1,32,-1
268 780 m 1,36,-1
 268 877 l 1,37,-1
 365 877 l 1,38,-1
 365 780 l 1,39,-1
 268 780 l 1,36,-1
396 780 m 1,40,-1
 396 877 l 1,41,-1
 493 877 l 1,42,-1
 493 780 l 1,43,-1
 396 780 l 1,40,-1
EndSplineSet
Validated: 1
EndChar

StartChar: backslash
Encoding: 92 92 63
Width: 767
Flags: W
LayerCount: 2
Fore
SplineSet
524 140 m 1,0,-1
 524 237 l 1,1,-1
 621 237 l 1,2,-1
 621 140 l 1,3,-1
 524 140 l 1,0,-1
396 268 m 1,4,-1
 396 365 l 1,5,-1
 493 365 l 1,6,-1
 493 268 l 1,7,-1
 396 268 l 1,4,-1
268 396 m 1,8,-1
 268 493 l 1,9,-1
 365 493 l 1,10,-1
 365 396 l 1,11,-1
 268 396 l 1,8,-1
140 524 m 1,12,-1
 140 621 l 1,13,-1
 237 621 l 1,14,-1
 237 524 l 1,15,-1
 140 524 l 1,12,-1
12 652 m 1,16,-1
 12 749 l 1,17,-1
 109 749 l 1,18,-1
 109 652 l 1,19,-1
 12 652 l 1,16,-1
EndSplineSet
Validated: 1
EndChar

StartChar: bracketright
Encoding: 93 93 64
Width: 768
Flags: W
LayerCount: 2
Fore
SplineSet
140 12 m 1,0,-1
 140 109 l 1,1,-1
 237 109 l 1,2,-1
 237 12 l 1,3,-1
 140 12 l 1,0,-1
268 12 m 1,4,-1
 268 109 l 1,5,-1
 365 109 l 1,6,-1
 365 12 l 1,7,-1
 268 12 l 1,4,-1
396 12 m 1,8,-1
 396 109 l 1,9,-1
 493 109 l 1,10,-1
 493 12 l 1,11,-1
 396 12 l 1,8,-1
396 140 m 1,12,-1
 396 237 l 1,13,-1
 493 237 l 1,14,-1
 493 140 l 1,15,-1
 396 140 l 1,12,-1
396 268 m 1,16,-1
 396 365 l 1,17,-1
 493 365 l 1,18,-1
 493 268 l 1,19,-1
 396 268 l 1,16,-1
396 396 m 1,20,-1
 396 493 l 1,21,-1
 493 493 l 1,22,-1
 493 396 l 1,23,-1
 396 396 l 1,20,-1
396 524 m 1,24,-1
 396 621 l 1,25,-1
 493 621 l 1,26,-1
 493 524 l 1,27,-1
 396 524 l 1,24,-1
396 652 m 1,28,-1
 396 749 l 1,29,-1
 493 749 l 1,30,-1
 493 652 l 1,31,-1
 396 652 l 1,28,-1
140 780 m 1,32,-1
 140 877 l 1,33,-1
 237 877 l 1,34,-1
 237 780 l 1,35,-1
 140 780 l 1,32,-1
268 780 m 1,36,-1
 268 877 l 1,37,-1
 365 877 l 1,38,-1
 365 780 l 1,39,-1
 268 780 l 1,36,-1
396 780 m 1,40,-1
 396 877 l 1,41,-1
 493 877 l 1,42,-1
 493 780 l 1,43,-1
 396 780 l 1,40,-1
EndSplineSet
Validated: 1
EndChar

StartChar: asciicircum
Encoding: 94 94 65
Width: 767
Flags: W
LayerCount: 2
Fore
SplineSet
12 524 m 1,0,-1
 12 621 l 1,1,-1
 109 621 l 1,2,-1
 109 524 l 1,3,-1
 12 524 l 1,0,-1
524 524 m 1,4,-1
 524 621 l 1,5,-1
 621 621 l 1,6,-1
 621 524 l 1,7,-1
 524 524 l 1,4,-1
140 652 m 1,8,-1
 140 749 l 1,9,-1
 237 749 l 1,10,-1
 237 652 l 1,11,-1
 140 652 l 1,8,-1
396 652 m 1,12,-1
 396 749 l 1,13,-1
 493 749 l 1,14,-1
 493 652 l 1,15,-1
 396 652 l 1,12,-1
268 780 m 1,16,-1
 268 877 l 1,17,-1
 365 877 l 1,18,-1
 365 780 l 1,19,-1
 268 780 l 1,16,-1
EndSplineSet
Validated: 1
EndChar

StartChar: underscore
Encoding: 95 95 66
Width: 767
Flags: W
LayerCount: 2
Fore
SplineSet
12 12 m 1,0,-1
 12 109 l 1,1,-1
 109 109 l 1,2,-1
 109 12 l 1,3,-1
 12 12 l 1,0,-1
140 12 m 1,4,-1
 140 109 l 1,5,-1
 237 109 l 1,6,-1
 237 12 l 1,7,-1
 140 12 l 1,4,-1
268 12 m 1,8,-1
 268 109 l 1,9,-1
 365 109 l 1,10,-1
 365 12 l 1,11,-1
 268 12 l 1,8,-1
396 12 m 1,12,-1
 396 109 l 1,13,-1
 493 109 l 1,14,-1
 493 12 l 1,15,-1
 396 12 l 1,12,-1
524 12 m 1,16,-1
 524 109 l 1,17,-1
 621 109 l 1,18,-1
 621 12 l 1,19,-1
 524 12 l 1,16,-1
EndSplineSet
Validated: 1
EndChar

StartChar: grave
Encoding: 96 96 67
Width: 768
Flags: W
LayerCount: 2
Fore
SplineSet
396 524 m 1,0,-1
 396 621 l 1,1,-1
 493 621 l 1,2,-1
 493 524 l 1,3,-1
 396 524 l 1,0,-1
268 652 m 1,4,-1
 268 749 l 1,5,-1
 365 749 l 1,6,-1
 365 652 l 1,7,-1
 268 652 l 1,4,-1
140 780 m 1,8,-1
 140 877 l 1,9,-1
 237 877 l 1,10,-1
 237 780 l 1,11,-1
 140 780 l 1,8,-1
EndSplineSet
Validated: 1
EndChar

StartChar: a
Encoding: 97 97 68
Width: 767
Flags: W
LayerCount: 2
Fore
SplineSet
140 12 m 1,0,-1
 140 109 l 1,1,-1
 237 109 l 1,2,-1
 237 12 l 1,3,-1
 140 12 l 1,0,-1
268 12 m 1,4,-1
 268 109 l 1,5,-1
 365 109 l 1,6,-1
 365 12 l 1,7,-1
 268 12 l 1,4,-1
396 12 m 1,8,-1
 396 109 l 1,9,-1
 493 109 l 1,10,-1
 493 12 l 1,11,-1
 396 12 l 1,8,-1
524 12 m 1,12,-1
 524 109 l 1,13,-1
 621 109 l 1,14,-1
 621 12 l 1,15,-1
 524 12 l 1,12,-1
12 140 m 1,16,-1
 12 237 l 1,17,-1
 109 237 l 1,18,-1
 109 140 l 1,19,-1
 12 140 l 1,16,-1
524 140 m 1,20,-1
 524 237 l 1,21,-1
 621 237 l 1,22,-1
 621 140 l 1,23,-1
 524 140 l 1,20,-1
140 268 m 1,24,-1
 140 365 l 1,25,-1
 237 365 l 1,26,-1
 237 268 l 1,27,-1
 140 268 l 1,24,-1
268 268 m 1,28,-1
 268 365 l 1,29,-1
 365 365 l 1,30,-1
 365 268 l 1,31,-1
 268 268 l 1,28,-1
396 268 m 1,32,-1
 396 365 l 1,33,-1
 493 365 l 1,34,-1
 493 268 l 1,35,-1
 396 268 l 1,32,-1
524 268 m 1,36,-1
 524 365 l 1,37,-1
 621 365 l 1,38,-1
 621 268 l 1,39,-1
 524 268 l 1,36,-1
524 396 m 1,40,-1
 524 493 l 1,41,-1
 621 493 l 1,42,-1
 621 396 l 1,43,-1
 524 396 l 1,40,-1
140 524 m 1,44,-1
 140 621 l 1,45,-1
 237 621 l 1,46,-1
 237 524 l 1,47,-1
 140 524 l 1,44,-1
268 524 m 1,48,-1
 268 621 l 1,49,-1
 365 621 l 1,50,-1
 365 524 l 1,51,-1
 268 524 l 1,48,-1
396 524 m 1,52,-1
 396 621 l 1,53,-1
 493 621 l 1,54,-1
 493 524 l 1,55,-1
 396 524 l 1,52,-1
EndSplineSet
Validated: 1
EndChar

StartChar: b
Encoding: 98 98 69
Width: 767
Flags: W
LayerCount: 2
Fore
SplineSet
12 12 m 1,0,-1
 12 109 l 1,1,-1
 109 109 l 1,2,-1
 109 12 l 1,3,-1
 12 12 l 1,0,-1
140 12 m 1,4,-1
 140 109 l 1,5,-1
 237 109 l 1,6,-1
 237 12 l 1,7,-1
 140 12 l 1,4,-1
268 12 m 1,8,-1
 268 109 l 1,9,-1
 365 109 l 1,10,-1
 365 12 l 1,11,-1
 268 12 l 1,8,-1
396 12 m 1,12,-1
 396 109 l 1,13,-1
 493 109 l 1,14,-1
 493 12 l 1,15,-1
 396 12 l 1,12,-1
12 140 m 1,16,-1
 12 237 l 1,17,-1
 109 237 l 1,18,-1
 109 140 l 1,19,-1
 12 140 l 1,16,-1
524 140 m 1,20,-1
 524 237 l 1,21,-1
 621 237 l 1,22,-1
 621 140 l 1,23,-1
 524 140 l 1,20,-1
12 268 m 1,24,-1
 12 365 l 1,25,-1
 109 365 l 1,26,-1
 109 268 l 1,27,-1
 12 268 l 1,24,-1
524 268 m 1,28,-1
 524 365 l 1,29,-1
 621 365 l 1,30,-1
 621 268 l 1,31,-1
 524 268 l 1,28,-1
12 396 m 1,32,-1
 12 493 l 1,33,-1
 109 493 l 1,34,-1
 109 396 l 1,35,-1
 12 396 l 1,32,-1
140 396 m 1,36,-1
 140 493 l 1,37,-1
 237 493 l 1,38,-1
 237 396 l 1,39,-1
 140 396 l 1,36,-1
524 396 m 1,40,-1
 524 493 l 1,41,-1
 621 493 l 1,42,-1
 621 396 l 1,43,-1
 524 396 l 1,40,-1
12 524 m 1,44,-1
 12 621 l 1,45,-1
 109 621 l 1,46,-1
 109 524 l 1,47,-1
 12 524 l 1,44,-1
268 524 m 1,48,-1
 268 621 l 1,49,-1
 365 621 l 1,50,-1
 365 524 l 1,51,-1
 268 524 l 1,48,-1
396 524 m 1,52,-1
 396 621 l 1,53,-1
 493 621 l 1,54,-1
 493 524 l 1,55,-1
 396 524 l 1,52,-1
12 652 m 1,56,-1
 12 749 l 1,57,-1
 109 749 l 1,58,-1
 109 652 l 1,59,-1
 12 652 l 1,56,-1
12 780 m 1,60,-1
 12 877 l 1,61,-1
 109 877 l 1,62,-1
 109 780 l 1,63,-1
 12 780 l 1,60,-1
EndSplineSet
Validated: 1
EndChar

StartChar: c
Encoding: 99 99 70
Width: 767
Flags: W
LayerCount: 2
Fore
SplineSet
140 12 m 1,0,-1
 140 109 l 1,1,-1
 237 109 l 1,2,-1
 237 12 l 1,3,-1
 140 12 l 1,0,-1
268 12 m 1,4,-1
 268 109 l 1,5,-1
 365 109 l 1,6,-1
 365 12 l 1,7,-1
 268 12 l 1,4,-1
396 12 m 1,8,-1
 396 109 l 1,9,-1
 493 109 l 1,10,-1
 493 12 l 1,11,-1
 396 12 l 1,8,-1
12 140 m 1,12,-1
 12 237 l 1,13,-1
 109 237 l 1,14,-1
 109 140 l 1,15,-1
 12 140 l 1,12,-1
524 140 m 1,16,-1
 524 237 l 1,17,-1
 621 237 l 1,18,-1
 621 140 l 1,19,-1
 524 140 l 1,16,-1
12 268 m 1,20,-1
 12 365 l 1,21,-1
 109 365 l 1,22,-1
 109 268 l 1,23,-1
 12 268 l 1,20,-1
12 396 m 1,24,-1
 12 493 l 1,25,-1
 109 493 l 1,26,-1
 109 396 l 1,27,-1
 12 396 l 1,24,-1
140 524 m 1,28,-1
 140 621 l 1,29,-1
 237 621 l 1,30,-1
 237 524 l 1,31,-1
 140 524 l 1,28,-1
268 524 m 1,32,-1
 268 621 l 1,33,-1
 365 621 l 1,34,-1
 365 524 l 1,35,-1
 268 524 l 1,32,-1
396 524 m 1,36,-1
 396 621 l 1,37,-1
 493 621 l 1,38,-1
 493 524 l 1,39,-1
 396 524 l 1,36,-1
EndSplineSet
Validated: 1
EndChar

StartChar: d
Encoding: 100 100 71
Width: 767
Flags: W
LayerCount: 2
Fore
SplineSet
140 12 m 1,0,-1
 140 109 l 1,1,-1
 237 109 l 1,2,-1
 237 12 l 1,3,-1
 140 12 l 1,0,-1
268 12 m 1,4,-1
 268 109 l 1,5,-1
 365 109 l 1,6,-1
 365 12 l 1,7,-1
 268 12 l 1,4,-1
396 12 m 1,8,-1
 396 109 l 1,9,-1
 493 109 l 1,10,-1
 493 12 l 1,11,-1
 396 12 l 1,8,-1
524 12 m 1,12,-1
 524 109 l 1,13,-1
 621 109 l 1,14,-1
 621 12 l 1,15,-1
 524 12 l 1,12,-1
12 140 m 1,16,-1
 12 237 l 1,17,-1
 109 237 l 1,18,-1
 109 140 l 1,19,-1
 12 140 l 1,16,-1
524 140 m 1,20,-1
 524 237 l 1,21,-1
 621 237 l 1,22,-1
 621 140 l 1,23,-1
 524 140 l 1,20,-1
12 268 m 1,24,-1
 12 365 l 1,25,-1
 109 365 l 1,26,-1
 109 268 l 1,27,-1
 12 268 l 1,24,-1
524 268 m 1,28,-1
 524 365 l 1,29,-1
 621 365 l 1,30,-1
 621 268 l 1,31,-1
 524 268 l 1,28,-1
12 396 m 1,32,-1
 12 493 l 1,33,-1
 109 493 l 1,34,-1
 109 396 l 1,35,-1
 12 396 l 1,32,-1
396 396 m 1,36,-1
 396 493 l 1,37,-1
 493 493 l 1,38,-1
 493 396 l 1,39,-1
 396 396 l 1,36,-1
524 396 m 1,40,-1
 524 493 l 1,41,-1
 621 493 l 1,42,-1
 621 396 l 1,43,-1
 524 396 l 1,40,-1
140 524 m 1,44,-1
 140 621 l 1,45,-1
 237 621 l 1,46,-1
 237 524 l 1,47,-1
 140 524 l 1,44,-1
268 524 m 1,48,-1
 268 621 l 1,49,-1
 365 621 l 1,50,-1
 365 524 l 1,51,-1
 268 524 l 1,48,-1
524 524 m 1,52,-1
 524 621 l 1,53,-1
 621 621 l 1,54,-1
 621 524 l 1,55,-1
 524 524 l 1,52,-1
524 652 m 1,56,-1
 524 749 l 1,57,-1
 621 749 l 1,58,-1
 621 652 l 1,59,-1
 524 652 l 1,56,-1
524 780 m 1,60,-1
 524 877 l 1,61,-1
 621 877 l 1,62,-1
 621 780 l 1,63,-1
 524 780 l 1,60,-1
EndSplineSet
Validated: 1
EndChar

StartChar: e
Encoding: 101 101 72
Width: 767
Flags: W
LayerCount: 2
Fore
SplineSet
140 12 m 1,0,-1
 140 109 l 1,1,-1
 237 109 l 1,2,-1
 237 12 l 1,3,-1
 140 12 l 1,0,-1
268 12 m 1,4,-1
 268 109 l 1,5,-1
 365 109 l 1,6,-1
 365 12 l 1,7,-1
 268 12 l 1,4,-1
396 12 m 1,8,-1
 396 109 l 1,9,-1
 493 109 l 1,10,-1
 493 12 l 1,11,-1
 396 12 l 1,8,-1
12 140 m 1,12,-1
 12 237 l 1,13,-1
 109 237 l 1,14,-1
 109 140 l 1,15,-1
 12 140 l 1,12,-1
12 268 m 1,16,-1
 12 365 l 1,17,-1
 109 365 l 1,18,-1
 109 268 l 1,19,-1
 12 268 l 1,16,-1
140 268 m 1,20,-1
 140 365 l 1,21,-1
 237 365 l 1,22,-1
 237 268 l 1,23,-1
 140 268 l 1,20,-1
268 268 m 1,24,-1
 268 365 l 1,25,-1
 365 365 l 1,26,-1
 365 268 l 1,27,-1
 268 268 l 1,24,-1
396 268 m 1,28,-1
 396 365 l 1,29,-1
 493 365 l 1,30,-1
 493 268 l 1,31,-1
 396 268 l 1,28,-1
524 268 m 1,32,-1
 524 365 l 1,33,-1
 621 365 l 1,34,-1
 621 268 l 1,35,-1
 524 268 l 1,32,-1
12 396 m 1,36,-1
 12 493 l 1,37,-1
 109 493 l 1,38,-1
 109 396 l 1,39,-1
 12 396 l 1,36,-1
524 396 m 1,40,-1
 524 493 l 1,41,-1
 621 493 l 1,42,-1
 621 396 l 1,43,-1
 524 396 l 1,40,-1
140 524 m 1,44,-1
 140 621 l 1,45,-1
 237 621 l 1,46,-1
 237 524 l 1,47,-1
 140 524 l 1,44,-1
268 524 m 1,48,-1
 268 621 l 1,49,-1
 365 621 l 1,50,-1
 365 524 l 1,51,-1
 268 524 l 1,48,-1
396 524 m 1,52,-1
 396 621 l 1,53,-1
 493 621 l 1,54,-1
 493 524 l 1,55,-1
 396 524 l 1,52,-1
EndSplineSet
Validated: 1
EndChar

StartChar: f
Encoding: 102 102 73
Width: 767
Flags: W
LayerCount: 2
Fore
SplineSet
140 12 m 1,0,-1
 140 109 l 1,1,-1
 237 109 l 1,2,-1
 237 12 l 1,3,-1
 140 12 l 1,0,-1
140 140 m 1,4,-1
 140 237 l 1,5,-1
 237 237 l 1,6,-1
 237 140 l 1,7,-1
 140 140 l 1,4,-1
140 268 m 1,8,-1
 140 365 l 1,9,-1
 237 365 l 1,10,-1
 237 268 l 1,11,-1
 140 268 l 1,8,-1
12 396 m 1,12,-1
 12 493 l 1,13,-1
 109 493 l 1,14,-1
 109 396 l 1,15,-1
 12 396 l 1,12,-1
140 396 m 1,16,-1
 140 493 l 1,17,-1
 237 493 l 1,18,-1
 237 396 l 1,19,-1
 140 396 l 1,16,-1
268 396 m 1,20,-1
 268 493 l 1,21,-1
 365 493 l 1,22,-1
 365 396 l 1,23,-1
 268 396 l 1,20,-1
140 524 m 1,24,-1
 140 621 l 1,25,-1
 237 621 l 1,26,-1
 237 524 l 1,27,-1
 140 524 l 1,24,-1
140 652 m 1,28,-1
 140 749 l 1,29,-1
 237 749 l 1,30,-1
 237 652 l 1,31,-1
 140 652 l 1,28,-1
524 652 m 1,32,-1
 524 749 l 1,33,-1
 621 749 l 1,34,-1
 621 652 l 1,35,-1
 524 652 l 1,32,-1
268 780 m 1,36,-1
 268 877 l 1,37,-1
 365 877 l 1,38,-1
 365 780 l 1,39,-1
 268 780 l 1,36,-1
396 780 m 1,40,-1
 396 877 l 1,41,-1
 493 877 l 1,42,-1
 493 780 l 1,43,-1
 396 780 l 1,40,-1
EndSplineSet
Validated: 1
EndChar

StartChar: g
Encoding: 103 103 74
Width: 767
Flags: W
LayerCount: 2
Fore
SplineSet
140 12 m 1,0,-1
 140 109 l 1,1,-1
 237 109 l 1,2,-1
 237 12 l 1,3,-1
 140 12 l 1,0,-1
268 12 m 1,4,-1
 268 109 l 1,5,-1
 365 109 l 1,6,-1
 365 12 l 1,7,-1
 268 12 l 1,4,-1
396 12 m 1,8,-1
 396 109 l 1,9,-1
 493 109 l 1,10,-1
 493 12 l 1,11,-1
 396 12 l 1,8,-1
524 140 m 1,12,-1
 524 237 l 1,13,-1
 621 237 l 1,14,-1
 621 140 l 1,15,-1
 524 140 l 1,12,-1
140 268 m 1,16,-1
 140 365 l 1,17,-1
 237 365 l 1,18,-1
 237 268 l 1,19,-1
 140 268 l 1,16,-1
268 268 m 1,20,-1
 268 365 l 1,21,-1
 365 365 l 1,22,-1
 365 268 l 1,23,-1
 268 268 l 1,20,-1
396 268 m 1,24,-1
 396 365 l 1,25,-1
 493 365 l 1,26,-1
 493 268 l 1,27,-1
 396 268 l 1,24,-1
524 268 m 1,28,-1
 524 365 l 1,29,-1
 621 365 l 1,30,-1
 621 268 l 1,31,-1
 524 268 l 1,28,-1
12 396 m 1,32,-1
 12 493 l 1,33,-1
 109 493 l 1,34,-1
 109 396 l 1,35,-1
 12 396 l 1,32,-1
524 396 m 1,36,-1
 524 493 l 1,37,-1
 621 493 l 1,38,-1
 621 396 l 1,39,-1
 524 396 l 1,36,-1
140 524 m 1,40,-1
 140 621 l 1,41,-1
 237 621 l 1,42,-1
 237 524 l 1,43,-1
 140 524 l 1,40,-1
268 524 m 1,44,-1
 268 621 l 1,45,-1
 365 621 l 1,46,-1
 365 524 l 1,47,-1
 268 524 l 1,44,-1
396 524 m 1,48,-1
 396 621 l 1,49,-1
 493 621 l 1,50,-1
 493 524 l 1,51,-1
 396 524 l 1,48,-1
524 524 m 1,52,-1
 524 621 l 1,53,-1
 621 621 l 1,54,-1
 621 524 l 1,55,-1
 524 524 l 1,52,-1
EndSplineSet
Validated: 1
EndChar

StartChar: h
Encoding: 104 104 75
Width: 767
Flags: W
LayerCount: 2
Fore
SplineSet
12 12 m 1,0,-1
 12 109 l 1,1,-1
 109 109 l 1,2,-1
 109 12 l 1,3,-1
 12 12 l 1,0,-1
524 12 m 1,4,-1
 524 109 l 1,5,-1
 621 109 l 1,6,-1
 621 12 l 1,7,-1
 524 12 l 1,4,-1
12 140 m 1,8,-1
 12 237 l 1,9,-1
 109 237 l 1,10,-1
 109 140 l 1,11,-1
 12 140 l 1,8,-1
524 140 m 1,12,-1
 524 237 l 1,13,-1
 621 237 l 1,14,-1
 621 140 l 1,15,-1
 524 140 l 1,12,-1
12 268 m 1,16,-1
 12 365 l 1,17,-1
 109 365 l 1,18,-1
 109 268 l 1,19,-1
 12 268 l 1,16,-1
524 268 m 1,20,-1
 524 365 l 1,21,-1
 621 365 l 1,22,-1
 621 268 l 1,23,-1
 524 268 l 1,20,-1
12 396 m 1,24,-1
 12 493 l 1,25,-1
 109 493 l 1,26,-1
 109 396 l 1,27,-1
 12 396 l 1,24,-1
140 396 m 1,28,-1
 140 493 l 1,29,-1
 237 493 l 1,30,-1
 237 396 l 1,31,-1
 140 396 l 1,28,-1
524 396 m 1,32,-1
 524 493 l 1,33,-1
 621 493 l 1,34,-1
 621 396 l 1,35,-1
 524 396 l 1,32,-1
12 524 m 1,36,-1
 12 621 l 1,37,-1
 109 621 l 1,38,-1
 109 524 l 1,39,-1
 12 524 l 1,36,-1
268 524 m 1,40,-1
 268 621 l 1,41,-1
 365 621 l 1,42,-1
 365 524 l 1,43,-1
 268 524 l 1,40,-1
396 524 m 1,44,-1
 396 621 l 1,45,-1
 493 621 l 1,46,-1
 493 524 l 1,47,-1
 396 524 l 1,44,-1
12 652 m 1,48,-1
 12 749 l 1,49,-1
 109 749 l 1,50,-1
 109 652 l 1,51,-1
 12 652 l 1,48,-1
12 780 m 1,52,-1
 12 877 l 1,53,-1
 109 877 l 1,54,-1
 109 780 l 1,55,-1
 12 780 l 1,52,-1
EndSplineSet
Validated: 1
EndChar

StartChar: i
Encoding: 105 105 76
Width: 768
Flags: W
LayerCount: 2
Fore
SplineSet
140 12 m 1,0,-1
 140 109 l 1,1,-1
 237 109 l 1,2,-1
 237 12 l 1,3,-1
 140 12 l 1,0,-1
268 12 m 1,4,-1
 268 109 l 1,5,-1
 365 109 l 1,6,-1
 365 12 l 1,7,-1
 268 12 l 1,4,-1
396 12 m 1,8,-1
 396 109 l 1,9,-1
 493 109 l 1,10,-1
 493 12 l 1,11,-1
 396 12 l 1,8,-1
268 140 m 1,12,-1
 268 237 l 1,13,-1
 365 237 l 1,14,-1
 365 140 l 1,15,-1
 268 140 l 1,12,-1
268 268 m 1,16,-1
 268 365 l 1,17,-1
 365 365 l 1,18,-1
 365 268 l 1,19,-1
 268 268 l 1,16,-1
140 396 m 1,20,-1
 140 493 l 1,21,-1
 237 493 l 1,22,-1
 237 396 l 1,23,-1
 140 396 l 1,20,-1
268 396 m 1,24,-1
 268 493 l 1,25,-1
 365 493 l 1,26,-1
 365 396 l 1,27,-1
 268 396 l 1,24,-1
268 524 m 1,28,-1
 268 621 l 1,29,-1
 365 621 l 1,30,-1
 365 524 l 1,31,-1
 268 524 l 1,28,-1
268 780 m 1,32,-1
 268 877 l 1,33,-1
 365 877 l 1,34,-1
 365 780 l 1,35,-1
 268 780 l 1,32,-1
EndSplineSet
Validated: 1
EndChar

StartChar: j
Encoding: 106 106 77
Width: 767
Flags: W
LayerCount: 2
Fore
SplineSet
140 12 m 1,0,-1
 140 109 l 1,1,-1
 237 109 l 1,2,-1
 237 12 l 1,3,-1
 140 12 l 1,0,-1
268 12 m 1,4,-1
 268 109 l 1,5,-1
 365 109 l 1,6,-1
 365 12 l 1,7,-1
 268 12 l 1,4,-1
12 140 m 1,8,-1
 12 237 l 1,9,-1
 109 237 l 1,10,-1
 109 140 l 1,11,-1
 12 140 l 1,8,-1
396 140 m 1,12,-1
 396 237 l 1,13,-1
 493 237 l 1,14,-1
 493 140 l 1,15,-1
 396 140 l 1,12,-1
396 268 m 1,16,-1
 396 365 l 1,17,-1
 493 365 l 1,18,-1
 493 268 l 1,19,-1
 396 268 l 1,16,-1
396 396 m 1,20,-1
 396 493 l 1,21,-1
 493 493 l 1,22,-1
 493 396 l 1,23,-1
 396 396 l 1,20,-1
268 524 m 1,24,-1
 268 621 l 1,25,-1
 365 621 l 1,26,-1
 365 524 l 1,27,-1
 268 524 l 1,24,-1
396 524 m 1,28,-1
 396 621 l 1,29,-1
 493 621 l 1,30,-1
 493 524 l 1,31,-1
 396 524 l 1,28,-1
396 780 m 1,32,-1
 396 877 l 1,33,-1
 493 877 l 1,34,-1
 493 780 l 1,35,-1
 396 780 l 1,32,-1
EndSplineSet
Validated: 1
EndChar

StartChar: k
Encoding: 107 107 78
Width: 767
Flags: W
LayerCount: 2
Fore
SplineSet
12 12 m 1,0,-1
 12 109 l 1,1,-1
 109 109 l 1,2,-1
 109 12 l 1,3,-1
 12 12 l 1,0,-1
396 12 m 1,4,-1
 396 109 l 1,5,-1
 493 109 l 1,6,-1
 493 12 l 1,7,-1
 396 12 l 1,4,-1
12 140 m 1,8,-1
 12 237 l 1,9,-1
 109 237 l 1,10,-1
 109 140 l 1,11,-1
 12 140 l 1,8,-1
268 140 m 1,12,-1
 268 237 l 1,13,-1
 365 237 l 1,14,-1
 365 140 l 1,15,-1
 268 140 l 1,12,-1
12 268 m 1,16,-1
 12 365 l 1,17,-1
 109 365 l 1,18,-1
 109 268 l 1,19,-1
 12 268 l 1,16,-1
140 268 m 1,20,-1
 140 365 l 1,21,-1
 237 365 l 1,22,-1
 237 268 l 1,23,-1
 140 268 l 1,20,-1
12 396 m 1,24,-1
 12 493 l 1,25,-1
 109 493 l 1,26,-1
 109 396 l 1,27,-1
 12 396 l 1,24,-1
268 396 m 1,28,-1
 268 493 l 1,29,-1
 365 493 l 1,30,-1
 365 396 l 1,31,-1
 268 396 l 1,28,-1
12 524 m 1,32,-1
 12 621 l 1,33,-1
 109 621 l 1,34,-1
 109 524 l 1,35,-1
 12 524 l 1,32,-1
396 524 m 1,36,-1
 396 621 l 1,37,-1
 493 621 l 1,38,-1
 493 524 l 1,39,-1
 396 524 l 1,36,-1
12 652 m 1,40,-1
 12 749 l 1,41,-1
 109 749 l 1,42,-1
 109 652 l 1,43,-1
 12 652 l 1,40,-1
12 780 m 1,44,-1
 12 877 l 1,45,-1
 109 877 l 1,46,-1
 109 780 l 1,47,-1
 12 780 l 1,44,-1
EndSplineSet
Validated: 1
EndChar

StartChar: l
Encoding: 108 108 79
Width: 768
Flags: W
LayerCount: 2
Fore
SplineSet
140 12 m 1,0,-1
 140 109 l 1,1,-1
 237 109 l 1,2,-1
 237 12 l 1,3,-1
 140 12 l 1,0,-1
268 12 m 1,4,-1
 268 109 l 1,5,-1
 365 109 l 1,6,-1
 365 12 l 1,7,-1
 268 12 l 1,4,-1
396 12 m 1,8,-1
 396 109 l 1,9,-1
 493 109 l 1,10,-1
 493 12 l 1,11,-1
 396 12 l 1,8,-1
268 140 m 1,12,-1
 268 237 l 1,13,-1
 365 237 l 1,14,-1
 365 140 l 1,15,-1
 268 140 l 1,12,-1
268 268 m 1,16,-1
 268 365 l 1,17,-1
 365 365 l 1,18,-1
 365 268 l 1,19,-1
 268 268 l 1,16,-1
268 396 m 1,20,-1
 268 493 l 1,21,-1
 365 493 l 1,22,-1
 365 396 l 1,23,-1
 268 396 l 1,20,-1
268 524 m 1,24,-1
 268 621 l 1,25,-1
 365 621 l 1,26,-1
 365 524 l 1,27,-1
 268 524 l 1,24,-1
268 652 m 1,28,-1
 268 749 l 1,29,-1
 365 749 l 1,30,-1
 365 652 l 1,31,-1
 268 652 l 1,28,-1
140 780 m 1,32,-1
 140 877 l 1,33,-1
 237 877 l 1,34,-1
 237 780 l 1,35,-1
 140 780 l 1,32,-1
268 780 m 1,36,-1
 268 877 l 1,37,-1
 365 877 l 1,38,-1
 365 780 l 1,39,-1
 268 780 l 1,36,-1
EndSplineSet
Validated: 1
EndChar

StartChar: m
Encoding: 109 109 80
Width: 767
Flags: W
LayerCount: 2
Fore
SplineSet
12 12 m 1,0,-1
 12 109 l 1,1,-1
 109 109 l 1,2,-1
 109 12 l 1,3,-1
 12 12 l 1,0,-1
268 12 m 1,4,-1
 268 109 l 1,5,-1
 365 109 l 1,6,-1
 365 12 l 1,7,-1
 268 12 l 1,4,-1
524 12 m 1,8,-1
 524 109 l 1,9,-1
 621 109 l 1,10,-1
 621 12 l 1,11,-1
 524 12 l 1,8,-1
12 140 m 1,12,-1
 12 237 l 1,13,-1
 109 237 l 1,14,-1
 109 140 l 1,15,-1
 12 140 l 1,12,-1
268 140 m 1,16,-1
 268 237 l 1,17,-1
 365 237 l 1,18,-1
 365 140 l 1,19,-1
 268 140 l 1,16,-1
524 140 m 1,20,-1
 524 237 l 1,21,-1
 621 237 l 1,22,-1
 621 140 l 1,23,-1
 524 140 l 1,20,-1
12 268 m 1,24,-1
 12 365 l 1,25,-1
 109 365 l 1,26,-1
 109 268 l 1,27,-1
 12 268 l 1,24,-1
268 268 m 1,28,-1
 268 365 l 1,29,-1
 365 365 l 1,30,-1
 365 268 l 1,31,-1
 268 268 l 1,28,-1
524 268 m 1,32,-1
 524 365 l 1,33,-1
 621 365 l 1,34,-1
 621 268 l 1,35,-1
 524 268 l 1,32,-1
12 396 m 1,36,-1
 12 493 l 1,37,-1
 109 493 l 1,38,-1
 109 396 l 1,39,-1
 12 396 l 1,36,-1
268 396 m 1,40,-1
 268 493 l 1,41,-1
 365 493 l 1,42,-1
 365 396 l 1,43,-1
 268 396 l 1,40,-1
524 396 m 1,44,-1
 524 493 l 1,45,-1
 621 493 l 1,46,-1
 621 396 l 1,47,-1
 524 396 l 1,44,-1
12 524 m 1,48,-1
 12 621 l 1,49,-1
 109 621 l 1,50,-1
 109 524 l 1,51,-1
 12 524 l 1,48,-1
140 524 m 1,52,-1
 140 621 l 1,53,-1
 237 621 l 1,54,-1
 237 524 l 1,55,-1
 140 524 l 1,52,-1
396 524 m 1,56,-1
 396 621 l 1,57,-1
 493 621 l 1,58,-1
 493 524 l 1,59,-1
 396 524 l 1,56,-1
EndSplineSet
Validated: 1
EndChar

StartChar: n
Encoding: 110 110 81
Width: 767
Flags: W
LayerCount: 2
Fore
SplineSet
12 12 m 1,0,-1
 12 109 l 1,1,-1
 109 109 l 1,2,-1
 109 12 l 1,3,-1
 12 12 l 1,0,-1
524 12 m 1,4,-1
 524 109 l 1,5,-1
 621 109 l 1,6,-1
 621 12 l 1,7,-1
 524 12 l 1,4,-1
12 140 m 1,8,-1
 12 237 l 1,9,-1
 109 237 l 1,10,-1
 109 140 l 1,11,-1
 12 140 l 1,8,-1
524 140 m 1,12,-1
 524 237 l 1,13,-1
 621 237 l 1,14,-1
 621 140 l 1,15,-1
 524 140 l 1,12,-1
12 268 m 1,16,-1
 12 365 l 1,17,-1
 109 365 l 1,18,-1
 109 268 l 1,19,-1
 12 268 l 1,16,-1
524 268 m 1,20,-1
 524 365 l 1,21,-1
 621 365 l 1,22,-1
 621 268 l 1,23,-1
 524 268 l 1,20,-1
12 396 m 1,24,-1
 12 493 l 1,25,-1
 109 493 l 1,26,-1
 109 396 l 1,27,-1
 12 396 l 1,24,-1
140 396 m 1,28,-1
 140 493 l 1,29,-1
 237 493 l 1,30,-1
 237 396 l 1,31,-1
 140 396 l 1,28,-1
524 396 m 1,32,-1
 524 493 l 1,33,-1
 621 493 l 1,34,-1
 621 396 l 1,35,-1
 524 396 l 1,32,-1
12 524 m 1,36,-1
 12 621 l 1,37,-1
 109 621 l 1,38,-1
 109 524 l 1,39,-1
 12 524 l 1,36,-1
268 524 m 1,40,-1
 268 621 l 1,41,-1
 365 621 l 1,42,-1
 365 524 l 1,43,-1
 268 524 l 1,40,-1
396 524 m 1,44,-1
 396 621 l 1,45,-1
 493 621 l 1,46,-1
 493 524 l 1,47,-1
 396 524 l 1,44,-1
EndSplineSet
Validated: 1
EndChar

StartChar: o
Encoding: 111 111 82
Width: 767
Flags: W
LayerCount: 2
Fore
SplineSet
140 12 m 1,0,-1
 140 109 l 1,1,-1
 237 109 l 1,2,-1
 237 12 l 1,3,-1
 140 12 l 1,0,-1
268 12 m 1,4,-1
 268 109 l 1,5,-1
 365 109 l 1,6,-1
 365 12 l 1,7,-1
 268 12 l 1,4,-1
396 12 m 1,8,-1
 396 109 l 1,9,-1
 493 109 l 1,10,-1
 493 12 l 1,11,-1
 396 12 l 1,8,-1
12 140 m 1,12,-1
 12 237 l 1,13,-1
 109 237 l 1,14,-1
 109 140 l 1,15,-1
 12 140 l 1,12,-1
524 140 m 1,16,-1
 524 237 l 1,17,-1
 621 237 l 1,18,-1
 621 140 l 1,19,-1
 524 140 l 1,16,-1
12 268 m 1,20,-1
 12 365 l 1,21,-1
 109 365 l 1,22,-1
 109 268 l 1,23,-1
 12 268 l 1,20,-1
524 268 m 1,24,-1
 524 365 l 1,25,-1
 621 365 l 1,26,-1
 621 268 l 1,27,-1
 524 268 l 1,24,-1
12 396 m 1,28,-1
 12 493 l 1,29,-1
 109 493 l 1,30,-1
 109 396 l 1,31,-1
 12 396 l 1,28,-1
524 396 m 1,32,-1
 524 493 l 1,33,-1
 621 493 l 1,34,-1
 621 396 l 1,35,-1
 524 396 l 1,32,-1
140 524 m 1,36,-1
 140 621 l 1,37,-1
 237 621 l 1,38,-1
 237 524 l 1,39,-1
 140 524 l 1,36,-1
268 524 m 1,40,-1
 268 621 l 1,41,-1
 365 621 l 1,42,-1
 365 524 l 1,43,-1
 268 524 l 1,40,-1
396 524 m 1,44,-1
 396 621 l 1,45,-1
 493 621 l 1,46,-1
 493 524 l 1,47,-1
 396 524 l 1,44,-1
EndSplineSet
Validated: 1
EndChar

StartChar: p
Encoding: 112 112 83
Width: 767
Flags: W
LayerCount: 2
Fore
SplineSet
12 12 m 1,0,-1
 12 109 l 1,1,-1
 109 109 l 1,2,-1
 109 12 l 1,3,-1
 12 12 l 1,0,-1
12 140 m 1,4,-1
 12 237 l 1,5,-1
 109 237 l 1,6,-1
 109 140 l 1,7,-1
 12 140 l 1,4,-1
12 268 m 1,8,-1
 12 365 l 1,9,-1
 109 365 l 1,10,-1
 109 268 l 1,11,-1
 12 268 l 1,8,-1
140 268 m 1,12,-1
 140 365 l 1,13,-1
 237 365 l 1,14,-1
 237 268 l 1,15,-1
 140 268 l 1,12,-1
268 268 m 1,16,-1
 268 365 l 1,17,-1
 365 365 l 1,18,-1
 365 268 l 1,19,-1
 268 268 l 1,16,-1
396 268 m 1,20,-1
 396 365 l 1,21,-1
 493 365 l 1,22,-1
 493 268 l 1,23,-1
 396 268 l 1,20,-1
12 396 m 1,24,-1
 12 493 l 1,25,-1
 109 493 l 1,26,-1
 109 396 l 1,27,-1
 12 396 l 1,24,-1
524 396 m 1,28,-1
 524 493 l 1,29,-1
 621 493 l 1,30,-1
 621 396 l 1,31,-1
 524 396 l 1,28,-1
12 524 m 1,32,-1
 12 621 l 1,33,-1
 109 621 l 1,34,-1
 109 524 l 1,35,-1
 12 524 l 1,32,-1
140 524 m 1,36,-1
 140 621 l 1,37,-1
 237 621 l 1,38,-1
 237 524 l 1,39,-1
 140 524 l 1,36,-1
268 524 m 1,40,-1
 268 621 l 1,41,-1
 365 621 l 1,42,-1
 365 524 l 1,43,-1
 268 524 l 1,40,-1
396 524 m 1,44,-1
 396 621 l 1,45,-1
 493 621 l 1,46,-1
 493 524 l 1,47,-1
 396 524 l 1,44,-1
EndSplineSet
Validated: 1
EndChar

StartChar: q
Encoding: 113 113 84
Width: 767
Flags: W
LayerCount: 2
Fore
SplineSet
524 12 m 1,0,-1
 524 109 l 1,1,-1
 621 109 l 1,2,-1
 621 12 l 1,3,-1
 524 12 l 1,0,-1
524 140 m 1,4,-1
 524 237 l 1,5,-1
 621 237 l 1,6,-1
 621 140 l 1,7,-1
 524 140 l 1,4,-1
140 268 m 1,8,-1
 140 365 l 1,9,-1
 237 365 l 1,10,-1
 237 268 l 1,11,-1
 140 268 l 1,8,-1
268 268 m 1,12,-1
 268 365 l 1,13,-1
 365 365 l 1,14,-1
 365 268 l 1,15,-1
 268 268 l 1,12,-1
396 268 m 1,16,-1
 396 365 l 1,17,-1
 493 365 l 1,18,-1
 493 268 l 1,19,-1
 396 268 l 1,16,-1
524 268 m 1,20,-1
 524 365 l 1,21,-1
 621 365 l 1,22,-1
 621 268 l 1,23,-1
 524 268 l 1,20,-1
12 396 m 1,24,-1
 12 493 l 1,25,-1
 109 493 l 1,26,-1
 109 396 l 1,27,-1
 12 396 l 1,24,-1
396 396 m 1,28,-1
 396 493 l 1,29,-1
 493 493 l 1,30,-1
 493 396 l 1,31,-1
 396 396 l 1,28,-1
524 396 m 1,32,-1
 524 493 l 1,33,-1
 621 493 l 1,34,-1
 621 396 l 1,35,-1
 524 396 l 1,32,-1
140 524 m 1,36,-1
 140 621 l 1,37,-1
 237 621 l 1,38,-1
 237 524 l 1,39,-1
 140 524 l 1,36,-1
268 524 m 1,40,-1
 268 621 l 1,41,-1
 365 621 l 1,42,-1
 365 524 l 1,43,-1
 268 524 l 1,40,-1
524 524 m 1,44,-1
 524 621 l 1,45,-1
 621 621 l 1,46,-1
 621 524 l 1,47,-1
 524 524 l 1,44,-1
EndSplineSet
Validated: 1
EndChar

StartChar: r
Encoding: 114 114 85
Width: 767
Flags: W
LayerCount: 2
Fore
SplineSet
560 -79 m 1,0,-1
 560 -55 l 1,1,-1
 584 -55 l 1,2,-1
 584 -79 l 1,3,-1
 560 -79 l 1,0,-1
12 12 m 1,4,-1
 12 109 l 1,5,-1
 109 109 l 1,6,-1
 109 12 l 1,7,-1
 12 12 l 1,4,-1
12 140 m 1,8,-1
 12 237 l 1,9,-1
 109 237 l 1,10,-1
 109 140 l 1,11,-1
 12 140 l 1,8,-1
12 268 m 1,12,-1
 12 365 l 1,13,-1
 109 365 l 1,14,-1
 109 268 l 1,15,-1
 12 268 l 1,12,-1
12 396 m 1,16,-1
 12 493 l 1,17,-1
 109 493 l 1,18,-1
 109 396 l 1,19,-1
 12 396 l 1,16,-1
140 396 m 1,20,-1
 140 493 l 1,21,-1
 237 493 l 1,22,-1
 237 396 l 1,23,-1
 140 396 l 1,20,-1
524 396 m 1,24,-1
 524 493 l 1,25,-1
 621 493 l 1,26,-1
 621 396 l 1,27,-1
 524 396 l 1,24,-1
12 524 m 1,28,-1
 12 621 l 1,29,-1
 109 621 l 1,30,-1
 109 524 l 1,31,-1
 12 524 l 1,28,-1
268 524 m 1,32,-1
 268 621 l 1,33,-1
 365 621 l 1,34,-1
 365 524 l 1,35,-1
 268 524 l 1,32,-1
396 524 m 1,36,-1
 396 621 l 1,37,-1
 493 621 l 1,38,-1
 493 524 l 1,39,-1
 396 524 l 1,36,-1
EndSplineSet
Validated: 1
EndChar

StartChar: s
Encoding: 115 115 86
Width: 767
Flags: W
LayerCount: 2
Fore
SplineSet
12 12 m 1,0,-1
 12 109 l 1,1,-1
 109 109 l 1,2,-1
 109 12 l 1,3,-1
 12 12 l 1,0,-1
140 12 m 1,4,-1
 140 109 l 1,5,-1
 237 109 l 1,6,-1
 237 12 l 1,7,-1
 140 12 l 1,4,-1
268 12 m 1,8,-1
 268 109 l 1,9,-1
 365 109 l 1,10,-1
 365 12 l 1,11,-1
 268 12 l 1,8,-1
396 12 m 1,12,-1
 396 109 l 1,13,-1
 493 109 l 1,14,-1
 493 12 l 1,15,-1
 396 12 l 1,12,-1
524 140 m 1,16,-1
 524 237 l 1,17,-1
 621 237 l 1,18,-1
 621 140 l 1,19,-1
 524 140 l 1,16,-1
140 268 m 1,20,-1
 140 365 l 1,21,-1
 237 365 l 1,22,-1
 237 268 l 1,23,-1
 140 268 l 1,20,-1
268 268 m 1,24,-1
 268 365 l 1,25,-1
 365 365 l 1,26,-1
 365 268 l 1,27,-1
 268 268 l 1,24,-1
396 268 m 1,28,-1
 396 365 l 1,29,-1
 493 365 l 1,30,-1
 493 268 l 1,31,-1
 396 268 l 1,28,-1
12 396 m 1,32,-1
 12 493 l 1,33,-1
 109 493 l 1,34,-1
 109 396 l 1,35,-1
 12 396 l 1,32,-1
140 524 m 1,36,-1
 140 621 l 1,37,-1
 237 621 l 1,38,-1
 237 524 l 1,39,-1
 140 524 l 1,36,-1
268 524 m 1,40,-1
 268 621 l 1,41,-1
 365 621 l 1,42,-1
 365 524 l 1,43,-1
 268 524 l 1,40,-1
396 524 m 1,44,-1
 396 621 l 1,45,-1
 493 621 l 1,46,-1
 493 524 l 1,47,-1
 396 524 l 1,44,-1
EndSplineSet
Validated: 1
EndChar

StartChar: t
Encoding: 116 116 87
Width: 767
Flags: W
LayerCount: 2
Fore
SplineSet
268 12 m 1,0,-1
 268 109 l 1,1,-1
 365 109 l 1,2,-1
 365 12 l 1,3,-1
 268 12 l 1,0,-1
396 12 m 1,4,-1
 396 109 l 1,5,-1
 493 109 l 1,6,-1
 493 12 l 1,7,-1
 396 12 l 1,4,-1
140 140 m 1,8,-1
 140 237 l 1,9,-1
 237 237 l 1,10,-1
 237 140 l 1,11,-1
 140 140 l 1,8,-1
524 140 m 1,12,-1
 524 237 l 1,13,-1
 621 237 l 1,14,-1
 621 140 l 1,15,-1
 524 140 l 1,12,-1
140 268 m 1,16,-1
 140 365 l 1,17,-1
 237 365 l 1,18,-1
 237 268 l 1,19,-1
 140 268 l 1,16,-1
140 396 m 1,20,-1
 140 493 l 1,21,-1
 237 493 l 1,22,-1
 237 396 l 1,23,-1
 140 396 l 1,20,-1
12 524 m 1,24,-1
 12 621 l 1,25,-1
 109 621 l 1,26,-1
 109 524 l 1,27,-1
 12 524 l 1,24,-1
140 524 m 1,28,-1
 140 621 l 1,29,-1
 237 621 l 1,30,-1
 237 524 l 1,31,-1
 140 524 l 1,28,-1
268 524 m 1,32,-1
 268 621 l 1,33,-1
 365 621 l 1,34,-1
 365 524 l 1,35,-1
 268 524 l 1,32,-1
140 652 m 1,36,-1
 140 749 l 1,37,-1
 237 749 l 1,38,-1
 237 652 l 1,39,-1
 140 652 l 1,36,-1
140 780 m 1,40,-1
 140 877 l 1,41,-1
 237 877 l 1,42,-1
 237 780 l 1,43,-1
 140 780 l 1,40,-1
EndSplineSet
Validated: 1
EndChar

StartChar: u
Encoding: 117 117 88
Width: 767
Flags: W
LayerCount: 2
Fore
SplineSet
140 12 m 1,0,-1
 140 109 l 1,1,-1
 237 109 l 1,2,-1
 237 12 l 1,3,-1
 140 12 l 1,0,-1
268 12 m 1,4,-1
 268 109 l 1,5,-1
 365 109 l 1,6,-1
 365 12 l 1,7,-1
 268 12 l 1,4,-1
524 12 m 1,8,-1
 524 109 l 1,9,-1
 621 109 l 1,10,-1
 621 12 l 1,11,-1
 524 12 l 1,8,-1
12 140 m 1,12,-1
 12 237 l 1,13,-1
 109 237 l 1,14,-1
 109 140 l 1,15,-1
 12 140 l 1,12,-1
396 140 m 1,16,-1
 396 237 l 1,17,-1
 493 237 l 1,18,-1
 493 140 l 1,19,-1
 396 140 l 1,16,-1
524 140 m 1,20,-1
 524 237 l 1,21,-1
 621 237 l 1,22,-1
 621 140 l 1,23,-1
 524 140 l 1,20,-1
12 268 m 1,24,-1
 12 365 l 1,25,-1
 109 365 l 1,26,-1
 109 268 l 1,27,-1
 12 268 l 1,24,-1
524 268 m 1,28,-1
 524 365 l 1,29,-1
 621 365 l 1,30,-1
 621 268 l 1,31,-1
 524 268 l 1,28,-1
12 396 m 1,32,-1
 12 493 l 1,33,-1
 109 493 l 1,34,-1
 109 396 l 1,35,-1
 12 396 l 1,32,-1
524 396 m 1,36,-1
 524 493 l 1,37,-1
 621 493 l 1,38,-1
 621 396 l 1,39,-1
 524 396 l 1,36,-1
12 524 m 1,40,-1
 12 621 l 1,41,-1
 109 621 l 1,42,-1
 109 524 l 1,43,-1
 12 524 l 1,40,-1
524 524 m 1,44,-1
 524 621 l 1,45,-1
 621 621 l 1,46,-1
 621 524 l 1,47,-1
 524 524 l 1,44,-1
EndSplineSet
Validated: 1
EndChar

StartChar: v
Encoding: 118 118 89
Width: 767
Flags: W
LayerCount: 2
Fore
SplineSet
268 12 m 1,0,-1
 268 109 l 1,1,-1
 365 109 l 1,2,-1
 365 12 l 1,3,-1
 268 12 l 1,0,-1
140 140 m 1,4,-1
 140 237 l 1,5,-1
 237 237 l 1,6,-1
 237 140 l 1,7,-1
 140 140 l 1,4,-1
396 140 m 1,8,-1
 396 237 l 1,9,-1
 493 237 l 1,10,-1
 493 140 l 1,11,-1
 396 140 l 1,8,-1
12 268 m 1,12,-1
 12 365 l 1,13,-1
 109 365 l 1,14,-1
 109 268 l 1,15,-1
 12 268 l 1,12,-1
524 268 m 1,16,-1
 524 365 l 1,17,-1
 621 365 l 1,18,-1
 621 268 l 1,19,-1
 524 268 l 1,16,-1
12 396 m 1,20,-1
 12 493 l 1,21,-1
 109 493 l 1,22,-1
 109 396 l 1,23,-1
 12 396 l 1,20,-1
524 396 m 1,24,-1
 524 493 l 1,25,-1
 621 493 l 1,26,-1
 621 396 l 1,27,-1
 524 396 l 1,24,-1
12 524 m 1,28,-1
 12 621 l 1,29,-1
 109 621 l 1,30,-1
 109 524 l 1,31,-1
 12 524 l 1,28,-1
524 524 m 1,32,-1
 524 621 l 1,33,-1
 621 621 l 1,34,-1
 621 524 l 1,35,-1
 524 524 l 1,32,-1
EndSplineSet
Validated: 1
EndChar

StartChar: w
Encoding: 119 119 90
Width: 767
Flags: W
LayerCount: 2
Fore
SplineSet
140 12 m 1,0,-1
 140 109 l 1,1,-1
 237 109 l 1,2,-1
 237 12 l 1,3,-1
 140 12 l 1,0,-1
396 12 m 1,4,-1
 396 109 l 1,5,-1
 493 109 l 1,6,-1
 493 12 l 1,7,-1
 396 12 l 1,4,-1
12 140 m 1,8,-1
 12 237 l 1,9,-1
 109 237 l 1,10,-1
 109 140 l 1,11,-1
 12 140 l 1,8,-1
268 140 m 1,12,-1
 268 237 l 1,13,-1
 365 237 l 1,14,-1
 365 140 l 1,15,-1
 268 140 l 1,12,-1
524 140 m 1,16,-1
 524 237 l 1,17,-1
 621 237 l 1,18,-1
 621 140 l 1,19,-1
 524 140 l 1,16,-1
12 268 m 1,20,-1
 12 365 l 1,21,-1
 109 365 l 1,22,-1
 109 268 l 1,23,-1
 12 268 l 1,20,-1
268 268 m 1,24,-1
 268 365 l 1,25,-1
 365 365 l 1,26,-1
 365 268 l 1,27,-1
 268 268 l 1,24,-1
524 268 m 1,28,-1
 524 365 l 1,29,-1
 621 365 l 1,30,-1
 621 268 l 1,31,-1
 524 268 l 1,28,-1
12 396 m 1,32,-1
 12 493 l 1,33,-1
 109 493 l 1,34,-1
 109 396 l 1,35,-1
 12 396 l 1,32,-1
524 396 m 1,36,-1
 524 493 l 1,37,-1
 621 493 l 1,38,-1
 621 396 l 1,39,-1
 524 396 l 1,36,-1
12 524 m 1,40,-1
 12 621 l 1,41,-1
 109 621 l 1,42,-1
 109 524 l 1,43,-1
 12 524 l 1,40,-1
524 524 m 1,44,-1
 524 621 l 1,45,-1
 621 621 l 1,46,-1
 621 524 l 1,47,-1
 524 524 l 1,44,-1
EndSplineSet
Validated: 1
EndChar

StartChar: x
Encoding: 120 120 91
Width: 767
Flags: W
LayerCount: 2
Fore
SplineSet
12 12 m 1,0,-1
 12 109 l 1,1,-1
 109 109 l 1,2,-1
 109 12 l 1,3,-1
 12 12 l 1,0,-1
524 12 m 1,4,-1
 524 109 l 1,5,-1
 621 109 l 1,6,-1
 621 12 l 1,7,-1
 524 12 l 1,4,-1
140 140 m 1,8,-1
 140 237 l 1,9,-1
 237 237 l 1,10,-1
 237 140 l 1,11,-1
 140 140 l 1,8,-1
396 140 m 1,12,-1
 396 237 l 1,13,-1
 493 237 l 1,14,-1
 493 140 l 1,15,-1
 396 140 l 1,12,-1
268 268 m 1,16,-1
 268 365 l 1,17,-1
 365 365 l 1,18,-1
 365 268 l 1,19,-1
 268 268 l 1,16,-1
140 396 m 1,20,-1
 140 493 l 1,21,-1
 237 493 l 1,22,-1
 237 396 l 1,23,-1
 140 396 l 1,20,-1
396 396 m 1,24,-1
 396 493 l 1,25,-1
 493 493 l 1,26,-1
 493 396 l 1,27,-1
 396 396 l 1,24,-1
12 524 m 1,28,-1
 12 621 l 1,29,-1
 109 621 l 1,30,-1
 109 524 l 1,31,-1
 12 524 l 1,28,-1
524 524 m 1,32,-1
 524 621 l 1,33,-1
 621 621 l 1,34,-1
 621 524 l 1,35,-1
 524 524 l 1,32,-1
EndSplineSet
Validated: 1
EndChar

StartChar: y
Encoding: 121 121 92
Width: 767
Flags: W
LayerCount: 2
Fore
SplineSet
140 12 m 1,0,-1
 140 109 l 1,1,-1
 237 109 l 1,2,-1
 237 12 l 1,3,-1
 140 12 l 1,0,-1
268 12 m 1,4,-1
 268 109 l 1,5,-1
 365 109 l 1,6,-1
 365 12 l 1,7,-1
 268 12 l 1,4,-1
396 12 m 1,8,-1
 396 109 l 1,9,-1
 493 109 l 1,10,-1
 493 12 l 1,11,-1
 396 12 l 1,8,-1
524 140 m 1,12,-1
 524 237 l 1,13,-1
 621 237 l 1,14,-1
 621 140 l 1,15,-1
 524 140 l 1,12,-1
140 268 m 1,16,-1
 140 365 l 1,17,-1
 237 365 l 1,18,-1
 237 268 l 1,19,-1
 140 268 l 1,16,-1
268 268 m 1,20,-1
 268 365 l 1,21,-1
 365 365 l 1,22,-1
 365 268 l 1,23,-1
 268 268 l 1,20,-1
396 268 m 1,24,-1
 396 365 l 1,25,-1
 493 365 l 1,26,-1
 493 268 l 1,27,-1
 396 268 l 1,24,-1
524 268 m 1,28,-1
 524 365 l 1,29,-1
 621 365 l 1,30,-1
 621 268 l 1,31,-1
 524 268 l 1,28,-1
12 396 m 1,32,-1
 12 493 l 1,33,-1
 109 493 l 1,34,-1
 109 396 l 1,35,-1
 12 396 l 1,32,-1
524 396 m 1,36,-1
 524 493 l 1,37,-1
 621 493 l 1,38,-1
 621 396 l 1,39,-1
 524 396 l 1,36,-1
12 524 m 1,40,-1
 12 621 l 1,41,-1
 109 621 l 1,42,-1
 109 524 l 1,43,-1
 12 524 l 1,40,-1
524 524 m 1,44,-1
 524 621 l 1,45,-1
 621 621 l 1,46,-1
 621 524 l 1,47,-1
 524 524 l 1,44,-1
EndSplineSet
Validated: 1
EndChar

StartChar: z
Encoding: 122 122 93
Width: 767
Flags: W
LayerCount: 2
Fore
SplineSet
12 12 m 1,0,-1
 12 109 l 1,1,-1
 109 109 l 1,2,-1
 109 12 l 1,3,-1
 12 12 l 1,0,-1
140 12 m 1,4,-1
 140 109 l 1,5,-1
 237 109 l 1,6,-1
 237 12 l 1,7,-1
 140 12 l 1,4,-1
268 12 m 1,8,-1
 268 109 l 1,9,-1
 365 109 l 1,10,-1
 365 12 l 1,11,-1
 268 12 l 1,8,-1
396 12 m 1,12,-1
 396 109 l 1,13,-1
 493 109 l 1,14,-1
 493 12 l 1,15,-1
 396 12 l 1,12,-1
524 12 m 1,16,-1
 524 109 l 1,17,-1
 621 109 l 1,18,-1
 621 12 l 1,19,-1
 524 12 l 1,16,-1
140 140 m 1,20,-1
 140 237 l 1,21,-1
 237 237 l 1,22,-1
 237 140 l 1,23,-1
 140 140 l 1,20,-1
268 268 m 1,24,-1
 268 365 l 1,25,-1
 365 365 l 1,26,-1
 365 268 l 1,27,-1
 268 268 l 1,24,-1
396 396 m 1,28,-1
 396 493 l 1,29,-1
 493 493 l 1,30,-1
 493 396 l 1,31,-1
 396 396 l 1,28,-1
12 524 m 1,32,-1
 12 621 l 1,33,-1
 109 621 l 1,34,-1
 109 524 l 1,35,-1
 12 524 l 1,32,-1
140 524 m 1,36,-1
 140 621 l 1,37,-1
 237 621 l 1,38,-1
 237 524 l 1,39,-1
 140 524 l 1,36,-1
268 524 m 1,40,-1
 268 621 l 1,41,-1
 365 621 l 1,42,-1
 365 524 l 1,43,-1
 268 524 l 1,40,-1
396 524 m 1,44,-1
 396 621 l 1,45,-1
 493 621 l 1,46,-1
 493 524 l 1,47,-1
 396 524 l 1,44,-1
524 524 m 1,48,-1
 524 621 l 1,49,-1
 621 621 l 1,50,-1
 621 524 l 1,51,-1
 524 524 l 1,48,-1
EndSplineSet
Validated: 1
EndChar

StartChar: braceleft
Encoding: 123 123 94
Width: 768
Flags: W
LayerCount: 2
Fore
SplineSet
396 12 m 1,0,-1
 396 109 l 1,1,-1
 493 109 l 1,2,-1
 493 12 l 1,3,-1
 396 12 l 1,0,-1
268 140 m 1,4,-1
 268 237 l 1,5,-1
 365 237 l 1,6,-1
 365 140 l 1,7,-1
 268 140 l 1,4,-1
268 268 m 1,8,-1
 268 365 l 1,9,-1
 365 365 l 1,10,-1
 365 268 l 1,11,-1
 268 268 l 1,8,-1
140 396 m 1,12,-1
 140 493 l 1,13,-1
 237 493 l 1,14,-1
 237 396 l 1,15,-1
 140 396 l 1,12,-1
268 524 m 1,16,-1
 268 621 l 1,17,-1
 365 621 l 1,18,-1
 365 524 l 1,19,-1
 268 524 l 1,16,-1
268 652 m 1,20,-1
 268 749 l 1,21,-1
 365 749 l 1,22,-1
 365 652 l 1,23,-1
 268 652 l 1,20,-1
396 780 m 1,24,-1
 396 877 l 1,25,-1
 493 877 l 1,26,-1
 493 780 l 1,27,-1
 396 780 l 1,24,-1
EndSplineSet
Validated: 1
EndChar

StartChar: bar
Encoding: 124 124 95
Width: 768
Flags: W
LayerCount: 2
Fore
SplineSet
268 12 m 1,0,-1
 268 109 l 1,1,-1
 365 109 l 1,2,-1
 365 12 l 1,3,-1
 268 12 l 1,0,-1
268 140 m 1,4,-1
 268 237 l 1,5,-1
 365 237 l 1,6,-1
 365 140 l 1,7,-1
 268 140 l 1,4,-1
268 268 m 1,8,-1
 268 365 l 1,9,-1
 365 365 l 1,10,-1
 365 268 l 1,11,-1
 268 268 l 1,8,-1
268 396 m 1,12,-1
 268 493 l 1,13,-1
 365 493 l 1,14,-1
 365 396 l 1,15,-1
 268 396 l 1,12,-1
268 524 m 1,16,-1
 268 621 l 1,17,-1
 365 621 l 1,18,-1
 365 524 l 1,19,-1
 268 524 l 1,16,-1
268 652 m 1,20,-1
 268 749 l 1,21,-1
 365 749 l 1,22,-1
 365 652 l 1,23,-1
 268 652 l 1,20,-1
268 780 m 1,24,-1
 268 877 l 1,25,-1
 365 877 l 1,26,-1
 365 780 l 1,27,-1
 268 780 l 1,24,-1
EndSplineSet
Validated: 1
EndChar

StartChar: braceright
Encoding: 125 125 96
Width: 768
Flags: W
LayerCount: 2
Fore
SplineSet
140 12 m 1,0,-1
 140 109 l 1,1,-1
 237 109 l 1,2,-1
 237 12 l 1,3,-1
 140 12 l 1,0,-1
268 140 m 1,4,-1
 268 237 l 1,5,-1
 365 237 l 1,6,-1
 365 140 l 1,7,-1
 268 140 l 1,4,-1
268 268 m 1,8,-1
 268 365 l 1,9,-1
 365 365 l 1,10,-1
 365 268 l 1,11,-1
 268 268 l 1,8,-1
396 396 m 1,12,-1
 396 493 l 1,13,-1
 493 493 l 1,14,-1
 493 396 l 1,15,-1
 396 396 l 1,12,-1
268 524 m 1,16,-1
 268 621 l 1,17,-1
 365 621 l 1,18,-1
 365 524 l 1,19,-1
 268 524 l 1,16,-1
268 652 m 1,20,-1
 268 749 l 1,21,-1
 365 749 l 1,22,-1
 365 652 l 1,23,-1
 268 652 l 1,20,-1
140 780 m 1,24,-1
 140 877 l 1,25,-1
 237 877 l 1,26,-1
 237 780 l 1,27,-1
 140 780 l 1,24,-1
EndSplineSet
Validated: 1
EndChar

StartChar: asciitilde
Encoding: 126 126 97
Width: 767
Flags: W
LayerCount: 2
Fore
SplineSet
12 268 m 1,0,-1
 12 365 l 1,1,-1
 109 365 l 1,2,-1
 109 268 l 1,3,-1
 12 268 l 1,0,-1
396 268 m 1,4,-1
 396 365 l 1,5,-1
 493 365 l 1,6,-1
 493 268 l 1,7,-1
 396 268 l 1,4,-1
140 396 m 1,8,-1
 140 493 l 1,9,-1
 237 493 l 1,10,-1
 237 396 l 1,11,-1
 140 396 l 1,8,-1
268 396 m 1,12,-1
 268 493 l 1,13,-1
 365 493 l 1,14,-1
 365 396 l 1,15,-1
 268 396 l 1,12,-1
524 396 m 1,16,-1
 524 493 l 1,17,-1
 621 493 l 1,18,-1
 621 396 l 1,19,-1
 524 396 l 1,16,-1
EndSplineSet
Validated: 1
EndChar

StartChar: exclamdown
Encoding: 161 161 99
Width: 768
Flags: W
LayerCount: 2
Fore
SplineSet
268 12 m 1,0,-1
 268 109 l 1,1,-1
 365 109 l 1,2,-1
 365 12 l 1,3,-1
 268 12 l 1,0,-1
268 140 m 1,4,-1
 268 237 l 1,5,-1
 365 237 l 1,6,-1
 365 140 l 1,7,-1
 268 140 l 1,4,-1
268 268 m 1,8,-1
 268 365 l 1,9,-1
 365 365 l 1,10,-1
 365 268 l 1,11,-1
 268 268 l 1,8,-1
268 396 m 1,12,-1
 268 493 l 1,13,-1
 365 493 l 1,14,-1
 365 396 l 1,15,-1
 268 396 l 1,12,-1
268 524 m 1,16,-1
 268 621 l 1,17,-1
 365 621 l 1,18,-1
 365 524 l 1,19,-1
 268 524 l 1,16,-1
268 780 m 1,20,-1
 268 877 l 1,21,-1
 365 877 l 1,22,-1
 365 780 l 1,23,-1
 268 780 l 1,20,-1
EndSplineSet
Validated: 1
EndChar

StartChar: cent
Encoding: 162 162 100
Width: 767
Flags: W
LayerCount: 2
Fore
SplineSet
268 12 m 1,0,-1
 268 109 l 1,1,-1
 365 109 l 1,2,-1
 365 12 l 1,3,-1
 268 12 l 1,0,-1
140 140 m 1,4,-1
 140 237 l 1,5,-1
 237 237 l 1,6,-1
 237 140 l 1,7,-1
 140 140 l 1,4,-1
268 140 m 1,8,-1
 268 237 l 1,9,-1
 365 237 l 1,10,-1
 365 140 l 1,11,-1
 268 140 l 1,8,-1
396 140 m 1,12,-1
 396 237 l 1,13,-1
 493 237 l 1,14,-1
 493 140 l 1,15,-1
 396 140 l 1,12,-1
12 268 m 1,16,-1
 12 365 l 1,17,-1
 109 365 l 1,18,-1
 109 268 l 1,19,-1
 12 268 l 1,16,-1
268 268 m 1,20,-1
 268 365 l 1,21,-1
 365 365 l 1,22,-1
 365 268 l 1,23,-1
 268 268 l 1,20,-1
524 268 m 1,24,-1
 524 365 l 1,25,-1
 621 365 l 1,26,-1
 621 268 l 1,27,-1
 524 268 l 1,24,-1
12 396 m 1,28,-1
 12 493 l 1,29,-1
 109 493 l 1,30,-1
 109 396 l 1,31,-1
 12 396 l 1,28,-1
268 396 m 1,32,-1
 268 493 l 1,33,-1
 365 493 l 1,34,-1
 365 396 l 1,35,-1
 268 396 l 1,32,-1
12 524 m 1,36,-1
 12 621 l 1,37,-1
 109 621 l 1,38,-1
 109 524 l 1,39,-1
 12 524 l 1,36,-1
268 524 m 1,40,-1
 268 621 l 1,41,-1
 365 621 l 1,42,-1
 365 524 l 1,43,-1
 268 524 l 1,40,-1
140 652 m 1,44,-1
 140 749 l 1,45,-1
 237 749 l 1,46,-1
 237 652 l 1,47,-1
 140 652 l 1,44,-1
268 652 m 1,48,-1
 268 749 l 1,49,-1
 365 749 l 1,50,-1
 365 652 l 1,51,-1
 268 652 l 1,48,-1
396 652 m 1,52,-1
 396 749 l 1,53,-1
 493 749 l 1,54,-1
 493 652 l 1,55,-1
 396 652 l 1,52,-1
268 780 m 1,56,-1
 268 877 l 1,57,-1
 365 877 l 1,58,-1
 365 780 l 1,59,-1
 268 780 l 1,56,-1
EndSplineSet
Validated: 1
EndChar

StartChar: sterling
Encoding: 163 163 101
Width: 767
Flags: W
LayerCount: 2
Fore
SplineSet
12 12 m 1,0,-1
 12 109 l 1,1,-1
 109 109 l 1,2,-1
 109 12 l 1,3,-1
 12 12 l 1,0,-1
268 12 m 1,4,-1
 268 109 l 1,5,-1
 365 109 l 1,6,-1
 365 12 l 1,7,-1
 268 12 l 1,4,-1
396 12 m 1,8,-1
 396 109 l 1,9,-1
 493 109 l 1,10,-1
 493 12 l 1,11,-1
 396 12 l 1,8,-1
140 140 m 1,12,-1
 140 237 l 1,13,-1
 237 237 l 1,14,-1
 237 140 l 1,15,-1
 140 140 l 1,12,-1
524 140 m 1,16,-1
 524 237 l 1,17,-1
 621 237 l 1,18,-1
 621 140 l 1,19,-1
 524 140 l 1,16,-1
140 268 m 1,20,-1
 140 365 l 1,21,-1
 237 365 l 1,22,-1
 237 268 l 1,23,-1
 140 268 l 1,20,-1
12 396 m 1,24,-1
 12 493 l 1,25,-1
 109 493 l 1,26,-1
 109 396 l 1,27,-1
 12 396 l 1,24,-1
140 396 m 1,28,-1
 140 493 l 1,29,-1
 237 493 l 1,30,-1
 237 396 l 1,31,-1
 140 396 l 1,28,-1
268 396 m 1,32,-1
 268 493 l 1,33,-1
 365 493 l 1,34,-1
 365 396 l 1,35,-1
 268 396 l 1,32,-1
396 396 m 1,36,-1
 396 493 l 1,37,-1
 493 493 l 1,38,-1
 493 396 l 1,39,-1
 396 396 l 1,36,-1
140 524 m 1,40,-1
 140 621 l 1,41,-1
 237 621 l 1,42,-1
 237 524 l 1,43,-1
 140 524 l 1,40,-1
140 652 m 1,44,-1
 140 749 l 1,45,-1
 237 749 l 1,46,-1
 237 652 l 1,47,-1
 140 652 l 1,44,-1
268 780 m 1,48,-1
 268 877 l 1,49,-1
 365 877 l 1,50,-1
 365 780 l 1,51,-1
 268 780 l 1,48,-1
396 780 m 1,52,-1
 396 877 l 1,53,-1
 493 877 l 1,54,-1
 493 780 l 1,55,-1
 396 780 l 1,52,-1
EndSplineSet
Validated: 1
EndChar

StartChar: currency
Encoding: 164 164 102
Width: 767
Flags: W
LayerCount: 2
Fore
SplineSet
12 140 m 1,0,-1
 12 237 l 1,1,-1
 109 237 l 1,2,-1
 109 140 l 1,3,-1
 12 140 l 1,0,-1
524 140 m 1,4,-1
 524 237 l 1,5,-1
 621 237 l 1,6,-1
 621 140 l 1,7,-1
 524 140 l 1,4,-1
140 268 m 1,8,-1
 140 365 l 1,9,-1
 237 365 l 1,10,-1
 237 268 l 1,11,-1
 140 268 l 1,8,-1
268 268 m 1,12,-1
 268 365 l 1,13,-1
 365 365 l 1,14,-1
 365 268 l 1,15,-1
 268 268 l 1,12,-1
396 268 m 1,16,-1
 396 365 l 1,17,-1
 493 365 l 1,18,-1
 493 268 l 1,19,-1
 396 268 l 1,16,-1
140 396 m 1,20,-1
 140 493 l 1,21,-1
 237 493 l 1,22,-1
 237 396 l 1,23,-1
 140 396 l 1,20,-1
396 396 m 1,24,-1
 396 493 l 1,25,-1
 493 493 l 1,26,-1
 493 396 l 1,27,-1
 396 396 l 1,24,-1
140 524 m 1,28,-1
 140 621 l 1,29,-1
 237 621 l 1,30,-1
 237 524 l 1,31,-1
 140 524 l 1,28,-1
268 524 m 1,32,-1
 268 621 l 1,33,-1
 365 621 l 1,34,-1
 365 524 l 1,35,-1
 268 524 l 1,32,-1
396 524 m 1,36,-1
 396 621 l 1,37,-1
 493 621 l 1,38,-1
 493 524 l 1,39,-1
 396 524 l 1,36,-1
12 652 m 1,40,-1
 12 749 l 1,41,-1
 109 749 l 1,42,-1
 109 652 l 1,43,-1
 12 652 l 1,40,-1
524 652 m 1,44,-1
 524 749 l 1,45,-1
 621 749 l 1,46,-1
 621 652 l 1,47,-1
 524 652 l 1,44,-1
EndSplineSet
Validated: 1
EndChar

StartChar: yen
Encoding: 165 165 103
Width: 767
Flags: W
LayerCount: 2
Fore
SplineSet
268 12 m 1,0,-1
 268 109 l 1,1,-1
 365 109 l 1,2,-1
 365 12 l 1,3,-1
 268 12 l 1,0,-1
268 140 m 1,4,-1
 268 237 l 1,5,-1
 365 237 l 1,6,-1
 365 140 l 1,7,-1
 268 140 l 1,4,-1
12 268 m 1,8,-1
 12 365 l 1,9,-1
 109 365 l 1,10,-1
 109 268 l 1,11,-1
 12 268 l 1,8,-1
140 268 m 1,12,-1
 140 365 l 1,13,-1
 237 365 l 1,14,-1
 237 268 l 1,15,-1
 140 268 l 1,12,-1
268 268 m 1,16,-1
 268 365 l 1,17,-1
 365 365 l 1,18,-1
 365 268 l 1,19,-1
 268 268 l 1,16,-1
396 268 m 1,20,-1
 396 365 l 1,21,-1
 493 365 l 1,22,-1
 493 268 l 1,23,-1
 396 268 l 1,20,-1
524 268 m 1,24,-1
 524 365 l 1,25,-1
 621 365 l 1,26,-1
 621 268 l 1,27,-1
 524 268 l 1,24,-1
268 396 m 1,28,-1
 268 493 l 1,29,-1
 365 493 l 1,30,-1
 365 396 l 1,31,-1
 268 396 l 1,28,-1
12 524 m 1,32,-1
 12 621 l 1,33,-1
 109 621 l 1,34,-1
 109 524 l 1,35,-1
 12 524 l 1,32,-1
140 524 m 1,36,-1
 140 621 l 1,37,-1
 237 621 l 1,38,-1
 237 524 l 1,39,-1
 140 524 l 1,36,-1
268 524 m 1,40,-1
 268 621 l 1,41,-1
 365 621 l 1,42,-1
 365 524 l 1,43,-1
 268 524 l 1,40,-1
396 524 m 1,44,-1
 396 621 l 1,45,-1
 493 621 l 1,46,-1
 493 524 l 1,47,-1
 396 524 l 1,44,-1
524 524 m 1,48,-1
 524 621 l 1,49,-1
 621 621 l 1,50,-1
 621 524 l 1,51,-1
 524 524 l 1,48,-1
140 652 m 1,52,-1
 140 749 l 1,53,-1
 237 749 l 1,54,-1
 237 652 l 1,55,-1
 140 652 l 1,52,-1
396 652 m 1,56,-1
 396 749 l 1,57,-1
 493 749 l 1,58,-1
 493 652 l 1,59,-1
 396 652 l 1,56,-1
12 780 m 1,60,-1
 12 877 l 1,61,-1
 109 877 l 1,62,-1
 109 780 l 1,63,-1
 12 780 l 1,60,-1
524 780 m 1,64,-1
 524 877 l 1,65,-1
 621 877 l 1,66,-1
 621 780 l 1,67,-1
 524 780 l 1,64,-1
EndSplineSet
Validated: 1
EndChar

StartChar: brokenbar
Encoding: 166 166 104
Width: 768
Flags: W
LayerCount: 2
Fore
SplineSet
268 12 m 1,0,-1
 268 109 l 1,1,-1
 365 109 l 1,2,-1
 365 12 l 1,3,-1
 268 12 l 1,0,-1
268 140 m 1,4,-1
 268 237 l 1,5,-1
 365 237 l 1,6,-1
 365 140 l 1,7,-1
 268 140 l 1,4,-1
268 268 m 1,8,-1
 268 365 l 1,9,-1
 365 365 l 1,10,-1
 365 268 l 1,11,-1
 268 268 l 1,8,-1
268 524 m 1,12,-1
 268 621 l 1,13,-1
 365 621 l 1,14,-1
 365 524 l 1,15,-1
 268 524 l 1,12,-1
268 652 m 1,16,-1
 268 749 l 1,17,-1
 365 749 l 1,18,-1
 365 652 l 1,19,-1
 268 652 l 1,16,-1
268 780 m 1,20,-1
 268 877 l 1,21,-1
 365 877 l 1,22,-1
 365 780 l 1,23,-1
 268 780 l 1,20,-1
EndSplineSet
Validated: 1
EndChar

StartChar: section
Encoding: 167 167 105
Width: 767
Flags: W
LayerCount: 2
Fore
SplineSet
524 11 m 1,0,-1
 524 108 l 1,1,-1
 621 108 l 1,2,-1
 621 11 l 1,3,-1
 524 11 l 1,0,-1
524 139 m 1,4,-1
 524 236 l 1,5,-1
 621 236 l 1,6,-1
 621 139 l 1,7,-1
 524 139 l 1,4,-1
524 267 m 1,8,-1
 524 364 l 1,9,-1
 621 364 l 1,10,-1
 621 267 l 1,11,-1
 524 267 l 1,8,-1
524 395 m 1,12,-1
 524 492 l 1,13,-1
 621 492 l 1,14,-1
 621 395 l 1,15,-1
 524 395 l 1,12,-1
524 523 m 1,16,-1
 524 620 l 1,17,-1
 621 620 l 1,18,-1
 621 523 l 1,19,-1
 524 523 l 1,16,-1
524 651 m 1,20,-1
 524 748 l 1,21,-1
 621 748 l 1,22,-1
 621 651 l 1,23,-1
 524 651 l 1,20,-1
394 11 m 1,24,-1
 394 108 l 1,25,-1
 491 108 l 1,26,-1
 491 11 l 1,27,-1
 394 11 l 1,24,-1
394 139 m 1,28,-1
 394 236 l 1,29,-1
 491 236 l 1,30,-1
 491 139 l 1,31,-1
 394 139 l 1,28,-1
394 267 m 1,32,-1
 394 364 l 1,33,-1
 491 364 l 1,34,-1
 491 267 l 1,35,-1
 394 267 l 1,32,-1
394 395 m 1,36,-1
 394 492 l 1,37,-1
 491 492 l 1,38,-1
 491 395 l 1,39,-1
 394 395 l 1,36,-1
267 11 m 1,40,-1
 267 108 l 1,41,-1
 364 108 l 1,42,-1
 364 11 l 1,43,-1
 267 11 l 1,40,-1
267 139 m 1,44,-1
 267 236 l 1,45,-1
 364 236 l 1,46,-1
 364 139 l 1,47,-1
 267 139 l 1,44,-1
267 267 m 1,48,-1
 267 364 l 1,49,-1
 364 364 l 1,50,-1
 364 267 l 1,51,-1
 267 267 l 1,48,-1
267 395 m 1,52,-1
 267 492 l 1,53,-1
 364 492 l 1,54,-1
 364 395 l 1,55,-1
 267 395 l 1,52,-1
11 13 m 1,56,-1
 11 110 l 1,57,-1
 108 110 l 1,58,-1
 108 13 l 1,59,-1
 11 13 l 1,56,-1
11 141 m 1,60,-1
 11 238 l 1,61,-1
 108 238 l 1,62,-1
 108 141 l 1,63,-1
 11 141 l 1,60,-1
11 269 m 1,64,-1
 11 366 l 1,65,-1
 108 366 l 1,66,-1
 108 269 l 1,67,-1
 11 269 l 1,64,-1
11 397 m 1,68,-1
 11 494 l 1,69,-1
 108 494 l 1,70,-1
 108 397 l 1,71,-1
 11 397 l 1,68,-1
11 525 m 1,72,-1
 11 622 l 1,73,-1
 108 622 l 1,74,-1
 108 525 l 1,75,-1
 11 525 l 1,72,-1
11 653 m 1,76,-1
 11 750 l 1,77,-1
 108 750 l 1,78,-1
 108 653 l 1,79,-1
 11 653 l 1,76,-1
138 12 m 1,80,-1
 138 109 l 1,81,-1
 235 109 l 1,82,-1
 235 12 l 1,83,-1
 138 12 l 1,80,-1
138 140 m 1,84,-1
 138 237 l 1,85,-1
 235 237 l 1,86,-1
 235 140 l 1,87,-1
 138 140 l 1,84,-1
138 268 m 1,88,-1
 138 365 l 1,89,-1
 235 365 l 1,90,-1
 235 268 l 1,91,-1
 138 268 l 1,88,-1
138 396 m 1,92,-1
 138 493 l 1,93,-1
 235 493 l 1,94,-1
 235 396 l 1,95,-1
 138 396 l 1,92,-1
12 780 m 1,96,-1
 12 877 l 1,97,-1
 109 877 l 1,98,-1
 109 780 l 1,99,-1
 12 780 l 1,96,-1
140 780 m 1,100,-1
 140 877 l 1,101,-1
 237 877 l 1,102,-1
 237 780 l 1,103,-1
 140 780 l 1,100,-1
268 780 m 1,104,-1
 268 877 l 1,105,-1
 365 877 l 1,106,-1
 365 780 l 1,107,-1
 268 780 l 1,104,-1
396 780 m 1,108,-1
 396 877 l 1,109,-1
 493 877 l 1,110,-1
 493 780 l 1,111,-1
 396 780 l 1,108,-1
524 780 m 1,112,-1
 524 877 l 1,113,-1
 621 877 l 1,114,-1
 621 780 l 1,115,-1
 524 780 l 1,112,-1
EndSplineSet
EndChar

StartChar: dieresis
Encoding: 168 168 106
Width: 768
Flags: W
LayerCount: 2
Fore
SplineSet
140 780 m 1,0,-1
 140 877 l 1,1,-1
 237 877 l 1,2,-1
 237 780 l 1,3,-1
 140 780 l 1,0,-1
396 780 m 1,4,-1
 396 877 l 1,5,-1
 493 877 l 1,6,-1
 493 780 l 1,7,-1
 396 780 l 1,4,-1
EndSplineSet
Validated: 1
EndChar

StartChar: copyright
Encoding: 169 169 107
Width: 767
Flags: W
LayerCount: 2
Fore
SplineSet
12 12 m 1,0,-1
 12 109 l 1,1,-1
 109 109 l 1,2,-1
 109 12 l 1,3,-1
 12 12 l 1,0,-1
140 12 m 1,4,-1
 140 109 l 1,5,-1
 237 109 l 1,6,-1
 237 12 l 1,7,-1
 140 12 l 1,4,-1
268 12 m 1,8,-1
 268 109 l 1,9,-1
 365 109 l 1,10,-1
 365 12 l 1,11,-1
 268 12 l 1,8,-1
396 12 m 1,12,-1
 396 109 l 1,13,-1
 493 109 l 1,14,-1
 493 12 l 1,15,-1
 396 12 l 1,12,-1
524 12 m 1,16,-1
 524 109 l 1,17,-1
 621 109 l 1,18,-1
 621 12 l 1,19,-1
 524 12 l 1,16,-1
12 140 m 1,20,-1
 12 237 l 1,21,-1
 109 237 l 1,22,-1
 109 140 l 1,23,-1
 12 140 l 1,20,-1
524 140 m 1,24,-1
 524 237 l 1,25,-1
 621 237 l 1,26,-1
 621 140 l 1,27,-1
 524 140 l 1,24,-1
12 268 m 1,28,-1
 12 365 l 1,29,-1
 109 365 l 1,30,-1
 109 268 l 1,31,-1
 12 268 l 1,28,-1
268 268 m 1,32,-1
 268 365 l 1,33,-1
 365 365 l 1,34,-1
 365 268 l 1,35,-1
 268 268 l 1,32,-1
524 268 m 1,36,-1
 524 365 l 1,37,-1
 621 365 l 1,38,-1
 621 268 l 1,39,-1
 524 268 l 1,36,-1
12 396 m 1,40,-1
 12 493 l 1,41,-1
 109 493 l 1,42,-1
 109 396 l 1,43,-1
 12 396 l 1,40,-1
268 396 m 1,44,-1
 268 493 l 1,45,-1
 365 493 l 1,46,-1
 365 396 l 1,47,-1
 268 396 l 1,44,-1
396 396 m 1,48,-1
 396 493 l 1,49,-1
 493 493 l 1,50,-1
 493 396 l 1,51,-1
 396 396 l 1,48,-1
524 396 m 1,52,-1
 524 493 l 1,53,-1
 621 493 l 1,54,-1
 621 396 l 1,55,-1
 524 396 l 1,52,-1
12 524 m 1,56,-1
 12 621 l 1,57,-1
 109 621 l 1,58,-1
 109 524 l 1,59,-1
 12 524 l 1,56,-1
268 524 m 1,60,-1
 268 621 l 1,61,-1
 365 621 l 1,62,-1
 365 524 l 1,63,-1
 268 524 l 1,60,-1
524 524 m 1,64,-1
 524 621 l 1,65,-1
 621 621 l 1,66,-1
 621 524 l 1,67,-1
 524 524 l 1,64,-1
12 652 m 1,68,-1
 12 749 l 1,69,-1
 109 749 l 1,70,-1
 109 652 l 1,71,-1
 12 652 l 1,68,-1
524 652 m 1,72,-1
 524 749 l 1,73,-1
 621 749 l 1,74,-1
 621 652 l 1,75,-1
 524 652 l 1,72,-1
12 780 m 1,76,-1
 12 877 l 1,77,-1
 109 877 l 1,78,-1
 109 780 l 1,79,-1
 12 780 l 1,76,-1
140 780 m 1,80,-1
 140 877 l 1,81,-1
 237 877 l 1,82,-1
 237 780 l 1,83,-1
 140 780 l 1,80,-1
268 780 m 1,84,-1
 268 877 l 1,85,-1
 365 877 l 1,86,-1
 365 780 l 1,87,-1
 268 780 l 1,84,-1
396 780 m 1,88,-1
 396 877 l 1,89,-1
 493 877 l 1,90,-1
 493 780 l 1,91,-1
 396 780 l 1,88,-1
524 780 m 1,92,-1
 524 877 l 1,93,-1
 621 877 l 1,94,-1
 621 780 l 1,95,-1
 524 780 l 1,92,-1
EndSplineSet
Validated: 1
EndChar

StartChar: ordfeminine
Encoding: 170 170 108
Width: 767
Flags: W
LayerCount: 2
Fore
SplineSet
12 12 m 1,0,-1
 12 109 l 1,1,-1
 109 109 l 1,2,-1
 109 12 l 1,3,-1
 12 12 l 1,0,-1
140 12 m 1,4,-1
 140 109 l 1,5,-1
 237 109 l 1,6,-1
 237 12 l 1,7,-1
 140 12 l 1,4,-1
268 12 m 1,8,-1
 268 109 l 1,9,-1
 365 109 l 1,10,-1
 365 12 l 1,11,-1
 268 12 l 1,8,-1
396 12 m 1,12,-1
 396 109 l 1,13,-1
 493 109 l 1,14,-1
 493 12 l 1,15,-1
 396 12 l 1,12,-1
524 12 m 1,16,-1
 524 109 l 1,17,-1
 621 109 l 1,18,-1
 621 12 l 1,19,-1
 524 12 l 1,16,-1
140 268 m 1,20,-1
 140 365 l 1,21,-1
 237 365 l 1,22,-1
 237 268 l 1,23,-1
 140 268 l 1,20,-1
268 268 m 1,24,-1
 268 365 l 1,25,-1
 365 365 l 1,26,-1
 365 268 l 1,27,-1
 268 268 l 1,24,-1
396 268 m 1,28,-1
 396 365 l 1,29,-1
 493 365 l 1,30,-1
 493 268 l 1,31,-1
 396 268 l 1,28,-1
524 268 m 1,32,-1
 524 365 l 1,33,-1
 621 365 l 1,34,-1
 621 268 l 1,35,-1
 524 268 l 1,32,-1
12 396 m 1,36,-1
 12 493 l 1,37,-1
 109 493 l 1,38,-1
 109 396 l 1,39,-1
 12 396 l 1,36,-1
524 396 m 1,40,-1
 524 493 l 1,41,-1
 621 493 l 1,42,-1
 621 396 l 1,43,-1
 524 396 l 1,40,-1
140 524 m 1,44,-1
 140 621 l 1,45,-1
 237 621 l 1,46,-1
 237 524 l 1,47,-1
 140 524 l 1,44,-1
268 524 m 1,48,-1
 268 621 l 1,49,-1
 365 621 l 1,50,-1
 365 524 l 1,51,-1
 268 524 l 1,48,-1
396 524 m 1,52,-1
 396 621 l 1,53,-1
 493 621 l 1,54,-1
 493 524 l 1,55,-1
 396 524 l 1,52,-1
524 524 m 1,56,-1
 524 621 l 1,57,-1
 621 621 l 1,58,-1
 621 524 l 1,59,-1
 524 524 l 1,56,-1
524 652 m 1,60,-1
 524 749 l 1,61,-1
 621 749 l 1,62,-1
 621 652 l 1,63,-1
 524 652 l 1,60,-1
140 780 m 1,64,-1
 140 877 l 1,65,-1
 237 877 l 1,66,-1
 237 780 l 1,67,-1
 140 780 l 1,64,-1
268 780 m 1,68,-1
 268 877 l 1,69,-1
 365 877 l 1,70,-1
 365 780 l 1,71,-1
 268 780 l 1,68,-1
396 780 m 1,72,-1
 396 877 l 1,73,-1
 493 877 l 1,74,-1
 493 780 l 1,75,-1
 396 780 l 1,72,-1
EndSplineSet
Validated: 1
EndChar

StartChar: guillemotleft
Encoding: 171 171 109
Width: 767
Flags: W
LayerCount: 2
Fore
SplineSet
268 12 m 1,0,-1
 268 109 l 1,1,-1
 365 109 l 1,2,-1
 365 12 l 1,3,-1
 268 12 l 1,0,-1
524 12 m 1,4,-1
 524 109 l 1,5,-1
 621 109 l 1,6,-1
 621 12 l 1,7,-1
 524 12 l 1,4,-1
140 140 m 1,8,-1
 140 237 l 1,9,-1
 237 237 l 1,10,-1
 237 140 l 1,11,-1
 140 140 l 1,8,-1
396 140 m 1,12,-1
 396 237 l 1,13,-1
 493 237 l 1,14,-1
 493 140 l 1,15,-1
 396 140 l 1,12,-1
12 268 m 1,16,-1
 12 365 l 1,17,-1
 109 365 l 1,18,-1
 109 268 l 1,19,-1
 12 268 l 1,16,-1
268 268 m 1,20,-1
 268 365 l 1,21,-1
 365 365 l 1,22,-1
 365 268 l 1,23,-1
 268 268 l 1,20,-1
140 396 m 1,24,-1
 140 493 l 1,25,-1
 237 493 l 1,26,-1
 237 396 l 1,27,-1
 140 396 l 1,24,-1
396 396 m 1,28,-1
 396 493 l 1,29,-1
 493 493 l 1,30,-1
 493 396 l 1,31,-1
 396 396 l 1,28,-1
268 524 m 1,32,-1
 268 621 l 1,33,-1
 365 621 l 1,34,-1
 365 524 l 1,35,-1
 268 524 l 1,32,-1
524 524 m 1,36,-1
 524 621 l 1,37,-1
 621 621 l 1,38,-1
 621 524 l 1,39,-1
 524 524 l 1,36,-1
EndSplineSet
Validated: 1
EndChar

StartChar: logicalnot
Encoding: 172 172 110
Width: 767
Flags: W
LayerCount: 2
Fore
SplineSet
524 12 m 1,0,-1
 524 109 l 1,1,-1
 621 109 l 1,2,-1
 621 12 l 1,3,-1
 524 12 l 1,0,-1
524 140 m 1,4,-1
 524 237 l 1,5,-1
 621 237 l 1,6,-1
 621 140 l 1,7,-1
 524 140 l 1,4,-1
12 268 m 1,8,-1
 12 365 l 1,9,-1
 109 365 l 1,10,-1
 109 268 l 1,11,-1
 12 268 l 1,8,-1
140 268 m 1,12,-1
 140 365 l 1,13,-1
 237 365 l 1,14,-1
 237 268 l 1,15,-1
 140 268 l 1,12,-1
268 268 m 1,16,-1
 268 365 l 1,17,-1
 365 365 l 1,18,-1
 365 268 l 1,19,-1
 268 268 l 1,16,-1
396 268 m 1,20,-1
 396 365 l 1,21,-1
 493 365 l 1,22,-1
 493 268 l 1,23,-1
 396 268 l 1,20,-1
524 268 m 1,24,-1
 524 365 l 1,25,-1
 621 365 l 1,26,-1
 621 268 l 1,27,-1
 524 268 l 1,24,-1
EndSplineSet
Validated: 1
EndChar

StartChar: uni00AD
Encoding: 173 173 111
Width: 767
Flags: W
LayerCount: 2
Fore
SplineSet
12 268 m 1,0,-1
 12 365 l 1,1,-1
 109 365 l 1,2,-1
 109 268 l 1,3,-1
 12 268 l 1,0,-1
140 268 m 1,4,-1
 140 365 l 1,5,-1
 237 365 l 1,6,-1
 237 268 l 1,7,-1
 140 268 l 1,4,-1
268 268 m 1,8,-1
 268 365 l 1,9,-1
 365 365 l 1,10,-1
 365 268 l 1,11,-1
 268 268 l 1,8,-1
396 268 m 1,12,-1
 396 365 l 1,13,-1
 493 365 l 1,14,-1
 493 268 l 1,15,-1
 396 268 l 1,12,-1
524 268 m 1,16,-1
 524 365 l 1,17,-1
 621 365 l 1,18,-1
 621 268 l 1,19,-1
 524 268 l 1,16,-1
EndSplineSet
Validated: 1
EndChar

StartChar: registered
Encoding: 174 174 112
Width: 767
Flags: W
LayerCount: 2
Fore
SplineSet
12 12 m 1,0,-1
 12 109 l 1,1,-1
 109 109 l 1,2,-1
 109 12 l 1,3,-1
 12 12 l 1,0,-1
140 12 m 1,4,-1
 140 109 l 1,5,-1
 237 109 l 1,6,-1
 237 12 l 1,7,-1
 140 12 l 1,4,-1
268 12 m 1,8,-1
 268 109 l 1,9,-1
 365 109 l 1,10,-1
 365 12 l 1,11,-1
 268 12 l 1,8,-1
396 12 m 1,12,-1
 396 109 l 1,13,-1
 493 109 l 1,14,-1
 493 12 l 1,15,-1
 396 12 l 1,12,-1
524 12 m 1,16,-1
 524 109 l 1,17,-1
 621 109 l 1,18,-1
 621 12 l 1,19,-1
 524 12 l 1,16,-1
12 140 m 1,20,-1
 12 237 l 1,21,-1
 109 237 l 1,22,-1
 109 140 l 1,23,-1
 12 140 l 1,20,-1
268 140 m 1,24,-1
 268 237 l 1,25,-1
 365 237 l 1,26,-1
 365 140 l 1,27,-1
 268 140 l 1,24,-1
524 140 m 1,28,-1
 524 237 l 1,29,-1
 621 237 l 1,30,-1
 621 140 l 1,31,-1
 524 140 l 1,28,-1
12 268 m 1,32,-1
 12 365 l 1,33,-1
 109 365 l 1,34,-1
 109 268 l 1,35,-1
 12 268 l 1,32,-1
396 268 m 1,36,-1
 396 365 l 1,37,-1
 493 365 l 1,38,-1
 493 268 l 1,39,-1
 396 268 l 1,36,-1
524 268 m 1,40,-1
 524 365 l 1,41,-1
 621 365 l 1,42,-1
 621 268 l 1,43,-1
 524 268 l 1,40,-1
12 396 m 1,44,-1
 12 493 l 1,45,-1
 109 493 l 1,46,-1
 109 396 l 1,47,-1
 12 396 l 1,44,-1
524 396 m 1,48,-1
 524 493 l 1,49,-1
 621 493 l 1,50,-1
 621 396 l 1,51,-1
 524 396 l 1,48,-1
12 524 m 1,52,-1
 12 621 l 1,53,-1
 109 621 l 1,54,-1
 109 524 l 1,55,-1
 12 524 l 1,52,-1
268 524 m 1,56,-1
 268 621 l 1,57,-1
 365 621 l 1,58,-1
 365 524 l 1,59,-1
 268 524 l 1,56,-1
524 524 m 1,60,-1
 524 621 l 1,61,-1
 621 621 l 1,62,-1
 621 524 l 1,63,-1
 524 524 l 1,60,-1
12 652 m 1,64,-1
 12 749 l 1,65,-1
 109 749 l 1,66,-1
 109 652 l 1,67,-1
 12 652 l 1,64,-1
524 652 m 1,68,-1
 524 749 l 1,69,-1
 621 749 l 1,70,-1
 621 652 l 1,71,-1
 524 652 l 1,68,-1
12 780 m 1,72,-1
 12 877 l 1,73,-1
 109 877 l 1,74,-1
 109 780 l 1,75,-1
 12 780 l 1,72,-1
140 780 m 1,76,-1
 140 877 l 1,77,-1
 237 877 l 1,78,-1
 237 780 l 1,79,-1
 140 780 l 1,76,-1
268 780 m 1,80,-1
 268 877 l 1,81,-1
 365 877 l 1,82,-1
 365 780 l 1,83,-1
 268 780 l 1,80,-1
396 780 m 1,84,-1
 396 877 l 1,85,-1
 493 877 l 1,86,-1
 493 780 l 1,87,-1
 396 780 l 1,84,-1
524 780 m 1,88,-1
 524 877 l 1,89,-1
 621 877 l 1,90,-1
 621 780 l 1,91,-1
 524 780 l 1,88,-1
EndSplineSet
Validated: 1
EndChar

StartChar: macron
Encoding: 175 175 113
Width: 767
Flags: W
LayerCount: 2
Fore
SplineSet
12 780 m 1,0,-1
 12 877 l 1,1,-1
 109 877 l 1,2,-1
 109 780 l 1,3,-1
 12 780 l 1,0,-1
140 780 m 1,4,-1
 140 877 l 1,5,-1
 237 877 l 1,6,-1
 237 780 l 1,7,-1
 140 780 l 1,4,-1
268 780 m 1,8,-1
 268 877 l 1,9,-1
 365 877 l 1,10,-1
 365 780 l 1,11,-1
 268 780 l 1,8,-1
396 780 m 1,12,-1
 396 877 l 1,13,-1
 493 877 l 1,14,-1
 493 780 l 1,15,-1
 396 780 l 1,12,-1
524 780 m 1,16,-1
 524 877 l 1,17,-1
 621 877 l 1,18,-1
 621 780 l 1,19,-1
 524 780 l 1,16,-1
EndSplineSet
Validated: 1
EndChar

StartChar: degree
Encoding: 176 176 114
Width: 767
Flags: W
LayerCount: 2
Fore
SplineSet
140 396 m 1,0,-1
 140 493 l 1,1,-1
 237 493 l 1,2,-1
 237 396 l 1,3,-1
 140 396 l 1,0,-1
268 396 m 1,4,-1
 268 493 l 1,5,-1
 365 493 l 1,6,-1
 365 396 l 1,7,-1
 268 396 l 1,4,-1
12 524 m 1,8,-1
 12 621 l 1,9,-1
 109 621 l 1,10,-1
 109 524 l 1,11,-1
 12 524 l 1,8,-1
396 524 m 1,12,-1
 396 621 l 1,13,-1
 493 621 l 1,14,-1
 493 524 l 1,15,-1
 396 524 l 1,12,-1
12 652 m 1,16,-1
 12 749 l 1,17,-1
 109 749 l 1,18,-1
 109 652 l 1,19,-1
 12 652 l 1,16,-1
396 652 m 1,20,-1
 396 749 l 1,21,-1
 493 749 l 1,22,-1
 493 652 l 1,23,-1
 396 652 l 1,20,-1
12 780 m 1,24,-1
 12 877 l 1,25,-1
 109 877 l 1,26,-1
 109 780 l 1,27,-1
 12 780 l 1,24,-1
396 780 m 1,28,-1
 396 877 l 1,29,-1
 493 877 l 1,30,-1
 493 780 l 1,31,-1
 396 780 l 1,28,-1
140 908 m 1,32,-1
 140 1005 l 1,33,-1
 237 1005 l 1,34,-1
 237 908 l 1,35,-1
 140 908 l 1,32,-1
268 908 m 1,36,-1
 268 1005 l 1,37,-1
 365 1005 l 1,38,-1
 365 908 l 1,39,-1
 268 908 l 1,36,-1
EndSplineSet
Validated: 1
EndChar

StartChar: plusminus
Encoding: 177 177 115
Width: 767
Flags: W
LayerCount: 2
Fore
SplineSet
12 12 m 1,0,-1
 12 109 l 1,1,-1
 109 109 l 1,2,-1
 109 12 l 1,3,-1
 12 12 l 1,0,-1
140 12 m 1,4,-1
 140 109 l 1,5,-1
 237 109 l 1,6,-1
 237 12 l 1,7,-1
 140 12 l 1,4,-1
268 12 m 1,8,-1
 268 109 l 1,9,-1
 365 109 l 1,10,-1
 365 12 l 1,11,-1
 268 12 l 1,8,-1
396 12 m 1,12,-1
 396 109 l 1,13,-1
 493 109 l 1,14,-1
 493 12 l 1,15,-1
 396 12 l 1,12,-1
524 12 m 1,16,-1
 524 109 l 1,17,-1
 621 109 l 1,18,-1
 621 12 l 1,19,-1
 524 12 l 1,16,-1
268 268 m 1,20,-1
 268 365 l 1,21,-1
 365 365 l 1,22,-1
 365 268 l 1,23,-1
 268 268 l 1,20,-1
268 396 m 1,24,-1
 268 493 l 1,25,-1
 365 493 l 1,26,-1
 365 396 l 1,27,-1
 268 396 l 1,24,-1
12 524 m 1,28,-1
 12 621 l 1,29,-1
 109 621 l 1,30,-1
 109 524 l 1,31,-1
 12 524 l 1,28,-1
140 524 m 1,32,-1
 140 621 l 1,33,-1
 237 621 l 1,34,-1
 237 524 l 1,35,-1
 140 524 l 1,32,-1
268 524 m 1,36,-1
 268 621 l 1,37,-1
 365 621 l 1,38,-1
 365 524 l 1,39,-1
 268 524 l 1,36,-1
396 524 m 1,40,-1
 396 621 l 1,41,-1
 493 621 l 1,42,-1
 493 524 l 1,43,-1
 396 524 l 1,40,-1
524 524 m 1,44,-1
 524 621 l 1,45,-1
 621 621 l 1,46,-1
 621 524 l 1,47,-1
 524 524 l 1,44,-1
268 652 m 1,48,-1
 268 749 l 1,49,-1
 365 749 l 1,50,-1
 365 652 l 1,51,-1
 268 652 l 1,48,-1
268 780 m 1,52,-1
 268 877 l 1,53,-1
 365 877 l 1,54,-1
 365 780 l 1,55,-1
 268 780 l 1,52,-1
EndSplineSet
Validated: 1
EndChar

StartChar: uni00B2
Encoding: 178 178 116
Width: 767
Flags: W
LayerCount: 2
Fore
SplineSet
12 396 m 1,0,-1
 12 493 l 1,1,-1
 109 493 l 1,2,-1
 109 396 l 1,3,-1
 12 396 l 1,0,-1
140 396 m 1,4,-1
 140 493 l 1,5,-1
 237 493 l 1,6,-1
 237 396 l 1,7,-1
 140 396 l 1,4,-1
268 396 m 1,8,-1
 268 493 l 1,9,-1
 365 493 l 1,10,-1
 365 396 l 1,11,-1
 268 396 l 1,8,-1
396 396 m 1,12,-1
 396 493 l 1,13,-1
 493 493 l 1,14,-1
 493 396 l 1,15,-1
 396 396 l 1,12,-1
140 524 m 1,16,-1
 140 621 l 1,17,-1
 237 621 l 1,18,-1
 237 524 l 1,19,-1
 140 524 l 1,16,-1
268 652 m 1,20,-1
 268 749 l 1,21,-1
 365 749 l 1,22,-1
 365 652 l 1,23,-1
 268 652 l 1,20,-1
12 780 m 1,24,-1
 12 877 l 1,25,-1
 109 877 l 1,26,-1
 109 780 l 1,27,-1
 12 780 l 1,24,-1
396 780 m 1,28,-1
 396 877 l 1,29,-1
 493 877 l 1,30,-1
 493 780 l 1,31,-1
 396 780 l 1,28,-1
140 908 m 1,32,-1
 140 1005 l 1,33,-1
 237 1005 l 1,34,-1
 237 908 l 1,35,-1
 140 908 l 1,32,-1
268 908 m 1,36,-1
 268 1005 l 1,37,-1
 365 1005 l 1,38,-1
 365 908 l 1,39,-1
 268 908 l 1,36,-1
EndSplineSet
Validated: 1
EndChar

StartChar: uni00B3
Encoding: 179 179 117
Width: 767
Flags: W
LayerCount: 2
Fore
SplineSet
12 396 m 1,0,-1
 12 493 l 1,1,-1
 109 493 l 1,2,-1
 109 396 l 1,3,-1
 12 396 l 1,0,-1
140 396 m 1,4,-1
 140 493 l 1,5,-1
 237 493 l 1,6,-1
 237 396 l 1,7,-1
 140 396 l 1,4,-1
268 396 m 1,8,-1
 268 493 l 1,9,-1
 365 493 l 1,10,-1
 365 396 l 1,11,-1
 268 396 l 1,8,-1
396 524 m 1,12,-1
 396 621 l 1,13,-1
 493 621 l 1,14,-1
 493 524 l 1,15,-1
 396 524 l 1,12,-1
140 652 m 1,16,-1
 140 749 l 1,17,-1
 237 749 l 1,18,-1
 237 652 l 1,19,-1
 140 652 l 1,16,-1
268 652 m 1,20,-1
 268 749 l 1,21,-1
 365 749 l 1,22,-1
 365 652 l 1,23,-1
 268 652 l 1,20,-1
396 780 m 1,24,-1
 396 877 l 1,25,-1
 493 877 l 1,26,-1
 493 780 l 1,27,-1
 396 780 l 1,24,-1
12 908 m 1,28,-1
 12 1005 l 1,29,-1
 109 1005 l 1,30,-1
 109 908 l 1,31,-1
 12 908 l 1,28,-1
140 908 m 1,32,-1
 140 1005 l 1,33,-1
 237 1005 l 1,34,-1
 237 908 l 1,35,-1
 140 908 l 1,32,-1
268 908 m 1,36,-1
 268 1005 l 1,37,-1
 365 1005 l 1,38,-1
 365 908 l 1,39,-1
 268 908 l 1,36,-1
EndSplineSet
Validated: 1
EndChar

StartChar: acute
Encoding: 180 180 118
Width: 768
Flags: W
LayerCount: 2
Fore
SplineSet
140 524 m 1,0,-1
 140 621 l 1,1,-1
 237 621 l 1,2,-1
 237 524 l 1,3,-1
 140 524 l 1,0,-1
268 652 m 1,4,-1
 268 749 l 1,5,-1
 365 749 l 1,6,-1
 365 652 l 1,7,-1
 268 652 l 1,4,-1
396 780 m 1,8,-1
 396 877 l 1,9,-1
 493 877 l 1,10,-1
 493 780 l 1,11,-1
 396 780 l 1,8,-1
EndSplineSet
Validated: 1
EndChar

StartChar: mu
Encoding: 181 181 119
Width: 767
Flags: W
LayerCount: 2
Fore
SplineSet
12 12 m 1,0,-1
 12 109 l 1,1,-1
 109 109 l 1,2,-1
 109 12 l 1,3,-1
 12 12 l 1,0,-1
12 140 m 1,4,-1
 12 237 l 1,5,-1
 109 237 l 1,6,-1
 109 140 l 1,7,-1
 12 140 l 1,4,-1
12 268 m 1,8,-1
 12 365 l 1,9,-1
 109 365 l 1,10,-1
 109 268 l 1,11,-1
 12 268 l 1,8,-1
140 268 m 1,12,-1
 140 365 l 1,13,-1
 237 365 l 1,14,-1
 237 268 l 1,15,-1
 140 268 l 1,12,-1
268 268 m 1,16,-1
 268 365 l 1,17,-1
 365 365 l 1,18,-1
 365 268 l 1,19,-1
 268 268 l 1,16,-1
524 268 m 1,20,-1
 524 365 l 1,21,-1
 621 365 l 1,22,-1
 621 268 l 1,23,-1
 524 268 l 1,20,-1
12 396 m 1,24,-1
 12 493 l 1,25,-1
 109 493 l 1,26,-1
 109 396 l 1,27,-1
 12 396 l 1,24,-1
396 396 m 1,28,-1
 396 493 l 1,29,-1
 493 493 l 1,30,-1
 493 396 l 1,31,-1
 396 396 l 1,28,-1
524 396 m 1,32,-1
 524 493 l 1,33,-1
 621 493 l 1,34,-1
 621 396 l 1,35,-1
 524 396 l 1,32,-1
12 524 m 1,36,-1
 12 621 l 1,37,-1
 109 621 l 1,38,-1
 109 524 l 1,39,-1
 12 524 l 1,36,-1
524 524 m 1,40,-1
 524 621 l 1,41,-1
 621 621 l 1,42,-1
 621 524 l 1,43,-1
 524 524 l 1,40,-1
12 652 m 1,44,-1
 12 749 l 1,45,-1
 109 749 l 1,46,-1
 109 652 l 1,47,-1
 12 652 l 1,44,-1
524 652 m 1,48,-1
 524 749 l 1,49,-1
 621 749 l 1,50,-1
 621 652 l 1,51,-1
 524 652 l 1,48,-1
12 780 m 1,52,-1
 12 877 l 1,53,-1
 109 877 l 1,54,-1
 109 780 l 1,55,-1
 12 780 l 1,52,-1
524 780 m 1,56,-1
 524 877 l 1,57,-1
 621 877 l 1,58,-1
 621 780 l 1,59,-1
 524 780 l 1,56,-1
EndSplineSet
Validated: 1
EndChar

StartChar: paragraph
Encoding: 182 182 120
Width: 767
Flags: W
LayerCount: 2
Fore
SplineSet
396 12 m 1,0,-1
 396 109 l 1,1,-1
 493 109 l 1,2,-1
 493 12 l 1,3,-1
 396 12 l 1,0,-1
524 12 m 1,4,-1
 524 109 l 1,5,-1
 621 109 l 1,6,-1
 621 12 l 1,7,-1
 524 12 l 1,4,-1
396 140 m 1,8,-1
 396 237 l 1,9,-1
 493 237 l 1,10,-1
 493 140 l 1,11,-1
 396 140 l 1,8,-1
524 140 m 1,12,-1
 524 237 l 1,13,-1
 621 237 l 1,14,-1
 621 140 l 1,15,-1
 524 140 l 1,12,-1
396 268 m 1,16,-1
 396 365 l 1,17,-1
 493 365 l 1,18,-1
 493 268 l 1,19,-1
 396 268 l 1,16,-1
524 268 m 1,20,-1
 524 365 l 1,21,-1
 621 365 l 1,22,-1
 621 268 l 1,23,-1
 524 268 l 1,20,-1
140 396 m 1,24,-1
 140 493 l 1,25,-1
 237 493 l 1,26,-1
 237 396 l 1,27,-1
 140 396 l 1,24,-1
268 396 m 1,28,-1
 268 493 l 1,29,-1
 365 493 l 1,30,-1
 365 396 l 1,31,-1
 268 396 l 1,28,-1
396 396 m 1,32,-1
 396 493 l 1,33,-1
 493 493 l 1,34,-1
 493 396 l 1,35,-1
 396 396 l 1,32,-1
524 396 m 1,36,-1
 524 493 l 1,37,-1
 621 493 l 1,38,-1
 621 396 l 1,39,-1
 524 396 l 1,36,-1
12 524 m 1,40,-1
 12 621 l 1,41,-1
 109 621 l 1,42,-1
 109 524 l 1,43,-1
 12 524 l 1,40,-1
396 524 m 1,44,-1
 396 621 l 1,45,-1
 493 621 l 1,46,-1
 493 524 l 1,47,-1
 396 524 l 1,44,-1
524 524 m 1,48,-1
 524 621 l 1,49,-1
 621 621 l 1,50,-1
 621 524 l 1,51,-1
 524 524 l 1,48,-1
12 652 m 1,52,-1
 12 749 l 1,53,-1
 109 749 l 1,54,-1
 109 652 l 1,55,-1
 12 652 l 1,52,-1
396 652 m 1,56,-1
 396 749 l 1,57,-1
 493 749 l 1,58,-1
 493 652 l 1,59,-1
 396 652 l 1,56,-1
524 652 m 1,60,-1
 524 749 l 1,61,-1
 621 749 l 1,62,-1
 621 652 l 1,63,-1
 524 652 l 1,60,-1
140 780 m 1,64,-1
 140 877 l 1,65,-1
 237 877 l 1,66,-1
 237 780 l 1,67,-1
 140 780 l 1,64,-1
268 780 m 1,68,-1
 268 877 l 1,69,-1
 365 877 l 1,70,-1
 365 780 l 1,71,-1
 268 780 l 1,68,-1
396 780 m 1,72,-1
 396 877 l 1,73,-1
 493 877 l 1,74,-1
 493 780 l 1,75,-1
 396 780 l 1,72,-1
524 780 m 1,76,-1
 524 877 l 1,77,-1
 621 877 l 1,78,-1
 621 780 l 1,79,-1
 524 780 l 1,76,-1
EndSplineSet
Validated: 1
EndChar

StartChar: periodcentered
Encoding: 183 183 121
Width: 768
Flags: W
LayerCount: 2
Fore
SplineSet
140 268 m 1,0,-1
 140 365 l 1,1,-1
 237 365 l 1,2,-1
 237 268 l 1,3,-1
 140 268 l 1,0,-1
268 268 m 1,4,-1
 268 365 l 1,5,-1
 365 365 l 1,6,-1
 365 268 l 1,7,-1
 268 268 l 1,4,-1
140 396 m 1,8,-1
 140 493 l 1,9,-1
 237 493 l 1,10,-1
 237 396 l 1,11,-1
 140 396 l 1,8,-1
268 396 m 1,12,-1
 268 493 l 1,13,-1
 365 493 l 1,14,-1
 365 396 l 1,15,-1
 268 396 l 1,12,-1
EndSplineSet
Validated: 1
EndChar

StartChar: cedilla
Encoding: 184 184 122
Width: 768
Flags: W
LayerCount: 2
Fore
SplineSet
140 12 m 1,0,-1
 140 109 l 1,1,-1
 237 109 l 1,2,-1
 237 12 l 1,3,-1
 140 12 l 1,0,-1
268 12 m 1,4,-1
 268 109 l 1,5,-1
 365 109 l 1,6,-1
 365 12 l 1,7,-1
 268 12 l 1,4,-1
396 140 m 1,8,-1
 396 237 l 1,9,-1
 493 237 l 1,10,-1
 493 140 l 1,11,-1
 396 140 l 1,8,-1
268 268 m 1,12,-1
 268 365 l 1,13,-1
 365 365 l 1,14,-1
 365 268 l 1,15,-1
 268 268 l 1,12,-1
268 396 m 1,16,-1
 268 493 l 1,17,-1
 365 493 l 1,18,-1
 365 396 l 1,19,-1
 268 396 l 1,16,-1
EndSplineSet
Validated: 1
EndChar

StartChar: uni00B9
Encoding: 185 185 123
Width: 767
Flags: W
LayerCount: 2
Fore
SplineSet
12 396 m 1,0,-1
 12 493 l 1,1,-1
 109 493 l 1,2,-1
 109 396 l 1,3,-1
 12 396 l 1,0,-1
140 396 m 1,4,-1
 140 493 l 1,5,-1
 237 493 l 1,6,-1
 237 396 l 1,7,-1
 140 396 l 1,4,-1
268 396 m 1,8,-1
 268 493 l 1,9,-1
 365 493 l 1,10,-1
 365 396 l 1,11,-1
 268 396 l 1,8,-1
140 524 m 1,12,-1
 140 621 l 1,13,-1
 237 621 l 1,14,-1
 237 524 l 1,15,-1
 140 524 l 1,12,-1
140 652 m 1,16,-1
 140 749 l 1,17,-1
 237 749 l 1,18,-1
 237 652 l 1,19,-1
 140 652 l 1,16,-1
12 780 m 1,20,-1
 12 877 l 1,21,-1
 109 877 l 1,22,-1
 109 780 l 1,23,-1
 12 780 l 1,20,-1
140 780 m 1,24,-1
 140 877 l 1,25,-1
 237 877 l 1,26,-1
 237 780 l 1,27,-1
 140 780 l 1,24,-1
140 908 m 1,28,-1
 140 1005 l 1,29,-1
 237 1005 l 1,30,-1
 237 908 l 1,31,-1
 140 908 l 1,28,-1
EndSplineSet
Validated: 1
EndChar

StartChar: ordmasculine
Encoding: 186 186 124
Width: 767
Flags: W
LayerCount: 2
Fore
SplineSet
12 12 m 1,0,-1
 12 109 l 1,1,-1
 109 109 l 1,2,-1
 109 12 l 1,3,-1
 12 12 l 1,0,-1
140 12 m 1,4,-1
 140 109 l 1,5,-1
 237 109 l 1,6,-1
 237 12 l 1,7,-1
 140 12 l 1,4,-1
268 12 m 1,8,-1
 268 109 l 1,9,-1
 365 109 l 1,10,-1
 365 12 l 1,11,-1
 268 12 l 1,8,-1
396 12 m 1,12,-1
 396 109 l 1,13,-1
 493 109 l 1,14,-1
 493 12 l 1,15,-1
 396 12 l 1,12,-1
524 12 m 1,16,-1
 524 109 l 1,17,-1
 621 109 l 1,18,-1
 621 12 l 1,19,-1
 524 12 l 1,16,-1
140 268 m 1,20,-1
 140 365 l 1,21,-1
 237 365 l 1,22,-1
 237 268 l 1,23,-1
 140 268 l 1,20,-1
268 268 m 1,24,-1
 268 365 l 1,25,-1
 365 365 l 1,26,-1
 365 268 l 1,27,-1
 268 268 l 1,24,-1
396 268 m 1,28,-1
 396 365 l 1,29,-1
 493 365 l 1,30,-1
 493 268 l 1,31,-1
 396 268 l 1,28,-1
12 396 m 1,32,-1
 12 493 l 1,33,-1
 109 493 l 1,34,-1
 109 396 l 1,35,-1
 12 396 l 1,32,-1
524 396 m 1,36,-1
 524 493 l 1,37,-1
 621 493 l 1,38,-1
 621 396 l 1,39,-1
 524 396 l 1,36,-1
12 524 m 1,40,-1
 12 621 l 1,41,-1
 109 621 l 1,42,-1
 109 524 l 1,43,-1
 12 524 l 1,40,-1
524 524 m 1,44,-1
 524 621 l 1,45,-1
 621 621 l 1,46,-1
 621 524 l 1,47,-1
 524 524 l 1,44,-1
12 652 m 1,48,-1
 12 749 l 1,49,-1
 109 749 l 1,50,-1
 109 652 l 1,51,-1
 12 652 l 1,48,-1
524 652 m 1,52,-1
 524 749 l 1,53,-1
 621 749 l 1,54,-1
 621 652 l 1,55,-1
 524 652 l 1,52,-1
140 780 m 1,56,-1
 140 877 l 1,57,-1
 237 877 l 1,58,-1
 237 780 l 1,59,-1
 140 780 l 1,56,-1
268 780 m 1,60,-1
 268 877 l 1,61,-1
 365 877 l 1,62,-1
 365 780 l 1,63,-1
 268 780 l 1,60,-1
396 780 m 1,64,-1
 396 877 l 1,65,-1
 493 877 l 1,66,-1
 493 780 l 1,67,-1
 396 780 l 1,64,-1
EndSplineSet
Validated: 1
EndChar

StartChar: guillemotright
Encoding: 187 187 125
Width: 767
Flags: W
LayerCount: 2
Fore
SplineSet
12 12 m 1,0,-1
 12 109 l 1,1,-1
 109 109 l 1,2,-1
 109 12 l 1,3,-1
 12 12 l 1,0,-1
268 12 m 1,4,-1
 268 109 l 1,5,-1
 365 109 l 1,6,-1
 365 12 l 1,7,-1
 268 12 l 1,4,-1
140 140 m 1,8,-1
 140 237 l 1,9,-1
 237 237 l 1,10,-1
 237 140 l 1,11,-1
 140 140 l 1,8,-1
396 140 m 1,12,-1
 396 237 l 1,13,-1
 493 237 l 1,14,-1
 493 140 l 1,15,-1
 396 140 l 1,12,-1
268 268 m 1,16,-1
 268 365 l 1,17,-1
 365 365 l 1,18,-1
 365 268 l 1,19,-1
 268 268 l 1,16,-1
524 268 m 1,20,-1
 524 365 l 1,21,-1
 621 365 l 1,22,-1
 621 268 l 1,23,-1
 524 268 l 1,20,-1
140 396 m 1,24,-1
 140 493 l 1,25,-1
 237 493 l 1,26,-1
 237 396 l 1,27,-1
 140 396 l 1,24,-1
396 396 m 1,28,-1
 396 493 l 1,29,-1
 493 493 l 1,30,-1
 493 396 l 1,31,-1
 396 396 l 1,28,-1
12 524 m 1,32,-1
 12 621 l 1,33,-1
 109 621 l 1,34,-1
 109 524 l 1,35,-1
 12 524 l 1,32,-1
268 524 m 1,36,-1
 268 621 l 1,37,-1
 365 621 l 1,38,-1
 365 524 l 1,39,-1
 268 524 l 1,36,-1
EndSplineSet
Validated: 1
EndChar

StartChar: onequarter
Encoding: 188 188 126
Width: 767
Flags: W
LayerCount: 2
Fore
SplineSet
396 12 m 1,0,-1
 396 109 l 1,1,-1
 493 109 l 1,2,-1
 493 12 l 1,3,-1
 396 12 l 1,0,-1
140 140 m 1,4,-1
 140 237 l 1,5,-1
 237 237 l 1,6,-1
 237 140 l 1,7,-1
 140 140 l 1,4,-1
268 140 m 1,8,-1
 268 237 l 1,9,-1
 365 237 l 1,10,-1
 365 140 l 1,11,-1
 268 140 l 1,8,-1
396 140 m 1,12,-1
 396 237 l 1,13,-1
 493 237 l 1,14,-1
 493 140 l 1,15,-1
 396 140 l 1,12,-1
524 140 m 1,16,-1
 524 237 l 1,17,-1
 621 237 l 1,18,-1
 621 140 l 1,19,-1
 524 140 l 1,16,-1
140 268 m 1,20,-1
 140 365 l 1,21,-1
 237 365 l 1,22,-1
 237 268 l 1,23,-1
 140 268 l 1,20,-1
396 268 m 1,24,-1
 396 365 l 1,25,-1
 493 365 l 1,26,-1
 493 268 l 1,27,-1
 396 268 l 1,24,-1
12 396 m 1,28,-1
 12 493 l 1,29,-1
 109 493 l 1,30,-1
 109 396 l 1,31,-1
 12 396 l 1,28,-1
268 396 m 1,32,-1
 268 493 l 1,33,-1
 365 493 l 1,34,-1
 365 396 l 1,35,-1
 268 396 l 1,32,-1
396 396 m 1,36,-1
 396 493 l 1,37,-1
 493 493 l 1,38,-1
 493 396 l 1,39,-1
 396 396 l 1,36,-1
140 524 m 1,40,-1
 140 621 l 1,41,-1
 237 621 l 1,42,-1
 237 524 l 1,43,-1
 140 524 l 1,40,-1
396 524 m 1,44,-1
 396 621 l 1,45,-1
 493 621 l 1,46,-1
 493 524 l 1,47,-1
 396 524 l 1,44,-1
12 652 m 1,48,-1
 12 749 l 1,49,-1
 109 749 l 1,50,-1
 109 652 l 1,51,-1
 12 652 l 1,48,-1
268 652 m 1,52,-1
 268 749 l 1,53,-1
 365 749 l 1,54,-1
 365 652 l 1,55,-1
 268 652 l 1,52,-1
12 780 m 1,56,-1
 12 877 l 1,57,-1
 109 877 l 1,58,-1
 109 780 l 1,59,-1
 12 780 l 1,56,-1
396 780 m 1,60,-1
 396 877 l 1,61,-1
 493 877 l 1,62,-1
 493 780 l 1,63,-1
 396 780 l 1,60,-1
12 908 m 1,64,-1
 12 1005 l 1,65,-1
 109 1005 l 1,66,-1
 109 908 l 1,67,-1
 12 908 l 1,64,-1
524 908 m 1,68,-1
 524 1005 l 1,69,-1
 621 1005 l 1,70,-1
 621 908 l 1,71,-1
 524 908 l 1,68,-1
EndSplineSet
Validated: 1
EndChar

StartChar: onehalf
Encoding: 189 189 127
Width: 767
Flags: W
LayerCount: 2
Fore
SplineSet
268 12 m 1,0,-1
 268 109 l 1,1,-1
 365 109 l 1,2,-1
 365 12 l 1,3,-1
 268 12 l 1,0,-1
396 12 m 1,4,-1
 396 109 l 1,5,-1
 493 109 l 1,6,-1
 493 12 l 1,7,-1
 396 12 l 1,4,-1
524 12 m 1,8,-1
 524 109 l 1,9,-1
 621 109 l 1,10,-1
 621 12 l 1,11,-1
 524 12 l 1,8,-1
396 140 m 1,12,-1
 396 237 l 1,13,-1
 493 237 l 1,14,-1
 493 140 l 1,15,-1
 396 140 l 1,12,-1
524 268 m 1,16,-1
 524 365 l 1,17,-1
 621 365 l 1,18,-1
 621 268 l 1,19,-1
 524 268 l 1,16,-1
12 396 m 1,20,-1
 12 493 l 1,21,-1
 109 493 l 1,22,-1
 109 396 l 1,23,-1
 12 396 l 1,20,-1
268 396 m 1,24,-1
 268 493 l 1,25,-1
 365 493 l 1,26,-1
 365 396 l 1,27,-1
 268 396 l 1,24,-1
524 396 m 1,28,-1
 524 493 l 1,29,-1
 621 493 l 1,30,-1
 621 396 l 1,31,-1
 524 396 l 1,28,-1
140 524 m 1,32,-1
 140 621 l 1,33,-1
 237 621 l 1,34,-1
 237 524 l 1,35,-1
 140 524 l 1,32,-1
396 524 m 1,36,-1
 396 621 l 1,37,-1
 493 621 l 1,38,-1
 493 524 l 1,39,-1
 396 524 l 1,36,-1
12 652 m 1,40,-1
 12 749 l 1,41,-1
 109 749 l 1,42,-1
 109 652 l 1,43,-1
 12 652 l 1,40,-1
268 652 m 1,44,-1
 268 749 l 1,45,-1
 365 749 l 1,46,-1
 365 652 l 1,47,-1
 268 652 l 1,44,-1
12 780 m 1,48,-1
 12 877 l 1,49,-1
 109 877 l 1,50,-1
 109 780 l 1,51,-1
 12 780 l 1,48,-1
396 780 m 1,52,-1
 396 877 l 1,53,-1
 493 877 l 1,54,-1
 493 780 l 1,55,-1
 396 780 l 1,52,-1
12 908 m 1,56,-1
 12 1005 l 1,57,-1
 109 1005 l 1,58,-1
 109 908 l 1,59,-1
 12 908 l 1,56,-1
524 908 m 1,60,-1
 524 1005 l 1,61,-1
 621 1005 l 1,62,-1
 621 908 l 1,63,-1
 524 908 l 1,60,-1
EndSplineSet
Validated: 1
EndChar

StartChar: threequarters
Encoding: 190 190 128
Width: 767
Flags: W
LayerCount: 2
Fore
SplineSet
524 12 m 1,0,-1
 524 109 l 1,1,-1
 621 109 l 1,2,-1
 621 12 l 1,3,-1
 524 12 l 1,0,-1
268 140 m 1,4,-1
 268 237 l 1,5,-1
 365 237 l 1,6,-1
 365 140 l 1,7,-1
 268 140 l 1,4,-1
396 140 m 1,8,-1
 396 237 l 1,9,-1
 493 237 l 1,10,-1
 493 140 l 1,11,-1
 396 140 l 1,8,-1
524 140 m 1,12,-1
 524 237 l 1,13,-1
 621 237 l 1,14,-1
 621 140 l 1,15,-1
 524 140 l 1,12,-1
268 268 m 1,16,-1
 268 365 l 1,17,-1
 365 365 l 1,18,-1
 365 268 l 1,19,-1
 268 268 l 1,16,-1
524 268 m 1,20,-1
 524 365 l 1,21,-1
 621 365 l 1,22,-1
 621 268 l 1,23,-1
 524 268 l 1,20,-1
12 396 m 1,24,-1
 12 493 l 1,25,-1
 109 493 l 1,26,-1
 109 396 l 1,27,-1
 12 396 l 1,24,-1
140 396 m 1,28,-1
 140 493 l 1,29,-1
 237 493 l 1,30,-1
 237 396 l 1,31,-1
 140 396 l 1,28,-1
396 396 m 1,32,-1
 396 493 l 1,33,-1
 493 493 l 1,34,-1
 493 396 l 1,35,-1
 396 396 l 1,32,-1
524 396 m 1,36,-1
 524 493 l 1,37,-1
 621 493 l 1,38,-1
 621 396 l 1,39,-1
 524 396 l 1,36,-1
140 524 m 1,40,-1
 140 621 l 1,41,-1
 237 621 l 1,42,-1
 237 524 l 1,43,-1
 140 524 l 1,40,-1
524 524 m 1,44,-1
 524 621 l 1,45,-1
 621 621 l 1,46,-1
 621 524 l 1,47,-1
 524 524 l 1,44,-1
12 652 m 1,48,-1
 12 749 l 1,49,-1
 109 749 l 1,50,-1
 109 652 l 1,51,-1
 12 652 l 1,48,-1
140 652 m 1,52,-1
 140 749 l 1,53,-1
 237 749 l 1,54,-1
 237 652 l 1,55,-1
 140 652 l 1,52,-1
140 780 m 1,56,-1
 140 877 l 1,57,-1
 237 877 l 1,58,-1
 237 780 l 1,59,-1
 140 780 l 1,56,-1
12 908 m 1,60,-1
 12 1005 l 1,61,-1
 109 1005 l 1,62,-1
 109 908 l 1,63,-1
 12 908 l 1,60,-1
140 908 m 1,64,-1
 140 1005 l 1,65,-1
 237 1005 l 1,66,-1
 237 908 l 1,67,-1
 140 908 l 1,64,-1
EndSplineSet
Validated: 1
EndChar

StartChar: questiondown
Encoding: 191 191 129
Width: 767
Flags: W
LayerCount: 2
Fore
SplineSet
140 12 m 1,0,-1
 140 109 l 1,1,-1
 237 109 l 1,2,-1
 237 12 l 1,3,-1
 140 12 l 1,0,-1
268 12 m 1,4,-1
 268 109 l 1,5,-1
 365 109 l 1,6,-1
 365 12 l 1,7,-1
 268 12 l 1,4,-1
396 12 m 1,8,-1
 396 109 l 1,9,-1
 493 109 l 1,10,-1
 493 12 l 1,11,-1
 396 12 l 1,8,-1
12 140 m 1,12,-1
 12 237 l 1,13,-1
 109 237 l 1,14,-1
 109 140 l 1,15,-1
 12 140 l 1,12,-1
524 140 m 1,16,-1
 524 237 l 1,17,-1
 621 237 l 1,18,-1
 621 140 l 1,19,-1
 524 140 l 1,16,-1
12 268 m 1,20,-1
 12 365 l 1,21,-1
 109 365 l 1,22,-1
 109 268 l 1,23,-1
 12 268 l 1,20,-1
140 396 m 1,24,-1
 140 493 l 1,25,-1
 237 493 l 1,26,-1
 237 396 l 1,27,-1
 140 396 l 1,24,-1
268 524 m 1,28,-1
 268 621 l 1,29,-1
 365 621 l 1,30,-1
 365 524 l 1,31,-1
 268 524 l 1,28,-1
268 780 m 1,32,-1
 268 877 l 1,33,-1
 365 877 l 1,34,-1
 365 780 l 1,35,-1
 268 780 l 1,32,-1
EndSplineSet
Validated: 1
EndChar

StartChar: Agrave
Encoding: 192 192 130
Width: 767
Flags: W
LayerCount: 2
Fore
SplineSet
12 12 m 1,0,-1
 12 109 l 1,1,-1
 109 109 l 1,2,-1
 109 12 l 1,3,-1
 12 12 l 1,0,-1
524 12 m 1,4,-1
 524 109 l 1,5,-1
 621 109 l 1,6,-1
 621 12 l 1,7,-1
 524 12 l 1,4,-1
12 140 m 1,8,-1
 12 237 l 1,9,-1
 109 237 l 1,10,-1
 109 140 l 1,11,-1
 12 140 l 1,8,-1
524 140 m 1,12,-1
 524 237 l 1,13,-1
 621 237 l 1,14,-1
 621 140 l 1,15,-1
 524 140 l 1,12,-1
12 268 m 1,16,-1
 12 365 l 1,17,-1
 109 365 l 1,18,-1
 109 268 l 1,19,-1
 12 268 l 1,16,-1
140 268 m 1,20,-1
 140 365 l 1,21,-1
 237 365 l 1,22,-1
 237 268 l 1,23,-1
 140 268 l 1,20,-1
268 268 m 1,24,-1
 268 365 l 1,25,-1
 365 365 l 1,26,-1
 365 268 l 1,27,-1
 268 268 l 1,24,-1
396 268 m 1,28,-1
 396 365 l 1,29,-1
 493 365 l 1,30,-1
 493 268 l 1,31,-1
 396 268 l 1,28,-1
524 268 m 1,32,-1
 524 365 l 1,33,-1
 621 365 l 1,34,-1
 621 268 l 1,35,-1
 524 268 l 1,32,-1
12 396 m 1,36,-1
 12 493 l 1,37,-1
 109 493 l 1,38,-1
 109 396 l 1,39,-1
 12 396 l 1,36,-1
524 396 m 1,40,-1
 524 493 l 1,41,-1
 621 493 l 1,42,-1
 621 396 l 1,43,-1
 524 396 l 1,40,-1
140 524 m 1,44,-1
 140 621 l 1,45,-1
 237 621 l 1,46,-1
 237 524 l 1,47,-1
 140 524 l 1,44,-1
268 524 m 1,48,-1
 268 621 l 1,49,-1
 365 621 l 1,50,-1
 365 524 l 1,51,-1
 268 524 l 1,48,-1
396 524 m 1,52,-1
 396 621 l 1,53,-1
 493 621 l 1,54,-1
 493 524 l 1,55,-1
 396 524 l 1,52,-1
268 652 m 1,56,-1
 268 749 l 1,57,-1
 365 749 l 1,58,-1
 365 652 l 1,59,-1
 268 652 l 1,56,-1
268 780 m 1,60,-1
 268 877 l 1,61,-1
 365 877 l 1,62,-1
 365 780 l 1,63,-1
 268 780 l 1,60,-1
140 908 m 1,64,-1
 140 1005 l 1,65,-1
 237 1005 l 1,66,-1
 237 908 l 1,67,-1
 140 908 l 1,64,-1
EndSplineSet
Validated: 1
EndChar

StartChar: Aacute
Encoding: 193 193 131
Width: 767
Flags: W
LayerCount: 2
Fore
SplineSet
12 12 m 1,0,-1
 12 109 l 1,1,-1
 109 109 l 1,2,-1
 109 12 l 1,3,-1
 12 12 l 1,0,-1
524 12 m 1,4,-1
 524 109 l 1,5,-1
 621 109 l 1,6,-1
 621 12 l 1,7,-1
 524 12 l 1,4,-1
12 140 m 1,8,-1
 12 237 l 1,9,-1
 109 237 l 1,10,-1
 109 140 l 1,11,-1
 12 140 l 1,8,-1
524 140 m 1,12,-1
 524 237 l 1,13,-1
 621 237 l 1,14,-1
 621 140 l 1,15,-1
 524 140 l 1,12,-1
12 268 m 1,16,-1
 12 365 l 1,17,-1
 109 365 l 1,18,-1
 109 268 l 1,19,-1
 12 268 l 1,16,-1
140 268 m 1,20,-1
 140 365 l 1,21,-1
 237 365 l 1,22,-1
 237 268 l 1,23,-1
 140 268 l 1,20,-1
268 268 m 1,24,-1
 268 365 l 1,25,-1
 365 365 l 1,26,-1
 365 268 l 1,27,-1
 268 268 l 1,24,-1
396 268 m 1,28,-1
 396 365 l 1,29,-1
 493 365 l 1,30,-1
 493 268 l 1,31,-1
 396 268 l 1,28,-1
524 268 m 1,32,-1
 524 365 l 1,33,-1
 621 365 l 1,34,-1
 621 268 l 1,35,-1
 524 268 l 1,32,-1
12 396 m 1,36,-1
 12 493 l 1,37,-1
 109 493 l 1,38,-1
 109 396 l 1,39,-1
 12 396 l 1,36,-1
524 396 m 1,40,-1
 524 493 l 1,41,-1
 621 493 l 1,42,-1
 621 396 l 1,43,-1
 524 396 l 1,40,-1
140 524 m 1,44,-1
 140 621 l 1,45,-1
 237 621 l 1,46,-1
 237 524 l 1,47,-1
 140 524 l 1,44,-1
268 524 m 1,48,-1
 268 621 l 1,49,-1
 365 621 l 1,50,-1
 365 524 l 1,51,-1
 268 524 l 1,48,-1
396 524 m 1,52,-1
 396 621 l 1,53,-1
 493 621 l 1,54,-1
 493 524 l 1,55,-1
 396 524 l 1,52,-1
268 652 m 1,56,-1
 268 749 l 1,57,-1
 365 749 l 1,58,-1
 365 652 l 1,59,-1
 268 652 l 1,56,-1
268 780 m 1,60,-1
 268 877 l 1,61,-1
 365 877 l 1,62,-1
 365 780 l 1,63,-1
 268 780 l 1,60,-1
396 908 m 1,64,-1
 396 1005 l 1,65,-1
 493 1005 l 1,66,-1
 493 908 l 1,67,-1
 396 908 l 1,64,-1
EndSplineSet
Validated: 1
EndChar

StartChar: Acircumflex
Encoding: 194 194 132
Width: 767
Flags: W
LayerCount: 2
Fore
SplineSet
12 12 m 1,0,-1
 12 109 l 1,1,-1
 109 109 l 1,2,-1
 109 12 l 1,3,-1
 12 12 l 1,0,-1
524 12 m 1,4,-1
 524 109 l 1,5,-1
 621 109 l 1,6,-1
 621 12 l 1,7,-1
 524 12 l 1,4,-1
12 140 m 1,8,-1
 12 237 l 1,9,-1
 109 237 l 1,10,-1
 109 140 l 1,11,-1
 12 140 l 1,8,-1
524 140 m 1,12,-1
 524 237 l 1,13,-1
 621 237 l 1,14,-1
 621 140 l 1,15,-1
 524 140 l 1,12,-1
12 268 m 1,16,-1
 12 365 l 1,17,-1
 109 365 l 1,18,-1
 109 268 l 1,19,-1
 12 268 l 1,16,-1
140 268 m 1,20,-1
 140 365 l 1,21,-1
 237 365 l 1,22,-1
 237 268 l 1,23,-1
 140 268 l 1,20,-1
268 268 m 1,24,-1
 268 365 l 1,25,-1
 365 365 l 1,26,-1
 365 268 l 1,27,-1
 268 268 l 1,24,-1
396 268 m 1,28,-1
 396 365 l 1,29,-1
 493 365 l 1,30,-1
 493 268 l 1,31,-1
 396 268 l 1,28,-1
524 268 m 1,32,-1
 524 365 l 1,33,-1
 621 365 l 1,34,-1
 621 268 l 1,35,-1
 524 268 l 1,32,-1
12 396 m 1,36,-1
 12 493 l 1,37,-1
 109 493 l 1,38,-1
 109 396 l 1,39,-1
 12 396 l 1,36,-1
524 396 m 1,40,-1
 524 493 l 1,41,-1
 621 493 l 1,42,-1
 621 396 l 1,43,-1
 524 396 l 1,40,-1
140 524 m 1,44,-1
 140 621 l 1,45,-1
 237 621 l 1,46,-1
 237 524 l 1,47,-1
 140 524 l 1,44,-1
268 524 m 1,48,-1
 268 621 l 1,49,-1
 365 621 l 1,50,-1
 365 524 l 1,51,-1
 268 524 l 1,48,-1
396 524 m 1,52,-1
 396 621 l 1,53,-1
 493 621 l 1,54,-1
 493 524 l 1,55,-1
 396 524 l 1,52,-1
140 780 m 1,56,-1
 140 877 l 1,57,-1
 237 877 l 1,58,-1
 237 780 l 1,59,-1
 140 780 l 1,56,-1
396 780 m 1,60,-1
 396 877 l 1,61,-1
 493 877 l 1,62,-1
 493 780 l 1,63,-1
 396 780 l 1,60,-1
268 908 m 1,64,-1
 268 1005 l 1,65,-1
 365 1005 l 1,66,-1
 365 908 l 1,67,-1
 268 908 l 1,64,-1
EndSplineSet
Validated: 1
EndChar

StartChar: Atilde
Encoding: 195 195 133
Width: 767
Flags: W
LayerCount: 2
Fore
SplineSet
12 12 m 1,0,-1
 12 109 l 1,1,-1
 109 109 l 1,2,-1
 109 12 l 1,3,-1
 12 12 l 1,0,-1
524 12 m 1,4,-1
 524 109 l 1,5,-1
 621 109 l 1,6,-1
 621 12 l 1,7,-1
 524 12 l 1,4,-1
12 140 m 1,8,-1
 12 237 l 1,9,-1
 109 237 l 1,10,-1
 109 140 l 1,11,-1
 12 140 l 1,8,-1
524 140 m 1,12,-1
 524 237 l 1,13,-1
 621 237 l 1,14,-1
 621 140 l 1,15,-1
 524 140 l 1,12,-1
12 268 m 1,16,-1
 12 365 l 1,17,-1
 109 365 l 1,18,-1
 109 268 l 1,19,-1
 12 268 l 1,16,-1
140 268 m 1,20,-1
 140 365 l 1,21,-1
 237 365 l 1,22,-1
 237 268 l 1,23,-1
 140 268 l 1,20,-1
268 268 m 1,24,-1
 268 365 l 1,25,-1
 365 365 l 1,26,-1
 365 268 l 1,27,-1
 268 268 l 1,24,-1
396 268 m 1,28,-1
 396 365 l 1,29,-1
 493 365 l 1,30,-1
 493 268 l 1,31,-1
 396 268 l 1,28,-1
524 268 m 1,32,-1
 524 365 l 1,33,-1
 621 365 l 1,34,-1
 621 268 l 1,35,-1
 524 268 l 1,32,-1
12 396 m 1,36,-1
 12 493 l 1,37,-1
 109 493 l 1,38,-1
 109 396 l 1,39,-1
 12 396 l 1,36,-1
524 396 m 1,40,-1
 524 493 l 1,41,-1
 621 493 l 1,42,-1
 621 396 l 1,43,-1
 524 396 l 1,40,-1
140 524 m 1,44,-1
 140 621 l 1,45,-1
 237 621 l 1,46,-1
 237 524 l 1,47,-1
 140 524 l 1,44,-1
268 524 m 1,48,-1
 268 621 l 1,49,-1
 365 621 l 1,50,-1
 365 524 l 1,51,-1
 268 524 l 1,48,-1
396 524 m 1,52,-1
 396 621 l 1,53,-1
 493 621 l 1,54,-1
 493 524 l 1,55,-1
 396 524 l 1,52,-1
12 780 m 1,56,-1
 12 877 l 1,57,-1
 109 877 l 1,58,-1
 109 780 l 1,59,-1
 12 780 l 1,56,-1
396 780 m 1,60,-1
 396 877 l 1,61,-1
 493 877 l 1,62,-1
 493 780 l 1,63,-1
 396 780 l 1,60,-1
140 908 m 1,64,-1
 140 1005 l 1,65,-1
 237 1005 l 1,66,-1
 237 908 l 1,67,-1
 140 908 l 1,64,-1
268 908 m 1,68,-1
 268 1005 l 1,69,-1
 365 1005 l 1,70,-1
 365 908 l 1,71,-1
 268 908 l 1,68,-1
524 908 m 1,72,-1
 524 1005 l 1,73,-1
 621 1005 l 1,74,-1
 621 908 l 1,75,-1
 524 908 l 1,72,-1
EndSplineSet
Validated: 1
EndChar

StartChar: Adieresis
Encoding: 196 196 134
Width: 767
Flags: W
LayerCount: 2
Fore
SplineSet
12 12 m 1,0,-1
 12 109 l 1,1,-1
 109 109 l 1,2,-1
 109 12 l 1,3,-1
 12 12 l 1,0,-1
524 12 m 1,4,-1
 524 109 l 1,5,-1
 621 109 l 1,6,-1
 621 12 l 1,7,-1
 524 12 l 1,4,-1
12 140 m 1,8,-1
 12 237 l 1,9,-1
 109 237 l 1,10,-1
 109 140 l 1,11,-1
 12 140 l 1,8,-1
524 140 m 1,12,-1
 524 237 l 1,13,-1
 621 237 l 1,14,-1
 621 140 l 1,15,-1
 524 140 l 1,12,-1
12 268 m 1,16,-1
 12 365 l 1,17,-1
 109 365 l 1,18,-1
 109 268 l 1,19,-1
 12 268 l 1,16,-1
140 268 m 1,20,-1
 140 365 l 1,21,-1
 237 365 l 1,22,-1
 237 268 l 1,23,-1
 140 268 l 1,20,-1
268 268 m 1,24,-1
 268 365 l 1,25,-1
 365 365 l 1,26,-1
 365 268 l 1,27,-1
 268 268 l 1,24,-1
396 268 m 1,28,-1
 396 365 l 1,29,-1
 493 365 l 1,30,-1
 493 268 l 1,31,-1
 396 268 l 1,28,-1
524 268 m 1,32,-1
 524 365 l 1,33,-1
 621 365 l 1,34,-1
 621 268 l 1,35,-1
 524 268 l 1,32,-1
12 396 m 1,36,-1
 12 493 l 1,37,-1
 109 493 l 1,38,-1
 109 396 l 1,39,-1
 12 396 l 1,36,-1
524 396 m 1,40,-1
 524 493 l 1,41,-1
 621 493 l 1,42,-1
 621 396 l 1,43,-1
 524 396 l 1,40,-1
140 524 m 1,44,-1
 140 621 l 1,45,-1
 237 621 l 1,46,-1
 237 524 l 1,47,-1
 140 524 l 1,44,-1
268 524 m 1,48,-1
 268 621 l 1,49,-1
 365 621 l 1,50,-1
 365 524 l 1,51,-1
 268 524 l 1,48,-1
396 524 m 1,52,-1
 396 621 l 1,53,-1
 493 621 l 1,54,-1
 493 524 l 1,55,-1
 396 524 l 1,52,-1
268 652 m 1,56,-1
 268 749 l 1,57,-1
 365 749 l 1,58,-1
 365 652 l 1,59,-1
 268 652 l 1,56,-1
140 908 m 1,60,-1
 140 1005 l 1,61,-1
 237 1005 l 1,62,-1
 237 908 l 1,63,-1
 140 908 l 1,60,-1
396 908 m 1,64,-1
 396 1005 l 1,65,-1
 493 1005 l 1,66,-1
 493 908 l 1,67,-1
 396 908 l 1,64,-1
EndSplineSet
Validated: 1
EndChar

StartChar: Aring
Encoding: 197 197 135
Width: 767
Flags: W
LayerCount: 2
Fore
SplineSet
12 12 m 1,0,-1
 12 109 l 1,1,-1
 109 109 l 1,2,-1
 109 12 l 1,3,-1
 12 12 l 1,0,-1
524 12 m 1,4,-1
 524 109 l 1,5,-1
 621 109 l 1,6,-1
 621 12 l 1,7,-1
 524 12 l 1,4,-1
12 140 m 1,8,-1
 12 237 l 1,9,-1
 109 237 l 1,10,-1
 109 140 l 1,11,-1
 12 140 l 1,8,-1
524 140 m 1,12,-1
 524 237 l 1,13,-1
 621 237 l 1,14,-1
 621 140 l 1,15,-1
 524 140 l 1,12,-1
12 268 m 1,16,-1
 12 365 l 1,17,-1
 109 365 l 1,18,-1
 109 268 l 1,19,-1
 12 268 l 1,16,-1
140 268 m 1,20,-1
 140 365 l 1,21,-1
 237 365 l 1,22,-1
 237 268 l 1,23,-1
 140 268 l 1,20,-1
268 268 m 1,24,-1
 268 365 l 1,25,-1
 365 365 l 1,26,-1
 365 268 l 1,27,-1
 268 268 l 1,24,-1
396 268 m 1,28,-1
 396 365 l 1,29,-1
 493 365 l 1,30,-1
 493 268 l 1,31,-1
 396 268 l 1,28,-1
524 268 m 1,32,-1
 524 365 l 1,33,-1
 621 365 l 1,34,-1
 621 268 l 1,35,-1
 524 268 l 1,32,-1
12 396 m 1,36,-1
 12 493 l 1,37,-1
 109 493 l 1,38,-1
 109 396 l 1,39,-1
 12 396 l 1,36,-1
524 396 m 1,40,-1
 524 493 l 1,41,-1
 621 493 l 1,42,-1
 621 396 l 1,43,-1
 524 396 l 1,40,-1
140 524 m 1,44,-1
 140 621 l 1,45,-1
 237 621 l 1,46,-1
 237 524 l 1,47,-1
 140 524 l 1,44,-1
268 524 m 1,48,-1
 268 621 l 1,49,-1
 365 621 l 1,50,-1
 365 524 l 1,51,-1
 268 524 l 1,48,-1
396 524 m 1,52,-1
 396 621 l 1,53,-1
 493 621 l 1,54,-1
 493 524 l 1,55,-1
 396 524 l 1,52,-1
268 652 m 1,56,-1
 268 749 l 1,57,-1
 365 749 l 1,58,-1
 365 652 l 1,59,-1
 268 652 l 1,56,-1
140 780 m 1,60,-1
 140 877 l 1,61,-1
 237 877 l 1,62,-1
 237 780 l 1,63,-1
 140 780 l 1,60,-1
396 780 m 1,64,-1
 396 877 l 1,65,-1
 493 877 l 1,66,-1
 493 780 l 1,67,-1
 396 780 l 1,64,-1
268 908 m 1,68,-1
 268 1005 l 1,69,-1
 365 1005 l 1,70,-1
 365 908 l 1,71,-1
 268 908 l 1,68,-1
EndSplineSet
Validated: 1
EndChar

StartChar: AE
Encoding: 198 198 136
Width: 767
Flags: W
LayerCount: 2
Fore
SplineSet
12 12 m 1,0,-1
 12 109 l 1,1,-1
 109 109 l 1,2,-1
 109 12 l 1,3,-1
 12 12 l 1,0,-1
268 12 m 1,4,-1
 268 109 l 1,5,-1
 365 109 l 1,6,-1
 365 12 l 1,7,-1
 268 12 l 1,4,-1
396 12 m 1,8,-1
 396 109 l 1,9,-1
 493 109 l 1,10,-1
 493 12 l 1,11,-1
 396 12 l 1,8,-1
524 12 m 1,12,-1
 524 109 l 1,13,-1
 621 109 l 1,14,-1
 621 12 l 1,15,-1
 524 12 l 1,12,-1
12 140 m 1,16,-1
 12 237 l 1,17,-1
 109 237 l 1,18,-1
 109 140 l 1,19,-1
 12 140 l 1,16,-1
268 140 m 1,20,-1
 268 237 l 1,21,-1
 365 237 l 1,22,-1
 365 140 l 1,23,-1
 268 140 l 1,20,-1
12 268 m 1,24,-1
 12 365 l 1,25,-1
 109 365 l 1,26,-1
 109 268 l 1,27,-1
 12 268 l 1,24,-1
268 268 m 1,28,-1
 268 365 l 1,29,-1
 365 365 l 1,30,-1
 365 268 l 1,31,-1
 268 268 l 1,28,-1
12 396 m 1,32,-1
 12 493 l 1,33,-1
 109 493 l 1,34,-1
 109 396 l 1,35,-1
 12 396 l 1,32,-1
140 396 m 1,36,-1
 140 493 l 1,37,-1
 237 493 l 1,38,-1
 237 396 l 1,39,-1
 140 396 l 1,36,-1
268 396 m 1,40,-1
 268 493 l 1,41,-1
 365 493 l 1,42,-1
 365 396 l 1,43,-1
 268 396 l 1,40,-1
396 396 m 1,44,-1
 396 493 l 1,45,-1
 493 493 l 1,46,-1
 493 396 l 1,47,-1
 396 396 l 1,44,-1
12 524 m 1,48,-1
 12 621 l 1,49,-1
 109 621 l 1,50,-1
 109 524 l 1,51,-1
 12 524 l 1,48,-1
268 524 m 1,52,-1
 268 621 l 1,53,-1
 365 621 l 1,54,-1
 365 524 l 1,55,-1
 268 524 l 1,52,-1
140 652 m 1,56,-1
 140 749 l 1,57,-1
 237 749 l 1,58,-1
 237 652 l 1,59,-1
 140 652 l 1,56,-1
268 652 m 1,60,-1
 268 749 l 1,61,-1
 365 749 l 1,62,-1
 365 652 l 1,63,-1
 268 652 l 1,60,-1
268 780 m 1,64,-1
 268 877 l 1,65,-1
 365 877 l 1,66,-1
 365 780 l 1,67,-1
 268 780 l 1,64,-1
396 780 m 1,68,-1
 396 877 l 1,69,-1
 493 877 l 1,70,-1
 493 780 l 1,71,-1
 396 780 l 1,68,-1
524 780 m 1,72,-1
 524 877 l 1,73,-1
 621 877 l 1,74,-1
 621 780 l 1,75,-1
 524 780 l 1,72,-1
EndSplineSet
Validated: 1
EndChar

StartChar: Ccedilla
Encoding: 199 199 137
Width: 767
Flags: W
LayerCount: 2
Fore
SplineSet
268 12 m 1,0,-1
 268 109 l 1,1,-1
 365 109 l 1,2,-1
 365 12 l 1,3,-1
 268 12 l 1,0,-1
396 12 m 1,4,-1
 396 109 l 1,5,-1
 493 109 l 1,6,-1
 493 12 l 1,7,-1
 396 12 l 1,4,-1
396 140 m 1,8,-1
 396 237 l 1,9,-1
 493 237 l 1,10,-1
 493 140 l 1,11,-1
 396 140 l 1,8,-1
140 268 m 1,12,-1
 140 365 l 1,13,-1
 237 365 l 1,14,-1
 237 268 l 1,15,-1
 140 268 l 1,12,-1
268 268 m 1,16,-1
 268 365 l 1,17,-1
 365 365 l 1,18,-1
 365 268 l 1,19,-1
 268 268 l 1,16,-1
396 268 m 1,20,-1
 396 365 l 1,21,-1
 493 365 l 1,22,-1
 493 268 l 1,23,-1
 396 268 l 1,20,-1
12 396 m 1,24,-1
 12 493 l 1,25,-1
 109 493 l 1,26,-1
 109 396 l 1,27,-1
 12 396 l 1,24,-1
524 396 m 1,28,-1
 524 493 l 1,29,-1
 621 493 l 1,30,-1
 621 396 l 1,31,-1
 524 396 l 1,28,-1
12 524 m 1,32,-1
 12 621 l 1,33,-1
 109 621 l 1,34,-1
 109 524 l 1,35,-1
 12 524 l 1,32,-1
12 652 m 1,36,-1
 12 749 l 1,37,-1
 109 749 l 1,38,-1
 109 652 l 1,39,-1
 12 652 l 1,36,-1
12 780 m 1,40,-1
 12 877 l 1,41,-1
 109 877 l 1,42,-1
 109 780 l 1,43,-1
 12 780 l 1,40,-1
524 780 m 1,44,-1
 524 877 l 1,45,-1
 621 877 l 1,46,-1
 621 780 l 1,47,-1
 524 780 l 1,44,-1
140 908 m 1,48,-1
 140 1005 l 1,49,-1
 237 1005 l 1,50,-1
 237 908 l 1,51,-1
 140 908 l 1,48,-1
268 908 m 1,52,-1
 268 1005 l 1,53,-1
 365 1005 l 1,54,-1
 365 908 l 1,55,-1
 268 908 l 1,52,-1
396 908 m 1,56,-1
 396 1005 l 1,57,-1
 493 1005 l 1,58,-1
 493 908 l 1,59,-1
 396 908 l 1,56,-1
EndSplineSet
Validated: 1
EndChar

StartChar: Egrave
Encoding: 200 200 138
Width: 767
Flags: W
LayerCount: 2
Fore
SplineSet
12 12 m 1,0,-1
 12 109 l 1,1,-1
 109 109 l 1,2,-1
 109 12 l 1,3,-1
 12 12 l 1,0,-1
140 12 m 1,4,-1
 140 109 l 1,5,-1
 237 109 l 1,6,-1
 237 12 l 1,7,-1
 140 12 l 1,4,-1
268 12 m 1,8,-1
 268 109 l 1,9,-1
 365 109 l 1,10,-1
 365 12 l 1,11,-1
 268 12 l 1,8,-1
396 12 m 1,12,-1
 396 109 l 1,13,-1
 493 109 l 1,14,-1
 493 12 l 1,15,-1
 396 12 l 1,12,-1
524 12 m 1,16,-1
 524 109 l 1,17,-1
 621 109 l 1,18,-1
 621 12 l 1,19,-1
 524 12 l 1,16,-1
12 140 m 1,20,-1
 12 237 l 1,21,-1
 109 237 l 1,22,-1
 109 140 l 1,23,-1
 12 140 l 1,20,-1
12 268 m 1,24,-1
 12 365 l 1,25,-1
 109 365 l 1,26,-1
 109 268 l 1,27,-1
 12 268 l 1,24,-1
140 268 m 1,28,-1
 140 365 l 1,29,-1
 237 365 l 1,30,-1
 237 268 l 1,31,-1
 140 268 l 1,28,-1
268 268 m 1,32,-1
 268 365 l 1,33,-1
 365 365 l 1,34,-1
 365 268 l 1,35,-1
 268 268 l 1,32,-1
396 268 m 1,36,-1
 396 365 l 1,37,-1
 493 365 l 1,38,-1
 493 268 l 1,39,-1
 396 268 l 1,36,-1
12 396 m 1,40,-1
 12 493 l 1,41,-1
 109 493 l 1,42,-1
 109 396 l 1,43,-1
 12 396 l 1,40,-1
12 524 m 1,44,-1
 12 621 l 1,45,-1
 109 621 l 1,46,-1
 109 524 l 1,47,-1
 12 524 l 1,44,-1
140 524 m 1,48,-1
 140 621 l 1,49,-1
 237 621 l 1,50,-1
 237 524 l 1,51,-1
 140 524 l 1,48,-1
268 524 m 1,52,-1
 268 621 l 1,53,-1
 365 621 l 1,54,-1
 365 524 l 1,55,-1
 268 524 l 1,52,-1
396 524 m 1,56,-1
 396 621 l 1,57,-1
 493 621 l 1,58,-1
 493 524 l 1,59,-1
 396 524 l 1,56,-1
524 524 m 1,60,-1
 524 621 l 1,61,-1
 621 621 l 1,62,-1
 621 524 l 1,63,-1
 524 524 l 1,60,-1
268 780 m 1,64,-1
 268 877 l 1,65,-1
 365 877 l 1,66,-1
 365 780 l 1,67,-1
 268 780 l 1,64,-1
140 908 m 1,68,-1
 140 1005 l 1,69,-1
 237 1005 l 1,70,-1
 237 908 l 1,71,-1
 140 908 l 1,68,-1
EndSplineSet
Validated: 1
EndChar

StartChar: Eacute
Encoding: 201 201 139
Width: 767
Flags: W
LayerCount: 2
Fore
SplineSet
12 12 m 1,0,-1
 12 109 l 1,1,-1
 109 109 l 1,2,-1
 109 12 l 1,3,-1
 12 12 l 1,0,-1
140 12 m 1,4,-1
 140 109 l 1,5,-1
 237 109 l 1,6,-1
 237 12 l 1,7,-1
 140 12 l 1,4,-1
268 12 m 1,8,-1
 268 109 l 1,9,-1
 365 109 l 1,10,-1
 365 12 l 1,11,-1
 268 12 l 1,8,-1
396 12 m 1,12,-1
 396 109 l 1,13,-1
 493 109 l 1,14,-1
 493 12 l 1,15,-1
 396 12 l 1,12,-1
524 12 m 1,16,-1
 524 109 l 1,17,-1
 621 109 l 1,18,-1
 621 12 l 1,19,-1
 524 12 l 1,16,-1
12 140 m 1,20,-1
 12 237 l 1,21,-1
 109 237 l 1,22,-1
 109 140 l 1,23,-1
 12 140 l 1,20,-1
12 268 m 1,24,-1
 12 365 l 1,25,-1
 109 365 l 1,26,-1
 109 268 l 1,27,-1
 12 268 l 1,24,-1
140 268 m 1,28,-1
 140 365 l 1,29,-1
 237 365 l 1,30,-1
 237 268 l 1,31,-1
 140 268 l 1,28,-1
268 268 m 1,32,-1
 268 365 l 1,33,-1
 365 365 l 1,34,-1
 365 268 l 1,35,-1
 268 268 l 1,32,-1
396 268 m 1,36,-1
 396 365 l 1,37,-1
 493 365 l 1,38,-1
 493 268 l 1,39,-1
 396 268 l 1,36,-1
12 396 m 1,40,-1
 12 493 l 1,41,-1
 109 493 l 1,42,-1
 109 396 l 1,43,-1
 12 396 l 1,40,-1
12 524 m 1,44,-1
 12 621 l 1,45,-1
 109 621 l 1,46,-1
 109 524 l 1,47,-1
 12 524 l 1,44,-1
140 524 m 1,48,-1
 140 621 l 1,49,-1
 237 621 l 1,50,-1
 237 524 l 1,51,-1
 140 524 l 1,48,-1
268 524 m 1,52,-1
 268 621 l 1,53,-1
 365 621 l 1,54,-1
 365 524 l 1,55,-1
 268 524 l 1,52,-1
396 524 m 1,56,-1
 396 621 l 1,57,-1
 493 621 l 1,58,-1
 493 524 l 1,59,-1
 396 524 l 1,56,-1
524 524 m 1,60,-1
 524 621 l 1,61,-1
 621 621 l 1,62,-1
 621 524 l 1,63,-1
 524 524 l 1,60,-1
268 780 m 1,64,-1
 268 877 l 1,65,-1
 365 877 l 1,66,-1
 365 780 l 1,67,-1
 268 780 l 1,64,-1
396 908 m 1,68,-1
 396 1005 l 1,69,-1
 493 1005 l 1,70,-1
 493 908 l 1,71,-1
 396 908 l 1,68,-1
EndSplineSet
Validated: 1
EndChar

StartChar: Ecircumflex
Encoding: 202 202 140
Width: 767
Flags: W
LayerCount: 2
Fore
SplineSet
12 12 m 1,0,-1
 12 109 l 1,1,-1
 109 109 l 1,2,-1
 109 12 l 1,3,-1
 12 12 l 1,0,-1
140 12 m 1,4,-1
 140 109 l 1,5,-1
 237 109 l 1,6,-1
 237 12 l 1,7,-1
 140 12 l 1,4,-1
268 12 m 1,8,-1
 268 109 l 1,9,-1
 365 109 l 1,10,-1
 365 12 l 1,11,-1
 268 12 l 1,8,-1
396 12 m 1,12,-1
 396 109 l 1,13,-1
 493 109 l 1,14,-1
 493 12 l 1,15,-1
 396 12 l 1,12,-1
524 12 m 1,16,-1
 524 109 l 1,17,-1
 621 109 l 1,18,-1
 621 12 l 1,19,-1
 524 12 l 1,16,-1
12 140 m 1,20,-1
 12 237 l 1,21,-1
 109 237 l 1,22,-1
 109 140 l 1,23,-1
 12 140 l 1,20,-1
12 268 m 1,24,-1
 12 365 l 1,25,-1
 109 365 l 1,26,-1
 109 268 l 1,27,-1
 12 268 l 1,24,-1
140 268 m 1,28,-1
 140 365 l 1,29,-1
 237 365 l 1,30,-1
 237 268 l 1,31,-1
 140 268 l 1,28,-1
268 268 m 1,32,-1
 268 365 l 1,33,-1
 365 365 l 1,34,-1
 365 268 l 1,35,-1
 268 268 l 1,32,-1
396 268 m 1,36,-1
 396 365 l 1,37,-1
 493 365 l 1,38,-1
 493 268 l 1,39,-1
 396 268 l 1,36,-1
12 396 m 1,40,-1
 12 493 l 1,41,-1
 109 493 l 1,42,-1
 109 396 l 1,43,-1
 12 396 l 1,40,-1
12 524 m 1,44,-1
 12 621 l 1,45,-1
 109 621 l 1,46,-1
 109 524 l 1,47,-1
 12 524 l 1,44,-1
140 524 m 1,48,-1
 140 621 l 1,49,-1
 237 621 l 1,50,-1
 237 524 l 1,51,-1
 140 524 l 1,48,-1
268 524 m 1,52,-1
 268 621 l 1,53,-1
 365 621 l 1,54,-1
 365 524 l 1,55,-1
 268 524 l 1,52,-1
396 524 m 1,56,-1
 396 621 l 1,57,-1
 493 621 l 1,58,-1
 493 524 l 1,59,-1
 396 524 l 1,56,-1
524 524 m 1,60,-1
 524 621 l 1,61,-1
 621 621 l 1,62,-1
 621 524 l 1,63,-1
 524 524 l 1,60,-1
140 780 m 1,64,-1
 140 877 l 1,65,-1
 237 877 l 1,66,-1
 237 780 l 1,67,-1
 140 780 l 1,64,-1
396 780 m 1,68,-1
 396 877 l 1,69,-1
 493 877 l 1,70,-1
 493 780 l 1,71,-1
 396 780 l 1,68,-1
268 908 m 1,72,-1
 268 1005 l 1,73,-1
 365 1005 l 1,74,-1
 365 908 l 1,75,-1
 268 908 l 1,72,-1
EndSplineSet
Validated: 1
EndChar

StartChar: Edieresis
Encoding: 203 203 141
Width: 767
Flags: W
LayerCount: 2
Fore
SplineSet
12 12 m 1,0,-1
 12 109 l 1,1,-1
 109 109 l 1,2,-1
 109 12 l 1,3,-1
 12 12 l 1,0,-1
140 12 m 1,4,-1
 140 109 l 1,5,-1
 237 109 l 1,6,-1
 237 12 l 1,7,-1
 140 12 l 1,4,-1
268 12 m 1,8,-1
 268 109 l 1,9,-1
 365 109 l 1,10,-1
 365 12 l 1,11,-1
 268 12 l 1,8,-1
396 12 m 1,12,-1
 396 109 l 1,13,-1
 493 109 l 1,14,-1
 493 12 l 1,15,-1
 396 12 l 1,12,-1
524 12 m 1,16,-1
 524 109 l 1,17,-1
 621 109 l 1,18,-1
 621 12 l 1,19,-1
 524 12 l 1,16,-1
12 140 m 1,20,-1
 12 237 l 1,21,-1
 109 237 l 1,22,-1
 109 140 l 1,23,-1
 12 140 l 1,20,-1
12 268 m 1,24,-1
 12 365 l 1,25,-1
 109 365 l 1,26,-1
 109 268 l 1,27,-1
 12 268 l 1,24,-1
140 268 m 1,28,-1
 140 365 l 1,29,-1
 237 365 l 1,30,-1
 237 268 l 1,31,-1
 140 268 l 1,28,-1
268 268 m 1,32,-1
 268 365 l 1,33,-1
 365 365 l 1,34,-1
 365 268 l 1,35,-1
 268 268 l 1,32,-1
396 268 m 1,36,-1
 396 365 l 1,37,-1
 493 365 l 1,38,-1
 493 268 l 1,39,-1
 396 268 l 1,36,-1
12 396 m 1,40,-1
 12 493 l 1,41,-1
 109 493 l 1,42,-1
 109 396 l 1,43,-1
 12 396 l 1,40,-1
12 524 m 1,44,-1
 12 621 l 1,45,-1
 109 621 l 1,46,-1
 109 524 l 1,47,-1
 12 524 l 1,44,-1
140 524 m 1,48,-1
 140 621 l 1,49,-1
 237 621 l 1,50,-1
 237 524 l 1,51,-1
 140 524 l 1,48,-1
268 524 m 1,52,-1
 268 621 l 1,53,-1
 365 621 l 1,54,-1
 365 524 l 1,55,-1
 268 524 l 1,52,-1
396 524 m 1,56,-1
 396 621 l 1,57,-1
 493 621 l 1,58,-1
 493 524 l 1,59,-1
 396 524 l 1,56,-1
524 524 m 1,60,-1
 524 621 l 1,61,-1
 621 621 l 1,62,-1
 621 524 l 1,63,-1
 524 524 l 1,60,-1
140 780 m 1,64,-1
 140 877 l 1,65,-1
 237 877 l 1,66,-1
 237 780 l 1,67,-1
 140 780 l 1,64,-1
396 780 m 1,68,-1
 396 877 l 1,69,-1
 493 877 l 1,70,-1
 493 780 l 1,71,-1
 396 780 l 1,68,-1
EndSplineSet
Validated: 1
EndChar

StartChar: Igrave
Encoding: 204 204 142
Width: 768
Flags: W
LayerCount: 2
Fore
SplineSet
140 12 m 1,0,-1
 140 109 l 1,1,-1
 237 109 l 1,2,-1
 237 12 l 1,3,-1
 140 12 l 1,0,-1
268 12 m 1,4,-1
 268 109 l 1,5,-1
 365 109 l 1,6,-1
 365 12 l 1,7,-1
 268 12 l 1,4,-1
396 12 m 1,8,-1
 396 109 l 1,9,-1
 493 109 l 1,10,-1
 493 12 l 1,11,-1
 396 12 l 1,8,-1
268 140 m 1,12,-1
 268 237 l 1,13,-1
 365 237 l 1,14,-1
 365 140 l 1,15,-1
 268 140 l 1,12,-1
268 268 m 1,16,-1
 268 365 l 1,17,-1
 365 365 l 1,18,-1
 365 268 l 1,19,-1
 268 268 l 1,16,-1
268 396 m 1,20,-1
 268 493 l 1,21,-1
 365 493 l 1,22,-1
 365 396 l 1,23,-1
 268 396 l 1,20,-1
140 524 m 1,24,-1
 140 621 l 1,25,-1
 237 621 l 1,26,-1
 237 524 l 1,27,-1
 140 524 l 1,24,-1
268 524 m 1,28,-1
 268 621 l 1,29,-1
 365 621 l 1,30,-1
 365 524 l 1,31,-1
 268 524 l 1,28,-1
396 524 m 1,32,-1
 396 621 l 1,33,-1
 493 621 l 1,34,-1
 493 524 l 1,35,-1
 396 524 l 1,32,-1
268 780 m 1,36,-1
 268 877 l 1,37,-1
 365 877 l 1,38,-1
 365 780 l 1,39,-1
 268 780 l 1,36,-1
140 908 m 1,40,-1
 140 1005 l 1,41,-1
 237 1005 l 1,42,-1
 237 908 l 1,43,-1
 140 908 l 1,40,-1
EndSplineSet
Validated: 1
EndChar

StartChar: Iacute
Encoding: 205 205 143
Width: 768
Flags: W
LayerCount: 2
Fore
SplineSet
140 12 m 1,0,-1
 140 109 l 1,1,-1
 237 109 l 1,2,-1
 237 12 l 1,3,-1
 140 12 l 1,0,-1
268 12 m 1,4,-1
 268 109 l 1,5,-1
 365 109 l 1,6,-1
 365 12 l 1,7,-1
 268 12 l 1,4,-1
396 12 m 1,8,-1
 396 109 l 1,9,-1
 493 109 l 1,10,-1
 493 12 l 1,11,-1
 396 12 l 1,8,-1
268 140 m 1,12,-1
 268 237 l 1,13,-1
 365 237 l 1,14,-1
 365 140 l 1,15,-1
 268 140 l 1,12,-1
268 268 m 1,16,-1
 268 365 l 1,17,-1
 365 365 l 1,18,-1
 365 268 l 1,19,-1
 268 268 l 1,16,-1
268 396 m 1,20,-1
 268 493 l 1,21,-1
 365 493 l 1,22,-1
 365 396 l 1,23,-1
 268 396 l 1,20,-1
140 524 m 1,24,-1
 140 621 l 1,25,-1
 237 621 l 1,26,-1
 237 524 l 1,27,-1
 140 524 l 1,24,-1
268 524 m 1,28,-1
 268 621 l 1,29,-1
 365 621 l 1,30,-1
 365 524 l 1,31,-1
 268 524 l 1,28,-1
396 524 m 1,32,-1
 396 621 l 1,33,-1
 493 621 l 1,34,-1
 493 524 l 1,35,-1
 396 524 l 1,32,-1
268 780 m 1,36,-1
 268 877 l 1,37,-1
 365 877 l 1,38,-1
 365 780 l 1,39,-1
 268 780 l 1,36,-1
396 908 m 1,40,-1
 396 1005 l 1,41,-1
 493 1005 l 1,42,-1
 493 908 l 1,43,-1
 396 908 l 1,40,-1
EndSplineSet
Validated: 1
EndChar

StartChar: Icircumflex
Encoding: 206 206 144
Width: 768
Flags: W
LayerCount: 2
Fore
SplineSet
140 12 m 1,0,-1
 140 109 l 1,1,-1
 237 109 l 1,2,-1
 237 12 l 1,3,-1
 140 12 l 1,0,-1
268 12 m 1,4,-1
 268 109 l 1,5,-1
 365 109 l 1,6,-1
 365 12 l 1,7,-1
 268 12 l 1,4,-1
396 12 m 1,8,-1
 396 109 l 1,9,-1
 493 109 l 1,10,-1
 493 12 l 1,11,-1
 396 12 l 1,8,-1
268 140 m 1,12,-1
 268 237 l 1,13,-1
 365 237 l 1,14,-1
 365 140 l 1,15,-1
 268 140 l 1,12,-1
268 268 m 1,16,-1
 268 365 l 1,17,-1
 365 365 l 1,18,-1
 365 268 l 1,19,-1
 268 268 l 1,16,-1
268 396 m 1,20,-1
 268 493 l 1,21,-1
 365 493 l 1,22,-1
 365 396 l 1,23,-1
 268 396 l 1,20,-1
140 524 m 1,24,-1
 140 621 l 1,25,-1
 237 621 l 1,26,-1
 237 524 l 1,27,-1
 140 524 l 1,24,-1
268 524 m 1,28,-1
 268 621 l 1,29,-1
 365 621 l 1,30,-1
 365 524 l 1,31,-1
 268 524 l 1,28,-1
396 524 m 1,32,-1
 396 621 l 1,33,-1
 493 621 l 1,34,-1
 493 524 l 1,35,-1
 396 524 l 1,32,-1
140 780 m 1,36,-1
 140 877 l 1,37,-1
 237 877 l 1,38,-1
 237 780 l 1,39,-1
 140 780 l 1,36,-1
396 780 m 1,40,-1
 396 877 l 1,41,-1
 493 877 l 1,42,-1
 493 780 l 1,43,-1
 396 780 l 1,40,-1
268 908 m 1,44,-1
 268 1005 l 1,45,-1
 365 1005 l 1,46,-1
 365 908 l 1,47,-1
 268 908 l 1,44,-1
EndSplineSet
Validated: 1
EndChar

StartChar: Idieresis
Encoding: 207 207 145
Width: 768
Flags: W
LayerCount: 2
Fore
SplineSet
140 12 m 1,0,-1
 140 109 l 1,1,-1
 237 109 l 1,2,-1
 237 12 l 1,3,-1
 140 12 l 1,0,-1
268 12 m 1,4,-1
 268 109 l 1,5,-1
 365 109 l 1,6,-1
 365 12 l 1,7,-1
 268 12 l 1,4,-1
396 12 m 1,8,-1
 396 109 l 1,9,-1
 493 109 l 1,10,-1
 493 12 l 1,11,-1
 396 12 l 1,8,-1
268 140 m 1,12,-1
 268 237 l 1,13,-1
 365 237 l 1,14,-1
 365 140 l 1,15,-1
 268 140 l 1,12,-1
268 268 m 1,16,-1
 268 365 l 1,17,-1
 365 365 l 1,18,-1
 365 268 l 1,19,-1
 268 268 l 1,16,-1
268 396 m 1,20,-1
 268 493 l 1,21,-1
 365 493 l 1,22,-1
 365 396 l 1,23,-1
 268 396 l 1,20,-1
140 524 m 1,24,-1
 140 621 l 1,25,-1
 237 621 l 1,26,-1
 237 524 l 1,27,-1
 140 524 l 1,24,-1
268 524 m 1,28,-1
 268 621 l 1,29,-1
 365 621 l 1,30,-1
 365 524 l 1,31,-1
 268 524 l 1,28,-1
396 524 m 1,32,-1
 396 621 l 1,33,-1
 493 621 l 1,34,-1
 493 524 l 1,35,-1
 396 524 l 1,32,-1
140 780 m 1,36,-1
 140 877 l 1,37,-1
 237 877 l 1,38,-1
 237 780 l 1,39,-1
 140 780 l 1,36,-1
396 780 m 1,40,-1
 396 877 l 1,41,-1
 493 877 l 1,42,-1
 493 780 l 1,43,-1
 396 780 l 1,40,-1
EndSplineSet
Validated: 1
EndChar

StartChar: Eth
Encoding: 208 208 146
Width: 767
Flags: W
LayerCount: 2
Fore
SplineSet
140 12 m 1,0,-1
 140 109 l 1,1,-1
 237 109 l 1,2,-1
 237 12 l 1,3,-1
 140 12 l 1,0,-1
268 12 m 1,4,-1
 268 109 l 1,5,-1
 365 109 l 1,6,-1
 365 12 l 1,7,-1
 268 12 l 1,4,-1
396 12 m 1,8,-1
 396 109 l 1,9,-1
 493 109 l 1,10,-1
 493 12 l 1,11,-1
 396 12 l 1,8,-1
140 140 m 1,12,-1
 140 237 l 1,13,-1
 237 237 l 1,14,-1
 237 140 l 1,15,-1
 140 140 l 1,12,-1
524 140 m 1,16,-1
 524 237 l 1,17,-1
 621 237 l 1,18,-1
 621 140 l 1,19,-1
 524 140 l 1,16,-1
140 268 m 1,20,-1
 140 365 l 1,21,-1
 237 365 l 1,22,-1
 237 268 l 1,23,-1
 140 268 l 1,20,-1
524 268 m 1,24,-1
 524 365 l 1,25,-1
 621 365 l 1,26,-1
 621 268 l 1,27,-1
 524 268 l 1,24,-1
12 396 m 1,28,-1
 12 493 l 1,29,-1
 109 493 l 1,30,-1
 109 396 l 1,31,-1
 12 396 l 1,28,-1
140 396 m 1,32,-1
 140 493 l 1,33,-1
 237 493 l 1,34,-1
 237 396 l 1,35,-1
 140 396 l 1,32,-1
268 396 m 1,36,-1
 268 493 l 1,37,-1
 365 493 l 1,38,-1
 365 396 l 1,39,-1
 268 396 l 1,36,-1
524 396 m 1,40,-1
 524 493 l 1,41,-1
 621 493 l 1,42,-1
 621 396 l 1,43,-1
 524 396 l 1,40,-1
140 524 m 1,44,-1
 140 621 l 1,45,-1
 237 621 l 1,46,-1
 237 524 l 1,47,-1
 140 524 l 1,44,-1
524 524 m 1,48,-1
 524 621 l 1,49,-1
 621 621 l 1,50,-1
 621 524 l 1,51,-1
 524 524 l 1,48,-1
140 652 m 1,52,-1
 140 749 l 1,53,-1
 237 749 l 1,54,-1
 237 652 l 1,55,-1
 140 652 l 1,52,-1
524 652 m 1,56,-1
 524 749 l 1,57,-1
 621 749 l 1,58,-1
 621 652 l 1,59,-1
 524 652 l 1,56,-1
140 780 m 1,60,-1
 140 877 l 1,61,-1
 237 877 l 1,62,-1
 237 780 l 1,63,-1
 140 780 l 1,60,-1
268 780 m 1,64,-1
 268 877 l 1,65,-1
 365 877 l 1,66,-1
 365 780 l 1,67,-1
 268 780 l 1,64,-1
396 780 m 1,68,-1
 396 877 l 1,69,-1
 493 877 l 1,70,-1
 493 780 l 1,71,-1
 396 780 l 1,68,-1
EndSplineSet
Validated: 1
EndChar

StartChar: Ntilde
Encoding: 209 209 147
Width: 767
Flags: W
LayerCount: 2
Fore
SplineSet
12 12 m 1,0,-1
 12 109 l 1,1,-1
 109 109 l 1,2,-1
 109 12 l 1,3,-1
 12 12 l 1,0,-1
524 12 m 1,4,-1
 524 109 l 1,5,-1
 621 109 l 1,6,-1
 621 12 l 1,7,-1
 524 12 l 1,4,-1
12 140 m 1,8,-1
 12 237 l 1,9,-1
 109 237 l 1,10,-1
 109 140 l 1,11,-1
 12 140 l 1,8,-1
396 140 m 1,12,-1
 396 237 l 1,13,-1
 493 237 l 1,14,-1
 493 140 l 1,15,-1
 396 140 l 1,12,-1
524 140 m 1,16,-1
 524 237 l 1,17,-1
 621 237 l 1,18,-1
 621 140 l 1,19,-1
 524 140 l 1,16,-1
12 268 m 1,20,-1
 12 365 l 1,21,-1
 109 365 l 1,22,-1
 109 268 l 1,23,-1
 12 268 l 1,20,-1
268 268 m 1,24,-1
 268 365 l 1,25,-1
 365 365 l 1,26,-1
 365 268 l 1,27,-1
 268 268 l 1,24,-1
524 268 m 1,28,-1
 524 365 l 1,29,-1
 621 365 l 1,30,-1
 621 268 l 1,31,-1
 524 268 l 1,28,-1
12 396 m 1,32,-1
 12 493 l 1,33,-1
 109 493 l 1,34,-1
 109 396 l 1,35,-1
 12 396 l 1,32,-1
140 396 m 1,36,-1
 140 493 l 1,37,-1
 237 493 l 1,38,-1
 237 396 l 1,39,-1
 140 396 l 1,36,-1
524 396 m 1,40,-1
 524 493 l 1,41,-1
 621 493 l 1,42,-1
 621 396 l 1,43,-1
 524 396 l 1,40,-1
12 524 m 1,44,-1
 12 621 l 1,45,-1
 109 621 l 1,46,-1
 109 524 l 1,47,-1
 12 524 l 1,44,-1
524 524 m 1,48,-1
 524 621 l 1,49,-1
 621 621 l 1,50,-1
 621 524 l 1,51,-1
 524 524 l 1,48,-1
12 780 m 1,52,-1
 12 877 l 1,53,-1
 109 877 l 1,54,-1
 109 780 l 1,55,-1
 12 780 l 1,52,-1
396 780 m 1,56,-1
 396 877 l 1,57,-1
 493 877 l 1,58,-1
 493 780 l 1,59,-1
 396 780 l 1,56,-1
140 908 m 1,60,-1
 140 1005 l 1,61,-1
 237 1005 l 1,62,-1
 237 908 l 1,63,-1
 140 908 l 1,60,-1
268 908 m 1,64,-1
 268 1005 l 1,65,-1
 365 1005 l 1,66,-1
 365 908 l 1,67,-1
 268 908 l 1,64,-1
524 908 m 1,68,-1
 524 1005 l 1,69,-1
 621 1005 l 1,70,-1
 621 908 l 1,71,-1
 524 908 l 1,68,-1
EndSplineSet
Validated: 1
EndChar

StartChar: Ograve
Encoding: 210 210 148
Width: 767
Flags: W
LayerCount: 2
Fore
SplineSet
140 12 m 1,0,-1
 140 109 l 1,1,-1
 237 109 l 1,2,-1
 237 12 l 1,3,-1
 140 12 l 1,0,-1
268 12 m 1,4,-1
 268 109 l 1,5,-1
 365 109 l 1,6,-1
 365 12 l 1,7,-1
 268 12 l 1,4,-1
396 12 m 1,8,-1
 396 109 l 1,9,-1
 493 109 l 1,10,-1
 493 12 l 1,11,-1
 396 12 l 1,8,-1
12 140 m 1,12,-1
 12 237 l 1,13,-1
 109 237 l 1,14,-1
 109 140 l 1,15,-1
 12 140 l 1,12,-1
524 140 m 1,16,-1
 524 237 l 1,17,-1
 621 237 l 1,18,-1
 621 140 l 1,19,-1
 524 140 l 1,16,-1
12 268 m 1,20,-1
 12 365 l 1,21,-1
 109 365 l 1,22,-1
 109 268 l 1,23,-1
 12 268 l 1,20,-1
524 268 m 1,24,-1
 524 365 l 1,25,-1
 621 365 l 1,26,-1
 621 268 l 1,27,-1
 524 268 l 1,24,-1
12 396 m 1,28,-1
 12 493 l 1,29,-1
 109 493 l 1,30,-1
 109 396 l 1,31,-1
 12 396 l 1,28,-1
524 396 m 1,32,-1
 524 493 l 1,33,-1
 621 493 l 1,34,-1
 621 396 l 1,35,-1
 524 396 l 1,32,-1
12 524 m 1,36,-1
 12 621 l 1,37,-1
 109 621 l 1,38,-1
 109 524 l 1,39,-1
 12 524 l 1,36,-1
524 524 m 1,40,-1
 524 621 l 1,41,-1
 621 621 l 1,42,-1
 621 524 l 1,43,-1
 524 524 l 1,40,-1
140 652 m 1,44,-1
 140 749 l 1,45,-1
 237 749 l 1,46,-1
 237 652 l 1,47,-1
 140 652 l 1,44,-1
268 652 m 1,48,-1
 268 749 l 1,49,-1
 365 749 l 1,50,-1
 365 652 l 1,51,-1
 268 652 l 1,48,-1
396 652 m 1,52,-1
 396 749 l 1,53,-1
 493 749 l 1,54,-1
 493 652 l 1,55,-1
 396 652 l 1,52,-1
268 780 m 1,56,-1
 268 877 l 1,57,-1
 365 877 l 1,58,-1
 365 780 l 1,59,-1
 268 780 l 1,56,-1
140 908 m 1,60,-1
 140 1005 l 1,61,-1
 237 1005 l 1,62,-1
 237 908 l 1,63,-1
 140 908 l 1,60,-1
EndSplineSet
Validated: 1
EndChar

StartChar: Oacute
Encoding: 211 211 149
Width: 767
Flags: W
LayerCount: 2
Fore
SplineSet
140 12 m 1,0,-1
 140 109 l 1,1,-1
 237 109 l 1,2,-1
 237 12 l 1,3,-1
 140 12 l 1,0,-1
268 12 m 1,4,-1
 268 109 l 1,5,-1
 365 109 l 1,6,-1
 365 12 l 1,7,-1
 268 12 l 1,4,-1
396 12 m 1,8,-1
 396 109 l 1,9,-1
 493 109 l 1,10,-1
 493 12 l 1,11,-1
 396 12 l 1,8,-1
12 140 m 1,12,-1
 12 237 l 1,13,-1
 109 237 l 1,14,-1
 109 140 l 1,15,-1
 12 140 l 1,12,-1
524 140 m 1,16,-1
 524 237 l 1,17,-1
 621 237 l 1,18,-1
 621 140 l 1,19,-1
 524 140 l 1,16,-1
12 268 m 1,20,-1
 12 365 l 1,21,-1
 109 365 l 1,22,-1
 109 268 l 1,23,-1
 12 268 l 1,20,-1
524 268 m 1,24,-1
 524 365 l 1,25,-1
 621 365 l 1,26,-1
 621 268 l 1,27,-1
 524 268 l 1,24,-1
12 396 m 1,28,-1
 12 493 l 1,29,-1
 109 493 l 1,30,-1
 109 396 l 1,31,-1
 12 396 l 1,28,-1
524 396 m 1,32,-1
 524 493 l 1,33,-1
 621 493 l 1,34,-1
 621 396 l 1,35,-1
 524 396 l 1,32,-1
12 524 m 1,36,-1
 12 621 l 1,37,-1
 109 621 l 1,38,-1
 109 524 l 1,39,-1
 12 524 l 1,36,-1
524 524 m 1,40,-1
 524 621 l 1,41,-1
 621 621 l 1,42,-1
 621 524 l 1,43,-1
 524 524 l 1,40,-1
140 652 m 1,44,-1
 140 749 l 1,45,-1
 237 749 l 1,46,-1
 237 652 l 1,47,-1
 140 652 l 1,44,-1
268 652 m 1,48,-1
 268 749 l 1,49,-1
 365 749 l 1,50,-1
 365 652 l 1,51,-1
 268 652 l 1,48,-1
396 652 m 1,52,-1
 396 749 l 1,53,-1
 493 749 l 1,54,-1
 493 652 l 1,55,-1
 396 652 l 1,52,-1
268 780 m 1,56,-1
 268 877 l 1,57,-1
 365 877 l 1,58,-1
 365 780 l 1,59,-1
 268 780 l 1,56,-1
396 908 m 1,60,-1
 396 1005 l 1,61,-1
 493 1005 l 1,62,-1
 493 908 l 1,63,-1
 396 908 l 1,60,-1
EndSplineSet
Validated: 1
EndChar

StartChar: Ocircumflex
Encoding: 212 212 150
Width: 767
Flags: W
LayerCount: 2
Fore
SplineSet
140 12 m 1,0,-1
 140 109 l 1,1,-1
 237 109 l 1,2,-1
 237 12 l 1,3,-1
 140 12 l 1,0,-1
268 12 m 1,4,-1
 268 109 l 1,5,-1
 365 109 l 1,6,-1
 365 12 l 1,7,-1
 268 12 l 1,4,-1
396 12 m 1,8,-1
 396 109 l 1,9,-1
 493 109 l 1,10,-1
 493 12 l 1,11,-1
 396 12 l 1,8,-1
12 140 m 1,12,-1
 12 237 l 1,13,-1
 109 237 l 1,14,-1
 109 140 l 1,15,-1
 12 140 l 1,12,-1
524 140 m 1,16,-1
 524 237 l 1,17,-1
 621 237 l 1,18,-1
 621 140 l 1,19,-1
 524 140 l 1,16,-1
12 268 m 1,20,-1
 12 365 l 1,21,-1
 109 365 l 1,22,-1
 109 268 l 1,23,-1
 12 268 l 1,20,-1
524 268 m 1,24,-1
 524 365 l 1,25,-1
 621 365 l 1,26,-1
 621 268 l 1,27,-1
 524 268 l 1,24,-1
12 396 m 1,28,-1
 12 493 l 1,29,-1
 109 493 l 1,30,-1
 109 396 l 1,31,-1
 12 396 l 1,28,-1
524 396 m 1,32,-1
 524 493 l 1,33,-1
 621 493 l 1,34,-1
 621 396 l 1,35,-1
 524 396 l 1,32,-1
140 524 m 1,36,-1
 140 621 l 1,37,-1
 237 621 l 1,38,-1
 237 524 l 1,39,-1
 140 524 l 1,36,-1
268 524 m 1,40,-1
 268 621 l 1,41,-1
 365 621 l 1,42,-1
 365 524 l 1,43,-1
 268 524 l 1,40,-1
396 524 m 1,44,-1
 396 621 l 1,45,-1
 493 621 l 1,46,-1
 493 524 l 1,47,-1
 396 524 l 1,44,-1
140 780 m 1,48,-1
 140 877 l 1,49,-1
 237 877 l 1,50,-1
 237 780 l 1,51,-1
 140 780 l 1,48,-1
396 780 m 1,52,-1
 396 877 l 1,53,-1
 493 877 l 1,54,-1
 493 780 l 1,55,-1
 396 780 l 1,52,-1
268 908 m 1,56,-1
 268 1005 l 1,57,-1
 365 1005 l 1,58,-1
 365 908 l 1,59,-1
 268 908 l 1,56,-1
EndSplineSet
Validated: 1
EndChar

StartChar: Otilde
Encoding: 213 213 151
Width: 767
Flags: W
LayerCount: 2
Fore
SplineSet
140 12 m 1,0,-1
 140 109 l 1,1,-1
 237 109 l 1,2,-1
 237 12 l 1,3,-1
 140 12 l 1,0,-1
268 12 m 1,4,-1
 268 109 l 1,5,-1
 365 109 l 1,6,-1
 365 12 l 1,7,-1
 268 12 l 1,4,-1
396 12 m 1,8,-1
 396 109 l 1,9,-1
 493 109 l 1,10,-1
 493 12 l 1,11,-1
 396 12 l 1,8,-1
12 140 m 1,12,-1
 12 237 l 1,13,-1
 109 237 l 1,14,-1
 109 140 l 1,15,-1
 12 140 l 1,12,-1
524 140 m 1,16,-1
 524 237 l 1,17,-1
 621 237 l 1,18,-1
 621 140 l 1,19,-1
 524 140 l 1,16,-1
12 268 m 1,20,-1
 12 365 l 1,21,-1
 109 365 l 1,22,-1
 109 268 l 1,23,-1
 12 268 l 1,20,-1
524 268 m 1,24,-1
 524 365 l 1,25,-1
 621 365 l 1,26,-1
 621 268 l 1,27,-1
 524 268 l 1,24,-1
12 396 m 1,28,-1
 12 493 l 1,29,-1
 109 493 l 1,30,-1
 109 396 l 1,31,-1
 12 396 l 1,28,-1
524 396 m 1,32,-1
 524 493 l 1,33,-1
 621 493 l 1,34,-1
 621 396 l 1,35,-1
 524 396 l 1,32,-1
140 524 m 1,36,-1
 140 621 l 1,37,-1
 237 621 l 1,38,-1
 237 524 l 1,39,-1
 140 524 l 1,36,-1
268 524 m 1,40,-1
 268 621 l 1,41,-1
 365 621 l 1,42,-1
 365 524 l 1,43,-1
 268 524 l 1,40,-1
396 524 m 1,44,-1
 396 621 l 1,45,-1
 493 621 l 1,46,-1
 493 524 l 1,47,-1
 396 524 l 1,44,-1
12 780 m 1,48,-1
 12 877 l 1,49,-1
 109 877 l 1,50,-1
 109 780 l 1,51,-1
 12 780 l 1,48,-1
396 780 m 1,52,-1
 396 877 l 1,53,-1
 493 877 l 1,54,-1
 493 780 l 1,55,-1
 396 780 l 1,52,-1
140 908 m 1,56,-1
 140 1005 l 1,57,-1
 237 1005 l 1,58,-1
 237 908 l 1,59,-1
 140 908 l 1,56,-1
268 908 m 1,60,-1
 268 1005 l 1,61,-1
 365 1005 l 1,62,-1
 365 908 l 1,63,-1
 268 908 l 1,60,-1
524 908 m 1,64,-1
 524 1005 l 1,65,-1
 621 1005 l 1,66,-1
 621 908 l 1,67,-1
 524 908 l 1,64,-1
EndSplineSet
Validated: 1
EndChar

StartChar: Odieresis
Encoding: 214 214 152
Width: 767
Flags: W
LayerCount: 2
Fore
SplineSet
140 12 m 1,0,-1
 140 109 l 1,1,-1
 237 109 l 1,2,-1
 237 12 l 1,3,-1
 140 12 l 1,0,-1
268 12 m 1,4,-1
 268 109 l 1,5,-1
 365 109 l 1,6,-1
 365 12 l 1,7,-1
 268 12 l 1,4,-1
396 12 m 1,8,-1
 396 109 l 1,9,-1
 493 109 l 1,10,-1
 493 12 l 1,11,-1
 396 12 l 1,8,-1
12 140 m 1,12,-1
 12 237 l 1,13,-1
 109 237 l 1,14,-1
 109 140 l 1,15,-1
 12 140 l 1,12,-1
524 140 m 1,16,-1
 524 237 l 1,17,-1
 621 237 l 1,18,-1
 621 140 l 1,19,-1
 524 140 l 1,16,-1
12 268 m 1,20,-1
 12 365 l 1,21,-1
 109 365 l 1,22,-1
 109 268 l 1,23,-1
 12 268 l 1,20,-1
524 268 m 1,24,-1
 524 365 l 1,25,-1
 621 365 l 1,26,-1
 621 268 l 1,27,-1
 524 268 l 1,24,-1
12 396 m 1,28,-1
 12 493 l 1,29,-1
 109 493 l 1,30,-1
 109 396 l 1,31,-1
 12 396 l 1,28,-1
524 396 m 1,32,-1
 524 493 l 1,33,-1
 621 493 l 1,34,-1
 621 396 l 1,35,-1
 524 396 l 1,32,-1
12 524 m 1,36,-1
 12 621 l 1,37,-1
 109 621 l 1,38,-1
 109 524 l 1,39,-1
 12 524 l 1,36,-1
524 524 m 1,40,-1
 524 621 l 1,41,-1
 621 621 l 1,42,-1
 621 524 l 1,43,-1
 524 524 l 1,40,-1
140 652 m 1,44,-1
 140 749 l 1,45,-1
 237 749 l 1,46,-1
 237 652 l 1,47,-1
 140 652 l 1,44,-1
268 652 m 1,48,-1
 268 749 l 1,49,-1
 365 749 l 1,50,-1
 365 652 l 1,51,-1
 268 652 l 1,48,-1
396 652 m 1,52,-1
 396 749 l 1,53,-1
 493 749 l 1,54,-1
 493 652 l 1,55,-1
 396 652 l 1,52,-1
140 908 m 1,56,-1
 140 1005 l 1,57,-1
 237 1005 l 1,58,-1
 237 908 l 1,59,-1
 140 908 l 1,56,-1
396 908 m 1,60,-1
 396 1005 l 1,61,-1
 493 1005 l 1,62,-1
 493 908 l 1,63,-1
 396 908 l 1,60,-1
EndSplineSet
Validated: 1
EndChar

StartChar: multiply
Encoding: 215 215 153
Width: 767
Flags: W
LayerCount: 2
Fore
SplineSet
12 140 m 1,0,-1
 12 237 l 1,1,-1
 109 237 l 1,2,-1
 109 140 l 1,3,-1
 12 140 l 1,0,-1
524 140 m 1,4,-1
 524 237 l 1,5,-1
 621 237 l 1,6,-1
 621 140 l 1,7,-1
 524 140 l 1,4,-1
140 268 m 1,8,-1
 140 365 l 1,9,-1
 237 365 l 1,10,-1
 237 268 l 1,11,-1
 140 268 l 1,8,-1
396 268 m 1,12,-1
 396 365 l 1,13,-1
 493 365 l 1,14,-1
 493 268 l 1,15,-1
 396 268 l 1,12,-1
268 396 m 1,16,-1
 268 493 l 1,17,-1
 365 493 l 1,18,-1
 365 396 l 1,19,-1
 268 396 l 1,16,-1
140 524 m 1,20,-1
 140 621 l 1,21,-1
 237 621 l 1,22,-1
 237 524 l 1,23,-1
 140 524 l 1,20,-1
396 524 m 1,24,-1
 396 621 l 1,25,-1
 493 621 l 1,26,-1
 493 524 l 1,27,-1
 396 524 l 1,24,-1
12 652 m 1,28,-1
 12 749 l 1,29,-1
 109 749 l 1,30,-1
 109 652 l 1,31,-1
 12 652 l 1,28,-1
524 652 m 1,32,-1
 524 749 l 1,33,-1
 621 749 l 1,34,-1
 621 652 l 1,35,-1
 524 652 l 1,32,-1
EndSplineSet
Validated: 1
EndChar

StartChar: Oslash
Encoding: 216 216 154
Width: 767
Flags: W
LayerCount: 2
Fore
SplineSet
140 12 m 1,0,-1
 140 109 l 1,1,-1
 237 109 l 1,2,-1
 237 12 l 1,3,-1
 140 12 l 1,0,-1
268 12 m 1,4,-1
 268 109 l 1,5,-1
 365 109 l 1,6,-1
 365 12 l 1,7,-1
 268 12 l 1,4,-1
396 12 m 1,8,-1
 396 109 l 1,9,-1
 493 109 l 1,10,-1
 493 12 l 1,11,-1
 396 12 l 1,8,-1
268 140 m 1,12,-1
 268 237 l 1,13,-1
 365 237 l 1,14,-1
 365 140 l 1,15,-1
 268 140 l 1,12,-1
140 268 m 1,16,-1
 140 365 l 1,17,-1
 237 365 l 1,18,-1
 237 268 l 1,19,-1
 140 268 l 1,16,-1
268 268 m 1,20,-1
 268 365 l 1,21,-1
 365 365 l 1,22,-1
 365 268 l 1,23,-1
 268 268 l 1,20,-1
396 268 m 1,24,-1
 396 365 l 1,25,-1
 493 365 l 1,26,-1
 493 268 l 1,27,-1
 396 268 l 1,24,-1
12 396 m 1,28,-1
 12 493 l 1,29,-1
 109 493 l 1,30,-1
 109 396 l 1,31,-1
 12 396 l 1,28,-1
268 396 m 1,32,-1
 268 493 l 1,33,-1
 365 493 l 1,34,-1
 365 396 l 1,35,-1
 268 396 l 1,32,-1
524 396 m 1,36,-1
 524 493 l 1,37,-1
 621 493 l 1,38,-1
 621 396 l 1,39,-1
 524 396 l 1,36,-1
140 524 m 1,40,-1
 140 621 l 1,41,-1
 237 621 l 1,42,-1
 237 524 l 1,43,-1
 140 524 l 1,40,-1
268 524 m 1,44,-1
 268 621 l 1,45,-1
 365 621 l 1,46,-1
 365 524 l 1,47,-1
 268 524 l 1,44,-1
396 524 m 1,48,-1
 396 621 l 1,49,-1
 493 621 l 1,50,-1
 493 524 l 1,51,-1
 396 524 l 1,48,-1
268 652 m 1,52,-1
 268 749 l 1,53,-1
 365 749 l 1,54,-1
 365 652 l 1,55,-1
 268 652 l 1,52,-1
140 780 m 1,56,-1
 140 877 l 1,57,-1
 237 877 l 1,58,-1
 237 780 l 1,59,-1
 140 780 l 1,56,-1
268 780 m 1,60,-1
 268 877 l 1,61,-1
 365 877 l 1,62,-1
 365 780 l 1,63,-1
 268 780 l 1,60,-1
396 780 m 1,64,-1
 396 877 l 1,65,-1
 493 877 l 1,66,-1
 493 780 l 1,67,-1
 396 780 l 1,64,-1
EndSplineSet
Validated: 1
EndChar

StartChar: Ugrave
Encoding: 217 217 155
Width: 767
Flags: W
LayerCount: 2
Fore
SplineSet
140 12 m 1,0,-1
 140 109 l 1,1,-1
 237 109 l 1,2,-1
 237 12 l 1,3,-1
 140 12 l 1,0,-1
268 12 m 1,4,-1
 268 109 l 1,5,-1
 365 109 l 1,6,-1
 365 12 l 1,7,-1
 268 12 l 1,4,-1
396 12 m 1,8,-1
 396 109 l 1,9,-1
 493 109 l 1,10,-1
 493 12 l 1,11,-1
 396 12 l 1,8,-1
12 140 m 1,12,-1
 12 237 l 1,13,-1
 109 237 l 1,14,-1
 109 140 l 1,15,-1
 12 140 l 1,12,-1
524 140 m 1,16,-1
 524 237 l 1,17,-1
 621 237 l 1,18,-1
 621 140 l 1,19,-1
 524 140 l 1,16,-1
12 268 m 1,20,-1
 12 365 l 1,21,-1
 109 365 l 1,22,-1
 109 268 l 1,23,-1
 12 268 l 1,20,-1
524 268 m 1,24,-1
 524 365 l 1,25,-1
 621 365 l 1,26,-1
 621 268 l 1,27,-1
 524 268 l 1,24,-1
12 396 m 1,28,-1
 12 493 l 1,29,-1
 109 493 l 1,30,-1
 109 396 l 1,31,-1
 12 396 l 1,28,-1
524 396 m 1,32,-1
 524 493 l 1,33,-1
 621 493 l 1,34,-1
 621 396 l 1,35,-1
 524 396 l 1,32,-1
12 524 m 1,36,-1
 12 621 l 1,37,-1
 109 621 l 1,38,-1
 109 524 l 1,39,-1
 12 524 l 1,36,-1
524 524 m 1,40,-1
 524 621 l 1,41,-1
 621 621 l 1,42,-1
 621 524 l 1,43,-1
 524 524 l 1,40,-1
12 652 m 1,44,-1
 12 749 l 1,45,-1
 109 749 l 1,46,-1
 109 652 l 1,47,-1
 12 652 l 1,44,-1
524 652 m 1,48,-1
 524 749 l 1,49,-1
 621 749 l 1,50,-1
 621 652 l 1,51,-1
 524 652 l 1,48,-1
268 780 m 1,52,-1
 268 877 l 1,53,-1
 365 877 l 1,54,-1
 365 780 l 1,55,-1
 268 780 l 1,52,-1
140 908 m 1,56,-1
 140 1005 l 1,57,-1
 237 1005 l 1,58,-1
 237 908 l 1,59,-1
 140 908 l 1,56,-1
EndSplineSet
Validated: 1
EndChar

